CoelacanthItalicPearlHairline.sfdir
StartChar: exclam
Encoding: 33 33 75
Width: 291
Flags: W
HStem: 0.443359 118.316<139.493 179.087>
VStem: 101.009 115.312
LayerCount: 2
Fore
SplineSet
164.081054688 209 m 17
 191.712890625 339 212.543945312 437 232.94921875 533 c 0
 242.959960938 580 248.189453125 604 258.806640625 654 c 1
 296.108398438 664 321.734375 688 317.31640625 657 c 5
 309.6640625 621 304.831054688 598.260742188 290.109375 529 c 4
 263.143554688 403 249.026367188 338 220.543945312 204 c 13
 164.081054688 209 l 17
EndSplineSet
Refer: 48 46 N 1 0 0 1 36.7093 0 2
Substitution2: "pcap-1" exclam.pcap
Substitution2: "smcp-1" exclam.smcp
Position2: "cpsp-1" dx=0 dy=0 dh=50 dv=100
EndChar
StartChar: dollar
Encoding: 36 36 1366
Width: 533
UnlinkRmOvrlpSave: 1
Flags: W
HStem: 0.639648 55.7803<143.373 311.157> 441.47 56.4199<167.822 335.793>
VStem: 67 57.8799<335.666 406.443> 361.97 56.3506<99.4846 177.576>
LayerCount: 2
Back
SplineSet
423.088867188 373.231445312 m 1
 371.956054688 408.29296875 l 1
 373.494386962 410.536547708 376.147471149 414.472454809 376.96875 415.700195312 c 1
 353.133059408 427.565402169 325.407831445 435.889648438 296.860351562 435.889648438 c 0
 208.139383572 435.889648438 169 396.400772516 169 366.01953125 c 0
 169 344.117799495 228.037976441 308.404308129 308.526367188 281.373046875 c 0
 363.668521881 262.854078167 458.3203125 227.62123205 458.3203125 139.870117188 c 0
 458.3203125 60.2704540695 367.786029274 0.6396484375 264.099609375 0.6396484375 c 0
 190.87099395 0.6396484375 125.175448333 38.7948212437 88.828125 85.6259765625 c 0
 72.9609375 106.071289062 l 1
 90.2431640625 125.334960938 l 0
 100.407113101 136.663874858 112.396135158 149.408309216 122.197265625 160.124023438 c 1
 167.947265625 118.280273438 l 1
 163.807898747 113.7548608 160.892428936 110.607873378 155.587890625 104.875976562 c 1
 182.336296568 81.3515969031 223.077006267 62.6396484375 264.099609375 62.6396484375 c 0
 351.708728917 62.6396484375 396.3203125 113.521262225 396.3203125 139.870117188 c 0
 396.3203125 173.477518124 350.331484311 201.930837516 288.788085938 222.599609375 c 0
 222.459936278 244.875294978 107 280.506062115 107 366.01953125 c 0
 107 451.678802628 198.028070157 497.889648438 296.860351562 497.889648438 c 0
 353.816358367 497.889648438 403.50476779 475.275522865 438.265625 451.396484375 c 0
 463.247070312 434.234375 l 1
 446.653320312 408.872070312 l 0
 437.623343705 395.070371747 430.702796739 384.335079095 423.088867188 373.231445312 c 1
EndSplineSet
Fore
SplineSet
461.450195312 432.580078125 m 1
 441.276694901 401.243424025 429.312383342 378.85976835 409 352 c 1
 363.770507812 384.870117188 l 1
 371.523084628 394.811832364 378.400390625 402.732012262 378.400390625 415.459960938 c 3
 378.400390625 423.896365784 338.492130061 441.469726562 295.860351562 441.469726562 c 3
 226.915732871 441.469726562 163.879882812 406.970889771 163.879882812 366.099609375 c 3
 163.879882812 333.840379256 235.528241691 302.296998708 310.259765625 276.309570312 c 0
 399.461886893 245.290080582 457.3203125 212.631637388 457.3203125 139.870117188 c 3
 457.3203125 60.5624999998 366.459960938 0.6396484375 263.099609375 0.6396484375 c 3
 179.831054688 0.6396484375 105.487304688 49.8984375002 73.5595703125 107.110351562 c 1
 91.3255050875 128.173121388 116.530247647 151.72997744 137 176 c 1
 178.559570312 136.650390625 l 1
 171.46625572 129.603732639 154.969726562 114.113426731 154.969726562 104.940429688 c 3
 154.969726562 89.1506297352 207.737742595 56.419921875 265.120117188 56.419921875 c 3
 331.514455059 56.419921875 400.969726562 97.3470789152 400.969726562 139.469726562 c 3
 400.969726562 166.397656992 362.305466212 203.138014958 290.8203125 224.41015625 c 0
 189.138295096 254.66810673 106 291.0351468 106 366.01953125 c 3
 106 442.24890148 195.41731809 497.889648438 295.860351562 497.889648438 c 3
 367.149872217 497.889648438 427.416104093 462.560589962 461.450195312 432.580078125 c 1
EndSplineSet
Refer: 1961 58113 N 0.0181668 0.693762 -0.968418 0.0253589 272.417 -112.881 2
Substitution2: "case-1" dollar.alt
Substitution2: "lnum-1" dollar.alt
EndChar
StartChar: quotesingle
Encoding: 39 39 79
Width: 200
Flags: HW
HStem: 445.7 254<72.6024 126.312>
VStem: 72.6024 53.7092<445.7 699.7>
LayerCount: 2
Fore
SplineSet
98.1669921875 699.700195312 m 1
 154.737304688 699.700195312 l 1
 140.024414062 630.734375 118.8671875 537.034179688 99.3173828125 445.700195312 c 1
 45.607421875 445.700195312 l 1
 64.8525390625 536.911132812 83.6015625 630.890625 98.1669921875 699.700195312 c 1
EndSplineSet
Position2: "cpsp-1" dx=0 dy=0 dh=7 dv=15
Position2: "Extra space for context kern-1" dx=35 dy=7 dh=70 dv=15
EndChar
StartChar: parenleft
Encoding: 40 40 59
Width: 351
Flags: W
VStem: 37 57<122.356 415.339>
LayerCount: 2
Fore
SplineSet
305 714 m 1
 331 665 l 1
 172.640909091 585.85013624 94 447.065395095 94 271 c 3
 94 91.3827992141 173.558902877 -41.7718009103 333 -126 c 1
 308 -177 l 1
 133 -81.5925925926 37 69.8148148148 37 271 c 3
 37 472.269320843 139 629.964871194 305 714 c 1
EndSplineSet
Position2: "'case' vertical ajustments for all-caps-1" dx=0 dy=125 dh=0 dv=0
Position2: "cpsp-1" dx=0 dy=0 dh=50 dv=100
EndChar
StartChar: asterisk
Encoding: 42 42 87
Width: 418
Flags: W
HStem: 550.722 20G<43.5669 83.6548>
VStem: 152.767 94.8008<554.973 666.936>
LayerCount: 2
Fore
SplineSet
219 434 m 1
 186.458007812 379.728515625 195.21875 355.607421875 155.166992188 298.321289062 c 1
 127.56640625 293.521484375 86.7666015625 333.12109375 80.7666015625 354.721679688 c 1
 116.360351562 411.98046875 135.599609375 411.98046875 171.193359375 461.676757812 c 1
 108.581054688 481.920898438 87.7099609375 447.216796875 21.966796875 481.920898438 c 1
 7.56640625 509.521484375 36.3671875 559.921875 50.7666015625 570.721679688 c 1
 116.54296875 554.340820312 122.908203125 536.140625 181.2578125 517.030273438 c 1
 173.010742188 580.461914062 158.014648438 595.513671875 152.766601562 664.321289062 c 1
 170.766601562 683.524414062 228.3671875 677.5234375 247.567382812 663.12109375 c 1
 248.036132812 595.75 241.002929688 584.169921875 239.127929688 522.0625 c 1
 296.866210938 550.469726562 304.4921875 570.354492188 368.766601562 595.920898438 c 1
 387.966796875 587.520507812 407.166992188 538.321289062 396.3671875 507.12109375 c 1
 335.647460938 475.288085938 319.456054688 491.962890625 261.772460938 469.224609375 c 1
 304.66015625 422.509765625 327.079101562 421.397460938 369.966796875 369.12109375 c 1
 367.56640625 345.12109375 320.766601562 316.321289062 293.166992188 316.321289062 c 1
 247.971679688 367.315429688 256.083007812 385.948242188 219 434 c 1
EndSplineSet
EndChar
StartChar: comma
Encoding: 44 44 46
Width: 217
Flags: W
HStem: -134.937 253.586
VStem: 13.082 164.382
LayerCount: 2
Fore
SplineSet
40.521484375 -134.936523438 m 1
 13.08203125 -86 l 5
 50.1298828125 -65.482421875 100.501953125 -18.1591796875 105.424804688 5 c 4
 108.491210938 19.423828125 81.1484375 33.201171875 68.1923828125 45.1181640625 c 0
 65.4580078125 47.818359375 63.47265625 53.36328125 64.640625 58.859375 c 0
 66.1494140625 65.9560546875 71.6748046875 70.1728515625 76.3818359375 74.236328125 c 0
 86.2392578125 82.7470703125 102.205078125 95.474609375 115.416015625 110.00390625 c 0
 119.427734375 114.416015625 129.21484375 118.649414062 133.91015625 118.649414062 c 3
 140.578125 118.649414062 144.977539062 114.141601562 147.631835938 110.00390625 c 0
 155.395507812 97.904296875 168.220703125 80.4609375 175.7890625 71.30078125 c 0
 183.46484375 62.01171875 179.924804688 32.578125 177.463867188 21 c 0
 166.069335938 -32.6083984375 106.56640625 -96.822265625 40.521484375 -134.936523438 c 1
EndSplineSet
Position2: "cpsp-1" dx=0 dy=0 dh=7 dv=15
Position2: "Extra space for context kern-1" dx=78 dy=17 dh=156 dv=33
EndChar
StartChar: period
Encoding: 46 46 48
Width: 217
Flags: HW
HStem: 0.443359 118.316<82.1145 135.791>
VStem: 51.6797 115.64<30.0707 86.4186>
LayerCount: 2
Fore
SplineSet
166.338867188 39.904296875 m 0
 151.413085938 29.8583984375 139.418945312 20.044921875 128.083984375 9.9052734375 c 0
 122.743164062 5.107421875 116.126953125 0.443359375 108.600585938 0.443359375 c 3
 101.879882812 0.443359375 95.4892578125 4.8994140625 92.7724609375 9.9052734375 c 0
 87.271484375 20.1728515625 79.0302734375 31.1396484375 70.9638671875 41.44921875 c 0
 67.466796875 45.8662109375 62.87109375 52.65234375 64.2998046875 59.3740234375 c 0
 65.90625 66.931640625 72.6689453125 71.2080078125 78.2548828125 75.75 c 0
 90.203125 85.5576171875 103.462890625 97.234375 113.647460938 108.115234375 c 0
 118.444335938 113.1953125 127.028320312 118.759765625 133.749023438 118.759765625 c 3
 141.275390625 118.759765625 145.647460938 112.911132812 148.958984375 108.115234375 c 0
 156.087890625 97.7216796875 164.985351562 83.9169921875 173.630859375 74.2060546875 c 0
 177.502929688 69.8828125 181.217773438 65.3876953125 179.611328125 57.8291015625 c 0
 178.182617188 51.107421875 172.094726562 43.7958984375 166.338867188 39.904296875 c 0
EndSplineSet
Position2: "cpsp-1" dx=0 dy=0 dh=7 dv=15
Position2: "Extra space for context kern-1" dx=78 dy=17 dh=156 dv=33
EndChar
StartChar: zero
Encoding: 48 48 63
Width: 573
Flags: HW
HStem: -12 82<220.302 367.309> 431 77<209.556 352.22>
VStem: 51 85<162.78 347.8> 440 82<155.702 338.788>
LayerCount: 2
Back
SplineSet
392.978515625 452 m 0
 255.451236254 452 174.270291964 310.596281828 161.040914345 248.356946564 c 0
 136.513702934 132.964156583 170.796297658 65.0287403647 250.86354417 48.191875682 c 0
 263.486274389 45.5375168789 277.971008901 44 294.44921875 44 c 0
 406.588339515 44 500.113916839 166.379507566 520.788217891 263.643197741 c 0
 539.425424234 351.326830714 515.348397822 431.027280523 433.303329338 448.155582447 c 0
 421.748192453 450.567913585 408.386324053 452 392.978515625 452 c 0
392.978515625 508 m 0
 411.852707451 508 429.074800564 506.245687385 444.747549933 502.973734687 c 0
 570.889406274 476.63947913 596.732694646 351.591552837 575.564453125 252 c 0
 551.718464142 139.814882908 446.606820264 -12 294.44921875 -12 c 0
 274.49545969 -12 256.139670083 -10.1423591281 239.339670724 -6.60958726192 c 0
 119.237755985 18.6459295028 78.6849160032 130.246061842 106.264648438 260 c 0
 122.462446245 336.204655821 214.842033988 508 392.978515625 508 c 0
EndSplineSet
Fore
SplineSet
396 453 m 3
 259.996323579 453 176.397209161 318.66361292 162 250 c 0
 136 126 172.221667636 44 295.999023438 44 c 3
 391.905963652 44 495.288977739 145.454946112 520 262 c 0
 545.891964578 384.114754098 492 453 396 453 c 3
392.978515625 508 m 3
 563.978515625 508 599.371051536 363.9998014 575.564453125 252 c 0
 551.7578125 140 446.44921875 -12 294.44921875 -12 c 3
 131.44921875 -12 74.8062963936 112.000073168 106.264648438 260 c 0
 122.418945312 336 214.978515625 508 392.978515625 508 c 3
EndSplineSet
Substitution2: "case-1" zero.proportionallining
Substitution2: "tnum-1" zero.tabulartext
Substitution2: "lnum-1" zero.proportionallining
Substitution2: "numr-1" zero.numerator
Substitution2: "dnom-1" zero.denom
Substitution2: "'zero' Slashed Zero lookup 22-1" zero.alt
EndChar
StartChar: one
Encoding: 49 49 64
Width: 485
Flags: HW
HStem: -0.65625 55.2236<110.567 192.988 302.558 377.154> 448.641 56.4805<117.524 196.729> 456.085 63.9658<296.311 378.812>
VStem: 206.17 83.4951<76.9742 437.962>
LayerCount: 2
Back
SplineSet
347 465 m 1
 374.378467594 459.133185516 l 1
 284.378467594 39.1331855155 l 1
 257 45 l 1
 229.621532406 50.8668144845 l 1
 319.621532406 470.866814484 l 1
 347 465 l 1
246.614710136 476.12454693 m 1
 247.359594581 504.11463709 l 1
 257.752410349 503.83805896 264.953709678 503.76171875 274.959960938 503.76171875 c 0
 331.13506464 503.76171875 404.429350267 507.879339478 450.13474503 513.455629072 c 1
 453.52574214 485.66172437 l 1
 456.91673925 457.867819667 l 1
 407.745214472 451.868644661 333.811081432 447.76171875 274.959960938 447.76171875 c 0
 264.675818648 447.76171875 256.682472696 447.846705908 245.869825692 448.13445677 c 1
 246.614710136 476.12454693 l 1
355.809294092 27.4924730581 m 1
 355.637385977 -0.506999215536 l 1
 323.256581724 -0.308191074816 290.974452688 -0.2109375 253.758789062 -0.2109375 c 0
 218.970978291 -0.2109375 179.315384054 0.475093999254 141.034526018 0.292998198596 c 1
 140.90133609 28.292681419 l 1
 140.768146162 56.2923646394 l 1
 179.865334711 56.4783435912 219.684895926 55.7890625 253.758789062 55.7890625 c 0
 291.071148009 55.7890625 323.483341994 55.6914721598 355.981202207 55.4919453317 c 1
 355.809294092 27.4924730581 l 1
EndSplineSet
Fore
SplineSet
234.891601562 505.12109375 m 1xd0
 249.020507812 504.19140625 266.178710938 503.76171875 284.959960938 503.76171875 c 0
 351.564732521 503.76171875 441.406859928 511.036879871 473.352539062 516.05078125 c 1
 465.928710938 459.084960938 l 1xb0
 378.365403066 448.91645006 373.489179752 454.510308061 369.8515625 437.62890625 c 0
 360.770111958 395.48384122 344.732185202 320.198840749 329.486328125 248.504882812 c 0
 310.520803637 159.319112013 295.413756302 91.0680754997 290.623046875 66.615234375 c 0
 288.070337659 53.5856416069 295.950356013 55.5903101543 376.776367188 55.734375 c 1
 367.014648438 -0.65625 l 1
 333.182540541 -0.369140625 295.751234046 -0.2109375 253.758789062 -0.2109375 c 0
 213.990318723 -0.2109375 170.149249751 -0.3515625 121.427734375 -0.65625 c 1
 125.620117188 54.5673828125 l 1
 231.581193792 55.4598438681 233.16414072 60.9424730543 234.28515625 66.8779296875 c 0
 238.887799278 91.2476082202 248.058984925 131.580350435 272.991210938 248.504882812 c 0
 296.058109366 356.681597994 302.897633668 385.618157717 311.653320312 432.208984375 c 0
 313.691929538 443.056847361 317.075273159 448.300102665 221.051757812 448.640625 c 1
 234.891601562 505.12109375 l 1xd0
EndSplineSet
Substitution2: "case-1" one.proportionallining
Substitution2: "lnum-1" one.proportionallining
Substitution2: "tnum-1" one.tabulartext
Substitution2: "numr-1" one.numerator
Substitution2: "dnom-1" one.denom
EndChar
StartChar: two
Encoding: 50 50 65
Width: 623
Flags: HW
HStem: -6.54492 15.6328G<99.4619 121.188 487.648 502.273> 0.992188 76.8711<201.317 441.038> 425.687 90.0449<207.098 327.535>
VStem: 350.269 94.7588<284.3 402.511>
LayerCount: 2
Back
SplineSet
202.592206849 61.7774737699 m 2
 200.130609385 60.0750492809 199.05408928 59.3296299654 195.70231969 56.9987223744 c 1
 241.369155587 57.7269903477 293.911087297 56.9921875 334.309570312 56.9921875 c 0
 353.609073019 56.9921875 412.755209327 56.3424021037 459.046276475 51.7495849248 c 1
 479.098064954 90.1165901827 503.371794515 121.268188259 522.107159107 140.827474683 c 1
 562.54774315 102.09042314 l 1
 544.684969801 83.44210175 520.496394096 52.4526275086 500.841646526 9.85084466082 c 2
 492.067465264 -9.16724567523 l 1
 471.345533114 -6.1216677602 l 2
 431.041199255 -0.1979928735 354.851602524 0.9921875 334.309570312 0.9921875 c 0
 269.992947336 0.9921875 177.324066653 2.6572655362 131.220705503 -2.0396611353 c 2
 108.778687923 -4.3260131128 l 1
 91.519511224 48.4664804167 l 1
 106.367357302 60.6098404485 l 2
 127.620393784 77.9917066409 154.182625788 96.4959231014 183.954134506 116.93870965 c 2
 391.484367428 259.440599434 l 1
 220.337782506 74.8209021148 l 2
 219.354485981 73.7601978837 218.276090158 72.4959964632 217.788728411 71.8641807277 c 2
 195.618164062 88.9658203125 l 1
 202.592206849 61.7774737699 l 2
212.539514489 389.209476929 m 1
 193.468383489 409.710500376 l 1
 243.234006073 456.005101717 317.235972871 515.731445312 399.296875 515.731445312 c 0
 411.318398034 515.731445312 422.374679572 514.577912356 432.493812431 512.434000515 c 0
 511.408226247 495.714628557 533.617293472 418.338665228 521.05735458 357.694780435 c 0
 503.011284959 270.561890981 404.457540035 198.132135007 323.202349515 144.899863715 c 1
 307.858398438 168.321289062 l 1
 292.51444736 191.74271441 l 1
 373.857809823 245.032749309 454.906629268 314.421626548 466.221091604 369.051904313 c 0
 475.261346274 412.701492694 459.599829902 449.448066931 420.886896319 457.650065841 c 0
 414.869518138 458.924950608 407.747039939 459.731445312 399.296875 459.731445312 c 0
 344.790066969 459.731445312 279.745536043 413.486062061 231.610645489 368.708453481 c 1
 212.539514489 389.209476929 l 1
EndSplineSet
Fore
SplineSet
169.52734375 386.836914062 m 1xb0
 215.73828125 431.685546875 302.782226562 515.731445312 399.296875 515.731445312 c 1
 505.260742188 515.731445312 535.7207892 426.172441501 521.02734375 357.551757812 c 0
 495 236 319 145 195.999023438 58 c 1
 362.182161199 61 459.294089916 50 461 55 c 1
 482.692506818 91.2063184803 499.744718845 122.075395318 531.50390625 150.438476562 c 5
 573.895507812 111.48828125 l 5
 573.895507812 111.48828125 523.674800469 73.996250298 491.653320312 -11.912109375 c 1
 480.84765625 -1.2373046875 359.75 0.9921875 334.309570312 0.9921875 c 1x70
 255.163085938 0.9921875 135.40234375 3.7666015625 106.3828125 -6.544921875 c 1
 93.32421875 49.76171875 l 1
 182.973031486 127.296215143 445.136565775 265.970640285 467 368 c 0
 476 410 460.496336969 460 400 460 c 1
 347.947377831 460 262.691245125 405.312677836 199.017578125 342.372070312 c 1
 169.52734375 386.836914062 l 1xb0
EndSplineSet
Substitution2: "case-1" two.proportionallining
Substitution2: "lnum-1" two.proportionallining
Substitution2: "tnum-1" two.tabulartext
Substitution2: "numr-1" two.numerator
Substitution2: "dnom-1" two.denom
EndChar
StartChar: three
Encoding: 51 51 66
Width: 490
Flags: HW
HStem: -177.1 53.4707<114.552 147.554> 425.581 81.8042<172.493 275.111>
VStem: 291.367 91.4232<300.86 409.107> 326.294 91.4463<0.994154 126.769>
LayerCount: 2
Back
SplineSet
196.714695588 180.51876021 m 1
 184.468058235 205.698511471 l 1
 220.838603392 223.387998244 256.646546742 240.956289918 286.63255251 260.64388977 c 1
 301.99999759 237.237872771 l 1
 317.367442669 213.831855773 l 1
 283.204581 191.401901096 245.381779729 173.052766303 208.961332941 155.33900895 c 1
 196.714695588 180.51876021 l 1
233.437238984 429.971650756 m 1
 217.533300918 453.016492999 l 1
 260.267879071 482.508909438 312.565704485 507.384765625 356.868164062 507.384765625 c 0
 367.708188147 507.384765625 377.796393006 506.351755194 387.110181546 504.405261276 c 0
 447.824787046 491.716481645 476.056968071 438.783860893 463.852539062 381.3671875 c 0
 446.066398409 297.691790564 385.821324268 261.406856172 357.352045711 240.336275926 c 1
 394.444399425 214.891873158 452.853311635 165.195207114 432.291992188 68.4609375 c 0
 420.122076612 11.2069139284 366.513264703 -38.8079216344 301.711780906 -79.7739101813 c 1
 286.749865276 -56.1066103633 l 1
 271.787949646 -32.4393105453 l 1
 332.323876291 5.83009213358 371.059799973 49.73173776 377.515764913 80.104172681 c 0
 391.498877536 145.890135008 358.869827333 171.385775329 325.674783399 194.156723603 c 2
 293.339410401 216.337959676 l 1
 261.004037404 238.519195748 l 1
 292.480226223 261.903658924 l 1
 323.956415041 285.288122101 l 2
 356.806331468 309.693162541 396.223585081 332.544409856 409.076324808 393.010483939 c 0
 416.131915785 426.204053459 405.292849004 443.395367688 375.654217644 449.589561964 c 0
 370.385432492 450.690688344 364.152528636 451.384765625 356.868164062 451.384765625 c 0
 333.484389188 451.384765625 286.508299119 432.576956222 249.34117705 406.926808513 c 1
 233.437238984 429.971650756 l 1
99.9404467014 -141.899416736 m 1
 91.1036306926 -115.330437026 l 1
 100.558925505 -112.185615453 111.586685784 -108.355953289 121.181518122 -104.927825333 c 1
 130.602354448 -131.295378176 l 1
 140.023190774 -157.662931019 l 1
 130.071012484 -161.218734749 118.764244811 -165.146736214 108.77726271 -168.468396446 c 1
 99.9404467014 -141.899416736 l 1
EndSplineSet
Fore
SplineSet
65.3828125 -123.62890625 m 1xd0
 276.504561399 -56.8304631256 365 25 378 83 c 0xd0
 394.795020927 157.931631828 343.620075723 179.917175338 307 208 c 1
 281.385839916 191.505421159 207.601577438 152.581953243 160.161132812 138.388671875 c 1
 138.532226562 183.491210938 l 1
 264.816845823 243.940631513 392 304 409.190429688 390.58984375 c 0
 416.072944291 425.25773018 405.010637094 452 358 452 c 3
 312.98889026 452 231.403968176 399.466200359 188.733398438 364.872070312 c 1
 159.5078125 402.51171875 l 1
 194.213867188 444.116210938 287.559570312 507.384765625 356.868164062 507.384765625 c 3
 439.041992188 507.384765625 478.020648344 448.021454503 463.852539062 381.3671875 c 0xe0
 446.038085938 297.55859375 385.926757812 261.564453125 357.352539062 240.3359375 c 1
 394.797851562 214.649414062 452.94288004 165.614152122 432.291992188 68.4609375 c 0
 405.958007812 -55.4287109375 182.245117188 -148.784179688 80.3564453125 -177.099609375 c 1
 65.3828125 -123.62890625 l 1xd0
EndSplineSet
Substitution2: "case-1" three.proportionallining
Substitution2: "lnum-1" three.proportionallining
Substitution2: "tnum-1" three.tabulartext
Substitution2: "numr-1" three.numerator
Substitution2: "dnom-1" three.denom
EndChar
StartChar: four
Encoding: 52 52 67
Width: 641
Flags: HW
HStem: -8.63477 21G<542.871 565.894> 1.04492 72.3633<161.038 359.951 442.193 518.943> 495.018 20G<391.258 439.155>
VStem: 360.952 81.2412<-104.114 1.04492 77.3945 330.084>
LayerCount: 2
Back
SplineSet
411.216692007 -93.7996714026 m 0
 420.875137784 -112.446773729 l 1
 394.339105562 -126.191366529 389.263228527 -144.055053436 371.997736939 -162.527962853 c 1
 329.65070823 -125.951468306 l 1
 361.581554502 -85.9114420132 371.539374162 -42.8901835764 383.640695303 12.7903095433 c 0
 383.640695303 12.7903095433 369.249527571 12.791015625 367.640625 12.791015625 c 0
 105.609837319 12.791015625 113.584131055 14.7114677534 85.0744896682 -9.3848737016 c 0
 80.400642532 -13.3352080806 74.916130462 -15.6799732044 73.530690623 -16.2951832452 c 1
 -108.591882091 -114.894429734 l 1
 42.4366359103 29.4271585271 l 0
 130.858864213 113.922700132 422.533413548 401.60669863 499.395230909 494.804867571 c 0
 632.515134318 656.218319311 l 1
 546.52280132 465.482104357 l 0
 522.648807649 412.528137067 507.86810172 331.677962309 482.567269126 215.268084595 c 0
 466.938042784 143.357552777 469.131124175 148.612653296 452.656838247 68.4537777175 c 1
 458.594943186 68.3951182952 l 0
 550.346305607 67.4887547375 529.204227253 58.8688497244 552.136167229 101.313574528 c 1
 601.428448946 74.73786095 l 1
 591.004154324 55.3623672242 577.750623194 30.5660306106 567.025724012 10.1532446401 c 1
 542.238675241 23.1763860911 l 1024
515.674001107 12.6429070245 m 0
 500.402995818 11.8392618682 482.346199133 12.1577598095 458.041775564 12.3978504548 c 0
 440.89951052 12.5671898948 l 1
 438.363210947 0.897190456687 l 0
 433.696583794 -20.5748536333 429.089727094 -41.7639256855 422.805467037 -62.869601766 c 1024
395.553478089 68.791015625 m 1
 397.793021852 79.6778910072 l 2
 414.090266879 158.9020967 412.016878195 154.336682209 427.844840249 227.161602905 c 0
 439.329441073 280.002590353 448.117538245 323.7423293 457.743336414 365.597716751 c 1
 371.384326398 274.677752615 250.371834954 154.047566738 162.576954981 67.9968709357 c 1
 202.623031093 69.2925138051 266.213126879 68.791015625 367.640625 68.791015625 c 2
 395.553478089 68.791015625 l 1
EndSplineSet
Fore
SplineSet
395.884765625 68.9599609375 m 1x70
 418.81682207 183.932458853 440.819133593 288.279181482 458.000976562 366 c 1
 458.000976562 366 278.006315158 181.233582667 162.493164062 68.408203125 c 1
 230.859915939 68.9599609375 341.344766088 68.9599609375 395.884765625 68.9599609375 c 1x70
555.959960938 486.17578125 m 1
 529.848331981 440.596516793 514.359823347 354.452478628 484.567382812 224.267578125 c 0
 467.134902438 148.092357754 470.894346557 156.65052654 452.64453125 68.39453125 c 1
 562.284142711 64.9528461347 518.227376076 66.3541817131 570.913085938 114.48046875 c 1
 570.913085938 114.48046875 608.999023438 97.833007812 612.149414062 95.841796875 c 1
 612.149414062 95.841796875 578.49265931 33.0421085854 557.225585938 -8.634765625 c 1xb0
 526.447628471 7.36152455236 476.978389008 11.7008641388 442 12 c 5
 413.224425252 -97.4490535822 417.640981767 -88.1170724305 429.943359375 -116.715820312 c 5
 390.425021126 -122.965096812 391.170634028 -145.331507825 359.356445312 -177.099609375 c 5
 359.356445312 -177.099609375 318.216461099 -145.81095282 317 -142 c 1
 354.674458682 -100.716961237 370.761579792 -54.2133684353 385 13 c 1
 49.3466842368 13 125.381012475 18.3798174384 63.7216796875 -28.75390625 c 1
 63.7216796875 -28.75390625 21.7748048157 4.56340973372 19.1455078125 7.71484375 c 1
 43.0322265625 27.455078125 472.56640625 447.77734375 514.59765625 515.017578125 c 1
 555.959960938 486.17578125 l 1
EndSplineSet
Substitution2: "case-1" four.proportionallining
Substitution2: "lnum-1" four.proportionallining
Substitution2: "tnum-1" four.tabulartext
Substitution2: "numr-1" four.numerator
Substitution2: "dnom-1" four.denom
EndChar
StartChar: five
Encoding: 53 53 68
Width: 488
Flags: HW
HStem: 420.284 88.7549<173.652 357.588> 550.239 20G<380.351 385.02>
VStem: 102.699 70.7256<308.774 420.213> 306.973 81.498<24.9985 170.456>
LayerCount: 2
Back
SplineSet
202.368424342 278.264775439 m 1
 200.728201869 306.216692551 l 1
 238.990234375 308.461914062 l 2
 264.914792574 309.983170825 288.155748903 308.406083128 308.696584041 304.064015929 c 0
 396.07661767 285.593005606 434.308286632 215.647307844 414.55859375 122.732421875 c 0
 383.073351913 -25.3944809053 221.697463728 -136.538727886 73.1445322131 -169.848680968 c 1
 67.0182286905 -142.52710698 l 1
 60.891925168 -115.205532993 l 1
 196.175275752 -84.8710117239 335.175672284 18.6098828289 359.78232034 134.375440009 c 0
 374.956019096 205.761992607 353.406280806 237.375470756 297.114841798 249.274753782 c 0
 282.289991575 252.40853561 263.96341635 253.831012733 242.270679321 252.558079838 c 2
 204.008646815 250.312858327 l 1
 202.368424342 278.264775439 l 1
183.168159451 255.636585179 m 1
 156.179496219 263.093934371 l 1
 174.645300838 329.922960247 193.46881869 413.070579781 206.649596591 485.017242978 c 2
 211.038464554 508.973674649 l 1
 235.371939649 507.946654585 l 2
 369.237993547 502.296696139 398.413752107 505.690759195 428.076171875 507.995117188 c 0
 443.955848305 509.228324547 458.702494175 518.488116417 472.627127464 530.650728894 c 1
 491.046858004 509.562496943 l 1
 509.466588545 488.474264993 l 1
 492.52589433 473.677243443 467.096319128 454.856787403 432.412047395 452.163225016 c 0
 403.789632823 449.939660981 373.429980361 446.713013063 257.231819191 451.029805462 c 1
 244.355113749 384.495855815 227.106473704 309.521196983 210.156822682 248.179235986 c 1
 183.168159451 255.636585179 l 1
EndSplineSet
Fore
SplineSet
210.8984375 509.0390625 m 1
 362.944335938 501.951171875 397.655210885 505.632641282 428.076171875 507.995117188 c 0
 459.903320312 510.466796875 492.172851562 548.040039062 506.227539062 570.239257812 c 1
 506.227539062 570.239257812 545.180664062 539.563476562 547.91796875 537.970703125 c 1
 512.985105784 482.0107717 470.982931582 457.85929554 458 456 c 0
 392.54526555 446.626177528 372.940109013 448.266441816 257 452 c 1
 257 452 230.443818247 325.763301433 225.990234375 308.461914062 c 1
 376.15016432 320.501953126 439.114370144 238.258645919 414.55859375 122.732421875 c 0
 380.188476562 -38.966796875 190.087890625 -157.603515625 31.3564453125 -177.099609375 c 1
 31.3564453125 -177.099609375 42.5846549561 -122.705289335 40.97265625 -119.411132812 c 1
 114.959963968 -110.095626247 322 -28 360 134 c 0
 388.362884069 254.915453137 294 268 149.809570312 241.197265625 c 1
 171.901136318 314.955242411 196.438969994 423.246088444 210.8984375 509.0390625 c 1
EndSplineSet
Substitution2: "case-1" five.proportionallining
Substitution2: "lnum-1" five.proportionallining
Substitution2: "tnum-1" five.tabulartext
Substitution2: "numr-1" five.numerator
Substitution2: "dnom-1" five.denom
EndChar
StartChar: six
Encoding: 54 54 69
Width: 603
Flags: HW
HStem: -14.0537 76.3018<255.462 383.761> 340.866 79.7994<271.991 387.114> 656.493 20G<280.843 384.088>
VStem: 86.6972 88.8108<163.546 384.707> 443.152 84.1069<119.83 281.405>
LayerCount: 2
Back
SplineSet
348.687526205 362.408865084 m 1
 331.186456189 384.265501337 l 1
 356.190965544 404.287139794 389.076842809 420.665039062 430.071289062 420.665039062 c 0
 441.743572223 420.665039062 452.797470723 419.51351268 463.177577027 417.315665389 c 0
 551.135771204 398.691705955 591.977777886 304.479648124 569.173828125 197.193359375 c 0
 544.990430148 83.4203087431 426.233675296 -14.0537109375 303.107421875 -14.0537109375 c 0
 287.036616223 -14.0537109375 272.340224713 -12.5311202763 258.930510748 -9.69579660175 c 0
 133.727669056 16.7768471925 120.178666296 157.517850343 138.400390625 243.24609375 c 0
 175.462033387 417.603834433 286.647835224 555.169921947 493.261811877 659.743748148 c 1
 505.906184749 634.761357656 l 1
 518.550557621 609.778967164 l 1
 322.519355546 510.561415729 226.357897138 387.705298982 193.176607651 231.602810353 c 0
 176.320483771 152.299344621 195.890362323 60.8713721228 270.514925632 45.0929005155 c 0
 279.793360309 43.1310864476 290.565418495 41.9462890625 303.107421875 41.9462890625 c 0
 398.57772721 41.9462890625 496.164312836 123.056391033 514.397581041 208.836501363 c 0
 533.769035534 299.973847398 498.274613524 352.642799203 451.577511677 362.530279711 c 0
 445.189113847 363.882936654 438.076352623 364.665039062 430.071289062 364.665039062 c 0
 404.30731757 364.665039062 384.542904979 355.248911292 366.188596221 340.552228831 c 1
 348.687526205 362.408865084 l 1
EndSplineSet
Fore
SplineSet
527.880859375 676.493164062 m 5
 527.880859375 676.493164062 533.529233514 624.947653946 536 620 c 5
 347 522 229.519358394 411.429896665 193 233 c 4
 175.199831034 146.030172245 193.479208812 42 305.603515625 42 c 7
 376.801087191 42 492.66774641 106.882790106 513 209 c 4
 536.411767316 326.583835278 480.850712162 365 430 365 c 7
 388.988799542 365 364.187618681 336.884699092 341.993164062 320.64453125 c 5
 315.185546875 370.030273438 l 5
 341.506835938 395.86328125 379.455078125 420.665039062 430.071289062 420.665039062 c 7
 540.854492188 420.665039062 594.663763544 317.113137221 569.173828125 197.193359375 c 4
 545.021484375 83.56640625 426.095703125 -14.0537109375 303.107421875 -14.0537109375 c 7
 137.024414062 -14.0537109375 118.257995404 148.485520259 138.400390625 243.24609375 c 4
 177.454101562 426.975585938 298.810546875 570.254882812 527.880859375 676.493164062 c 5
EndSplineSet
Substitution2: "case-1" six.proportionallining
Substitution2: "lnum-1" six.proportionallining
Substitution2: "tnum-1" six.tabulartext
Substitution2: "numr-1" six.numerator
Substitution2: "dnom-1" six.denom
EndChar
StartChar: seven
Encoding: 55 55 70
Width: 575
Flags: HW
HStem: 426.44 80.5371<152.503 401.205>
LayerCount: 2
Back
SplineSet
187.189212524 398.585379259 m 1
 163.42119249 413.386771885 l 1
 183.464521019 445.572272674 209.736779173 488.970123394 225.340461203 518.061161636 c 2
 241.819882278 548.784901571 l 1
 268.263167642 526.063278087 l 2
 285.81604676 510.980813677 288.356282751 507.147143815 295.931183496 506.97840722 c 0
 397.460219469 504.7167718 533.858350142 505.564073689 590.338073424 506.925265987 c 2
 613.79312138 507.490545503 l 1
 618.454501758 484.496408239 l 2
 619.541654387 479.133589768 620.139387268 476.459104587 620.791276441 473.765913454 c 2
 623.98693807 460.563473664 l 1
 615.595575367 449.881633857 l 2
 550.172866643 366.601370673 226.278231859 -72.7258665128 169.739483739 -159.579334457 c 1
 146.2734375 -144.303710937 l 1
 122.807391261 -129.028087418 l 1
 176.719010493 -46.2103518208 443.257306954 315.977376002 545.166861363 450.15273295 c 1
 479.003399462 449.356302884 375.547539475 449.191001051 294.684050879 450.992295905 c 0
 280.305439756 451.312590251 269.092682161 455.271087832 258.08507337 461.928688353 c 1
 243.575573416 436.827435207 225.383513181 406.949653239 210.957232559 383.783986634 c 1
 187.189212524 398.585379259 l 1
EndSplineSet
Fore
SplineSet
276.36328125 516.116210938 m 1
 283.833007812 509.794791488 290.585817793 507.237712725 301.97265625 506.977539062 c 0
 423.184790582 504.208007814 592.692694093 506.028320313 615 507.927734375 c 1
 615 507.927734375 622.306640625 463.780574839 625.149414062 460.54296875 c 1
 590.19302419 420.057075321 180.312472422 -134.2880061 162.102539062 -172.337890625 c 1
 162.102539062 -172.337890625 94.1139097122 -172.113281251 92.7080078125 -172.180664062 c 1
 233.029195014 29.1228842947 364.074131354 208.160116893 533.658203125 435.1015625 c 0
 538.346630968 441.375728353 535.031283169 449.516979465 525.017578125 449.647460938 c 0
 449.668563853 450.629280381 438.185895418 451.329039434 380.814453125 450.440429688 c 0
 236.090439614 448.35857244 276.164141514 474.38596074 194.064453125 357.680664062 c 5
 194.064453125 357.680664062 151.240234375 382.984375 147.10546875 384.1484375 c 5
 147.10546875 384.1484375 221.801677175 503.697941976 238.489257812 544.783203125 c 1
 276.36328125 516.116210938 l 1
EndSplineSet
Substitution2: "case-1" seven.proportionallining
Substitution2: "lnum-1" seven.proportionallining
Substitution2: "tnum-1" seven.tabulartext
Substitution2: "numr-1" seven.numerator
Substitution2: "dnom-1" seven.denom
EndChar
StartChar: eight
Encoding: 56 56 71
Width: 570
UnlinkRmOvrlpSave: 1
Flags: HW
HStem: -12.5264 66.5264<237.184 369.748> 596.136 64.7168<221.798 334.876>
VStem: 82.5742 90.4258<118.32 235.13> 119.264 84.0918<463.903 577.618> 365.527 82.4727<455.699 565.992> 401 87.877<84.6847 218.086>
LayerCount: 2
Back
SplineSet
357.290468473 323.239645957 m 1
 267.649753428 268.364211898 183.737830335 207.91597647 172.990720508 156.031582978 c 0
 159.416159363 90.4969524296 182.524521122 59.0984730679 239.280809251 47.1514522674 c 0
 250.354596019 44.8204548534 263.074471586 43.4736328125 277.3125 43.4736328125 c 0
 402.416732385 43.4736328125 451.623657638 116.313280174 465.083312304 178.627402902 c 0
 478.430493889 240.420809342 436.667841565 270.06110942 357.290468473 323.239645957 c 1
373.72295871 379.676458315 m 2
 449.885556154 328.107375744 543.637434775 277.067185601 519.820984571 166.804237723 c 0
 501.88518449 83.7669180347 430.271761865 -12.5263671875 277.3125 -12.5263671875 c 0
 259.559279799 -12.5263671875 243.00192142 -10.8590335656 227.745767626 -7.64766099836 c 0
 143.30428125 10.1270072791 99.2970855533 76.3499696652 118.154740238 167.390071779 c 0
 137.374958815 260.180542868 252.794845894 325.161078875 343.455006575 380.402136588 c 2
 358.822173514 389.765660206 l 1
 373.72295871 379.676458315 l 2
360.144396333 390.742405562 m 1
 435.358631731 437.004008381 492.095192011 474.84671168 499.225902017 510.337044338 c 0
 514.764900894 587.676361019 485.087240332 593.850416645 449.350610166 601.402486105 c 0
 435.74901347 604.276853457 422.320224464 604.852539062 415.665039062 604.852539062 c 0
 386.253729647 604.852539062 307.285904198 574.565218109 289.385660633 492.268623716 c 0
 284.567039524 470.114952706 292.072027539 446.902090376 360.144396333 390.742405562 c 1
340.655812449 334.529160077 m 2
 262.075200746 396.674328025 221.41755347 443.264973225 234.665120617 504.170829409 c 0
 259.575454131 618.696400302 364.22626166 660.852539062 415.665039062 660.852539062 c 0
 425.074949005 660.852539062 441.834113596 660.227697611 460.929134709 656.192428334 c 0
 511.028155864 645.605216112 576.325826468 609.783607205 554.128687088 499.305988567 c 0
 538.532405708 421.68157053 447.985980335 379.720249599 372.869382486 332.750382972 c 2
 356.135713972 322.286940793 l 1
 340.655812449 334.529160077 l 2
EndSplineSet
Fore
SplineSet
417 604 m 3xe8
 364.870661548 604 303.335897473 551.897490586 292 504 c 0
 263.064999057 381.741137077 557.107842656 344.096540905 520.83984375 171.89453125 c 0xd4
 502.877346593 86.6078266581 431.448623815 -12.5263671875 277.3125 -12.5263671875 c 3
 160.774414062 -12.5263671875 92.9000886856 59.913023722 118.184570312 167.532226562 c 0
 158 337 478 410 499 510 c 0
 512.265199743 573.167617824 494.025969647 604 417 604 c 3xe8
415.665039062 660.852539062 m 3
 449.938476562 660.852539062 587.640621853 651.993034668 554.065429688 499 c 0
 524 362 202 287 173 158 c 0xe8
 155.422112526 79.8087074436 195.028706331 43 279 43 c 3
 364.346006372 43 446.290080057 84.6403913886 466 181 c 0
 475 225 453.158496911 255.274285943 408 287 c 0
 268.487322932 385.013432747 219.074024714 435.893802983 236 511 c 0
 260.580183085 620.070469638 364.545713987 660.852539062 415.665039062 660.852539062 c 3
EndSplineSet
Substitution2: "case-1" eight.proportionallining
Substitution2: "tnum-1" eight.tabulartext
Substitution2: "lnum-1" eight.proportionallining
Substitution2: "numr-1" eight.numerator
Substitution2: "dnom-1" eight.denom
EndChar
StartChar: greater
Encoding: 62 62 333
Width: 533
Flags: W
HStem: 497.969 20G<216.723 259.487>
LayerCount: 2
Back
SplineSet
237.444637453 479.773074229 m 1
 255.017603251 501.571947435 l 1
 502.512975625 302.055776453 l 1
 534.690429688 276.116210938 l 1
 498.667543809 255.852911549 l 1
 144.823370235 56.8113786178 l 1
 131.095836253 81.2153703153 l 1
 117.368302271 105.619362013 l 1
 435.189589967 284.397595556 l 1
 219.871671655 457.974201023 l 1
 237.444637453 479.773074229 l 1
EndSplineSet
Fore
SplineSet
197 476 m 1
 234.677734375 517.96875 l 1
 534.690429688 276.116210938 l 1
 116.71484375 41 l 1
 96 94 l 1
 435.993164062 284 l 1
 197 476 l 1
EndSplineSet
Position2: "'case' vertical ajustments for all-caps-1" dx=0 dy=90 dh=0 dv=0
EndChar
StartChar: question
Encoding: 63 63 74
Width: 394
Flags: HW
HStem: 0.443359 118.316<147.64 201.316> 631.364 55.9619<92.1055 236.386>
VStem: 43.8867 43.0254<693.267 709.308> 117.205 115.64<30.0707 86.4186> 142.521 56.6943<213 324.935> 328 55.8203<412.579 550.885>
LayerCount: 2
Fore
SplineSet
183.875976562 628.322265625 m 1xec
 188.70703125 645.481445312 192.501953125 662.983398438 195.479492188 676.993164062 c 0
 197.787109375 687.850585938 189.836914062 702.051757812 190.666015625 705.950195312 c 0
 192.41015625 714.159179688 206.119140625 713.86328125 239.384765625 717.326171875 c 1
 248.365234375 687.326171875 268.206054688 687.326171875 287.443359375 687.326171875 c 3
 370.435546875 687.326171875 519.598632812 638.786132812 484.604492188 474.154296875 c 0
 461.663085938 366.221679688 373.006835938 329.118164062 274.868164062 324 c 0
 269.574204419 323.723907472 258.624023438 291.451171875 244.490234375 213 c 1
 244.490234375 213 219.368164062 215.982421875 187.45703125 215.982421875 c 1
 186.866210938 223.7109375 193 252.89453125 199.844726562 285.09375 c 0
 207.028320312 318.889648438 216.509765625 349.262695312 237.220703125 367 c 0
 286.750976562 409.418945312 402.889648438 364.328125 428.751953125 486 c 0
 452.3203125 596.8828125 357.819335938 635.364257812 269.233398438 635.364257812 c 3
 242.517578125 635.364257812 213.711914062 632.935546875 183.875976562 628.322265625 c 1xec
EndSplineSet
Refer: 48 46 S 1 0 0 1 65.5254 0 2
Position2: "cpsp-1" dx=0 dy=0 dh=50 dv=100
Substitution2: "smcp-1" question.smcp
Substitution2: "pcap-1" question.pcap
EndChar
StartChar: at
Encoding: 64 64 874
Width: 838
Flags: HW
HStem: -173.741 73.3281<322.189 543.78> 13.8896 82.458<489.908 602.701> 19.8887 86.4619<278.361 377.836> 477.609 20G<566.224 639.459> 620.438 64.5283<341.011 570.455>
VStem: 18.5762 100.028<101.206 358.006> 195.948 110.668<118.538 238.056> 731.096 84.877<256.505 464.304>
LayerCount: 2
Back
SplineSet
563.086188896 -80.6255041659 m 1
 576.015804772 -105.461466666 l 1
 497.234537412 -146.475038222 410.675633641 -173.741210938 325.958984375 -173.741210938 c 0
 298.75330182 -173.741210938 272.202480977 -170.984893882 246.750805386 -165.622922094 c 0
 84.3821089989 -131.416279543 -33.3480511701 9.21744816683 10.6982421875 216.438476562 c 0
 43.3289798222 369.953664663 144.381740357 506.359699625 273.770158256 591.876316672 c 1
 289.208860365 568.517239696 l 1
 304.647562474 545.15816272 l 1
 186.557563236 467.109003407 94.626480323 341.944345419 65.4745022347 204.795395559 c 0
 27.7443118232 27.2892250591 122.810881899 -82.2829389383 258.295070274 -110.825751107 c 0
 279.845701164 -115.365879494 302.536849729 -117.741210938 325.958984375 -117.741210938 c 0
 398.58553095 -117.741210938 477.144501572 -93.7996666249 550.156573021 -55.7895416658 c 1
 563.086188896 -80.6255041659 l 1
433.476886599 636.869315764 m 1
 425.414220857 663.683368445 l 1
 471.301938264 677.481257615 518.633694424 684.966796875 565.883789062 684.966796875 c 0
 590.047458903 684.966796875 613.630807792 682.514118285 636.210939178 677.745224839 c 0
 774.471232809 648.544836367 875.178619517 532.048316048 838.723632812 360.5390625 c 0
 822.970047231 286.423394168 782.509430922 221.34767919 741.171373803 171.304909576 c 1
 719.584101177 189.137174172 l 1
 697.996828552 206.969438767 l 1
 735.66992163 252.57549887 770.890216645 310.752328218 783.947339208 372.18198563 c 0
 813.820633482 512.726445111 737.525016806 599.112516109 624.639079531 622.95387457 c 0
 605.977001439 626.895280419 586.255538876 628.966796875 565.883789062 628.966796875 c 0
 524.559696661 628.966796875 482.611367563 622.405067923 441.53955234 610.055263084 c 1
 433.476886599 636.869315764 l 1
498.362879722 201.760555063 m 1
 480.546727284 204.326624489 l 1
 490.493043797 273.383638063 510.576666948 341.753680165 534.154358211 407.723778892 c 1
 472.585308794 394.396370352 426.05788286 387.9298036 401.823711109 376.490329521 c 0
 336.072986042 345.453423337 251.948242188 236.400882995 251.948242188 127.10546875 c 0
 251.948242188 101.507846916 270.104456999 76.2586051898 313.013841263 75.8859616719 c 0
 321.251804255 76.4541489658 373.648784752 99.4837833565 409.620975727 134.179008547 c 2
 410.847867467 135.362347233 l 1
 482.125149901 189.068425914 l 2
 482.923813448 189.670203729 498.362879722 201.760555063 498.362879722 201.760555063 c 1
533.873536967 196.64593718 m 1
 529.970308919 165.631638605 l 1
 520.059176107 86.8796854802 l 2
 519.108410323 79.3250836149 519.053274786 74.1779719841 519.517214988 69.8900388319 c 1
 530.456669344 70.1872862443 556.372207711 80.1094974053 585.477937266 101.311654268 c 1
 601.9642113 78.6797571216 l 1
 618.450485335 56.0478599748 l 1
 585.195407992 31.8230981465 551.873391442 13.8896484375 519.184570312 13.8896484375 c 0
 516.213605978 13.8896484375 511.124405836 13.3035446969 503.071780788 15.1138669612 c 0
 463.818940929 23.9383545679 460.933522083 65.5538672246 464.497464518 93.8722676448 c 2
 466.137670485 106.905028469 l 1
 447.246392737 92.6708094515 l 1
 402.023061357 49.8718218145 348.785052241 19.888671875 313.123046875 19.888671875 c 0
 243.735609639 19.888671875 195.948242188 68.8273516223 195.948242188 127.10546875 c 0
 195.948242188 261.478950409 291.033081709 386.118320199 377.918945312 427.131835938 c 0
 418.694850387 446.379653191 467.341128825 449.937930533 533.553710938 464.948242188 c 0
 544.243248217 467.371547259 552.248970081 474.884464756 559.973564648 484.235658316 c 2
 565.274942022 490.653368076 l 1
 573.221314036 493.132636607 l 1
 576.729811177 494.227287919 l 1
 628.710022952 510.445117015 l 1
 611.661546775 458.731387148 l 2
 608.029107262 447.712983287 605.384079652 439.208600713 601.287657074 427.539395156 c 0
 573.322536503 355.080684936 547.0390401 273.162322892 535.974757091 196.343297386 c 1
 533.873536967 196.64593718 l 1
EndSplineSet
Fore
SplineSet
600.203125 427.319335938 m 1xbf
 572.682617188 356.012695312 548.419695202 272.200811392 534.802734375 195.2890625 c 0
 527.389533927 153.417589223 521 106.499347338 521 89 c 3
 521 79.143275953 524.714300417 75 531 75 c 3
 549.741499681 75 587.768687325 101.017198142 653.54296875 151.224609375 c 0
 686 176 766 290 784 375 c 0
 818.802930108 539.347169954 702.003676421 629 566 629 c 3
 355.961908217 629 118.933512477 453.825081142 66 206 c 0
 22 4.31599200823e-15 156.137209293 -118 327 -118 c 3
 439.004237212 -118 604.357084377 -48.4032851849 708.459960938 47.7666015625 c 1
 722.8515625 34.9677734375 730.969726562 27.748046875 745.361328125 14.94921875 c 1
 643.865234375 -81.8154296875 480.70703125 -173.741210938 325.958984375 -173.741210938 c 3
 125.0390625 -173.741210938 -40.279333385 -23.391593802 10.6982421875 216.438476562 c 0
 65.6259765625 474.852539062 314.602539062 684.966796875 565.883789062 684.966796875 c 3
 738.184570312 684.966796875 881.169534589 560.233688335 838.723632812 360.5390625 c 0
 813.713867188 242.875976562 726.400301287 147.877054355 672.383789062 100.206054688 c 0
 625.365234375 58.7109375 569.583007812 13.8896484375 519.184570312 13.8896484375 c 3xdf
 466.957687972 13.8896484375 456.230922116 52.7619973437 467 109 c 1
 413.718703166 58.6330855699 352.346279229 19.888671875 313.123046875 19.888671875 c 3
 243.599609375 19.888671875 195.948242188 68.6171875 195.948242188 127.10546875 c 3
 195.948242188 261.28515625 291.228279496 386.210461167 377.918945312 427.131835938 c 0
 418.188476562 446.140625 467.839291316 450.050863363 533.553710938 464.948242188 c 0
 546.93359375 467.981445312 561.129882812 483.615234375 566.223632812 493.659179688 c 1
 625.852539062 497.609375 l 1
 617.065429688 473.868164062 608.836914062 450.647460938 600.203125 427.319335938 c 1xbf
524.8359375 399.030273438 m 1
 523.000463782 401.009765625 518.044474426 402.990234375 516.392578125 402.990234375 c 3
 511.889767147 402.990234375 424.197608096 389.143159903 396 374 c 0
 342 345 252 243.023380148 252 127 c 3
 252 100.565242918 269.500986063 77 313.120117188 77 c 3xbf
 349.554359014 77 441.55795646 161.537037037 478 187 c 1
 484.095980249 226.602296185 490.817767573 264.933977204 502.126953125 305.318359375 c 0
 518 362 527.180664062 385.167733193 527.180664062 390.614257812 c 3
 527.180664062 394.559412608 526.502385104 397.538570769 524.8359375 399.030273438 c 1
EndSplineSet
Position2: "'case' vertical ajustments for all-caps-1" dx=0 dy=160 dh=0 dv=0
Position2: "cpsp-1" dx=0 dy=0 dh=50 dv=100
EndChar
StartChar: A
Encoding: 65 65 26
Width: 715
Flags: HMW
HStem: -177 78.1279<-199.919 -98.3319> 0.542969 50.457<-136.281 -117.822>
VStem: -272.816 98.4385<-124.671 -35.1372>
AnchorPoint: "Top" 523.525 679 basechar 0
AnchorPoint: "Ogonek" 446.622 23 basechar 0
AnchorPoint: "Bottom" 276.622 -15 basechar 0
LayerCount: 2
Back
SplineSet
200 224 m 1
 200.177211641 251.999439209 l 1
 516.177211641 249.999439209 l 1
 516 222 l 1
 515.822788359 194.000560791 l 1
 199.822788359 196.000560791 l 1
 200 224 l 1
150.357068401 24.8093168278 m 1
 146.756897486 -2.95826803979 l 1
 122.676822511 0.163803468242 99.7258725534 1 74.671875 1 c 0
 48.7082977847 1 21.2428350529 0.41911107157 -1.32008589584 -0.844980789523 c 1
 -2.88633496416 27.1111788869 l 1
 -4.45258403248 55.0673385634 l 1
 19.6294746837 56.4165404017 47.8714754644 57 74.671875 57 c 0
 100.934832845 57 126.603263165 56.1234466986 153.957239316 52.5769016954 c 1
 150.357068401 24.8093168278 l 1
78.7422957819 79.2624299707 m 1
 57.0771484375 97 l 1
 219.109635561 294.910858268 338.120755698 463.691307324 439.946730393 599.223871481 c 0
 471.697949119 641.485427062 481.06168864 652.997415277 493.578834045 674.895296466 c 2
 501.641286458 689 l 1
 517.887695312 689 l 1
 526.395507812 689 l 1
 553.790842764 689 l 1
 554.388836372 661.611192419 l 2
 554.74531764 645.283932828 554.497201971 629.483587795 554.994115124 599.943461969 c 0
 558.580623735 386.73534911 556.778100978 276.015263472 567.455836798 80.1473061375 c 1
 539.497350638 78.6231501029 l 1
 511.538864477 77.0989940684 l 1
 501.002716235 270.369727596 502.504350762 381.076008874 499.234688408 584.851340007 c 1
 495.490673899 579.889053992 490.065644551 572.703428357 484.718720158 565.586556897 c 0
 383.691715857 431.11743953 263.782565999 261.075649796 100.407443126 61.5248599413 c 1
 78.7422957819 79.2624299707 l 1
585.801579486 26.8030609008 m 1
 584.779635103 -1.1782834143 l 1
 557.244818632 -0.172647276734 531.407283267 1 506.671875 1 c 0
 488.963835461 1 468.913790716 -0.134806678987 453.018389348 -2.7335559376 c 1
 448.500631416 24.8995738755 l 1
 443.982873484 52.5327036886 l 1
 464.38221511 55.8678049986 486.691896872 57 506.671875 57 c 0
 533.158691353 57 559.623259934 55.7778227094 586.823523869 54.7844052158 c 1
 585.801579486 26.8030609008 l 1
EndSplineSet
Fore
SplineSet
251.0234375 252 m 1
 308.412051614 250 451.27476719 250 505 250 c 1
 503.187582562 352.666666667 500.68692206 475.333333333 499 586 c 1
 420.36308131 479.905882353 330.730236431 355.474509804 251.0234375 252 c 1
422.333984375 -10 m 1
 422.333984375 -10 418.9375 45.125 418.9375 46 c 1
 505 70 512.392051225 41.3518834383 511.1015625 78 c 0
 509.481589099 124.005031161 507.842219703 146.943396226 505.631835938 194 c 1
 410.80378019 194.666666667 332.16546465 195.333333333 207.26953125 196 c 1
 163.14924552 141.3125 148.875997494 121.308919993 108 71 c 0
 95 55 106.104964218 60.3125 182.0625 48 c 1
 174.758789062 -8 l 1
 145.321289062 -1 109.997070312 1 74.671875 1 c 3
 37.83203125 1 0.9931640625 0 -30.1787109375 -3 c 1
 -30.64453125 11.875 -31.109375 32 -31.5751953125 53 c 1
 32.451171875 57.2222222222 23.5528725606 55.9814604558 57.0771484375 97 c 0
 218.123767236 294.048166704 339.316858101 463.705706155 439.780273438 599 c 0
 477.13400197 649.304345191 480.300116457 650 501.91015625 689 c 1
 553.91015625 689 l 1
 554.19274997 653 554.443687426 645.310944466 554.993164062 600 c 0
 557.576171875 387 556.985264518 275.829190415 567.463867188 80 c 0
 569.169016875 48.1333386403 570.334774926 57.3333333333 617 52 c 1
 615.258734602 36.9508196721 611.775445085 14.8196721311 610.034179688 -2 c 1
 573.283203125 -1 538.829101562 1 506.671875 1 c 3
 477.979492188 1 451.026367188 -1 422.333984375 -10 c 1
EndSplineSet
Position2: "cpsp-1" dx=0 dy=0 dh=50 dv=100
Substitution2: "c2pc-1" a.pcap
Substitution2: "c2sc-1" a.smcp
EndChar
StartChar: B
Encoding: 66 66 27
Width: 640
Flags: HMW
HStem: -4 38<-2.97646 72.9443 168.149 346.524> 349 30<239.024 374.228> 653 41<166.024 213.337 316.608 437.009>
AnchorPoint: "Top" 376.525 679 basechar 0
AnchorPoint: "Bottom" 249.415 -15 basechar 0
LayerCount: 2
Back
SplineSet
183 375 m 1
 312 377 l 1
 312 349 l 1
 312 321 l 1
 183 319 l 1
 183 337.666666667 183 356.333333333 183 375 c 1
168.800834667 657.774197813 m 1
 174.835832696 685.116085071 l 1
 192.431680328 681.232267367 210.313366523 678 256.578125 678 c 0
 299.126588815 678 333.13943007 688 375.703125 688 c 0
 402.081180843 688 425.732446803 685.602688898 446.761889202 681.169647726 c 0
 551.656982953 659.057588811 585.1708518 585.822075818 574.176948871 511.712865291 c 0
 563.690778566 441.02624856 518.23112511 393.895606345 466.256523783 362.929550926 c 1
 554.217481477 337.439488885 606.012063037 270.737330669 588.212890625 187 c 0
 563.122704774 68.9616361654 433.903035797 -3 283.827148438 -3 c 0
 224.771893407 -3 184.944579527 2 118.889648438 2 c 0
 74.9968747548 2 52.1189679913 0.888339095237 36.49192798 -0.264741652221 c 1
 34.4314785731 27.6593437982 l 1
 32.3710291662 55.5834292486 l 1
 49.5389082694 56.8502047131 74.1262686676 58 118.889648438 58 c 0
 188.154656177 58 228.635192671 53 283.827148438 53 c 0
 419.997494201 53 516.305156815 118.046980795 533.436658684 198.643213231 c 0
 544.251350152 249.521612215 519.00955964 290.329013068 447.943818388 309.903278494 c 0
 405.339427108 320.474183566 372.162310186 320.134097564 316.735986829 320.536872082 c 1
 315.696894564 376.508548658 l 1
 370.166129647 378.928118521 399.098914289 390.906836622 431.755875397 407.674342075 c 0
 478.265471282 433.845355203 511.099396432 468.134648326 518.783155447 519.93038621 c 0
 526.271135281 570.406388916 513.027325132 609.970062928 435.210855786 626.373903119 c 0
 418.501300722 629.89630491 398.679830621 632 375.703125 632 c 0
 343.849468276 632 307.475436323 622 256.578125 622 c 0
 207.996251237 622 183.117290561 625.940265689 162.765836638 630.432310556 c 1
 168.800834667 657.774197813 l 1
111 39 m 1
 83.9669814778 46.2949235486 l 1
 88.0512474325 61.4301112535 109.742073614 170.677133721 134.467773438 287 c 0
 168.297501019 446.15306364 204.826713588 619.823001668 209.34397902 648.375443243 c 1
 237 644 l 1
 264.65602098 639.624556757 l 1
 259.405708287 606.438717082 223.26866022 435.426892101 189.243990111 275.356714941 c 0
 164.367312091 158.323566784 143.765158818 52.9468418715 138.033018522 31.7050764514 c 1
 111 39 l 1
EndSplineSet
Fore
SplineSet
24.7060546875 52 m 1
 73.6315085307 62 81.9616427289 50.7071617239 86.5556640625 62 c 0
 90.5521631313 71.375 109.026097006 167.308798272 134.467773438 287 c 0
 169.444614511 451.549696711 199.810276991 594.450208002 202.1484375 609 c 0
 203.43440181 617.002236439 205.345161164 624.105057776 194.548828125 625 c 0
 182.128770587 626.571428571 151.364539667 632.857142857 140.037109375 636 c 5
 156.127929688 689 l 5
 184.6459207 684.416666667 192.754980187 678 256.578125 678 c 3
 298.578125 678 333.703125 688 375.703125 688 c 3
 541.703125 688 590.872989429 590 573.868164062 510 c 0
 559.4140625 442 524.723632812 387 453.834960938 364 c 1
 543.858723958 350 606.9180849 274.999767741 588.212890625 187 c 0
 563.130859375 69 433.827148438 -3 283.827148438 -3 c 3
 224.827148438 -3 184.889648438 2 118.889648438 2 c 3
 52.8592159762 2 43.4937276845 -1.6 15.8271484375 -4 c 1
 24.7060546875 52 l 1
290.598632812 377 m 3
 437.906775961 377 506.759293806 449.443425373 519 519 c 0
 527.212267098 565.665376995 518 631 378 631 c 3
 335.331150119 631 299.159590666 622.860744776 277.973632812 622 c 0
 261.780511877 621.342104598 260.485266002 613.911498208 256.258789062 593 c 0
 238.654932341 505.900738952 217.1875 411.163265306 211.598632812 377 c 1
 271.447117661 377 264.265299479 377 290.598632812 377 c 3
337.482421875 320 m 3
 307.657318887 320 235.143594998 320 197.844726562 319 c 1
 176.964675609 215.265217391 159.423854434 137.017089488 147.95703125 78 c 0
 144.287099631 59.111709903 146.493164062 57 159.493164062 57 c 0
 172.360826405 57 240.208500573 53 287 53 c 3
 397.147399538 53 512.394919474 104 533 197 c 0
 542.305520238 239 540 320 337.482421875 320 c 3
EndSplineSet
Position2: "cpsp-1" dx=0 dy=0 dh=50 dv=100
Substitution2: "c2pc-1" b.pcap
Substitution2: "c2sc-1" b.smcp
EndChar
StartChar: C
Encoding: 67 67 28
Width: 726
Flags: HW
HStem: -16 75<283.952 490.565> 616 72<372.172 586.699>
VStem: 640.502 71.5645<501.031 572.494>
AnchorPoint: "Top" 502.525 679 basechar 0
AnchorPoint: "Bottom" 341.925 -15 basechar 0
LayerCount: 2
Back
SplineSet
633.068913238 166.813690479 m 1
 658.526296186 155.155146254 l 1
 642.628004888 120.439929504 623.586270227 92.7821414122 605.405472615 59.8309621577 c 2
 601.050383389 51.9377261823 l 1
 592.908107219 48.0681893743 l 2
 521.470544421 14.1181890356 454.304985545 -16 366.711914062 -16 c 0
 331.101824958 -16 297.91280249 -12.6294574631 267.413441001 -6.1764479725 c 0
 103.720282605 28.457506744 17.5199489631 152.460257192 53.1308809582 320.00010154 c 0
 92.030223144 503.004357687 254.362325011 688 502.352539062 688 c 0
 570.066814949 688 598.741934359 678.914490872 655.038085938 663 c 0
 667.280298699 659.66998516 681.037318843 655.509483437 688.678890947 654.099861816 c 1
 694.633602084 677.871122413 l 1
 726.275570685 660.957599993 l 1
 731.034097005 658.4140338 l 1
 756.878291107 644.599584961 l 1
 741.901997188 619.410857603 l 2
 722.671206846 587.066464698 719.954021723 566.757708936 712.021937408 521.74209138 c 1
 684.446756546 526.601041928 l 1
 656.871575684 531.459992477 l 1
 661.38532492 557.07611067 664.622102264 577.966595714 671.90153027 600.382805095 c 1
 660.832942028 602.932974268 649.314788596 606.522047779 640.071565117 609.036304961 c 0
 580.885614996 625.767719748 565.578853005 632 502.352539062 632 c 0
 285.182604629 632 142.297697073 470.149425704 107.907110884 308.356878828 c 0
 78.3367706635 169.236391935 141.646085265 77.6729327749 279.005222306 48.6106910857 c 0
 305.312774195 43.0445784286 334.637622755 40 366.711914062 40 c 0
 438.072249659 40 492.655063463 62.641115946 560.816149811 94.8295463595 c 1
 578.848924666 126.587064903 595.301875788 151.59309932 607.61153029 178.472234705 c 1
 633.068913238 166.813690479 l 1
EndSplineSet
Fore
SplineSet
53.130859375 320 m 0
 92.029296875 503 254.352539062 688 502.352539062 688 c 3
 570.352539062 688 598.283544525 678.437851707 655.038085938 663 c 0
 688.125 654 697.762695312 653 713.100585938 668 c 1
 758 644 l 1
 723.583984375 595 722.868010086 576.792972228 712.067382812 522 c 0
 703 476 696 478 645 490 c 1
 661.996767154 551.483146067 671.580205889 600.227720586 658 604 c 0
 607.886968442 617.920286544 571.10949984 632 503 632 c 3
 315.655171234 632 151 504 108 313 c 0
 66.6550959049 129.351705066 197 39 370 39 c 3
 501.061054475 39 577 106 616.625 200 c 1
 670.6484375 186 l 1
 653.80859375 135 626.15625 99 601.166015625 52 c 1
 527.7265625 17 457.711914062 -16 366.711914062 -16 c 3
 139.711914062 -16 10.8315322576 121.000313638 53.130859375 320 c 0
EndSplineSet
Position2: "cpsp-1" dx=0 dy=0 dh=50 dv=100
Substitution2: "c2pc-1" c.pcap
Substitution2: "c2sc-1" c.smcp
EndChar
StartChar: D
Encoding: 68 68 29
Width: 789
Flags: HW
HStem: -9 69<4.87867 76.5233> -5 73<162.774 444.999> 613 71<134.02 188.05 306.416 497.293>
VStem: 649.261 110.319<265.571 470.041>
AnchorPoint: "Top" 430.525 679 basechar 0
AnchorPoint: "Bottom" 370.183 -15 basechar 0
LayerCount: 2
Back
SplineSet
114.105503158 86.614958831 m 1
 86.864724875 93.0910686631 l 1
 97.637466082 138.404978144 107.548539791 185.468691178 118.926757812 239 c 0
 150.174039333 386.005587973 178.629920031 533.993987138 189.72265625 605 c 1
 217.38710926 600.678190233 l 1
 245.05156227 596.356380466 l 1
 233.613461096 523.139642683 205.133647489 375.225084295 173.703002296 227.356845779 c 0
 162.340436357 173.899175589 152.351248562 126.429581731 141.34628144 80.1388489989 c 1
 114.105503158 86.614958831 l 1
158.674397107 651.693095362 m 1
 161.439200147 679.556258573 l 1
 192.499930764 676.474167649 213.049569645 674 250.388671875 674 c 0
 325.069100421 674 366.457362165 684 439.365234375 684 c 0
 571.302853448 684 759.580078125 604.95119385 759.580078125 396.599609375 c 0
 759.580078125 90.8710203891 475.507088733 -5 293.063476562 -5 c 0
 223.974646419 -5 188.638836099 2 115.55078125 2 c 0
 88.016319372 2 65.058730579 0.733867030213 35.3778518231 -3.51543582518 c 1
 31.4096552273 24.2019488959 l 1
 27.4414586315 51.919333617 l 1
 59.6693118479 56.5332774905 86.2493940973 58 115.55078125 58 c 0
 193.003093358 58 228.991247151 51 293.063476562 51 c 0
 464.605651629 51 703.580078125 137.571755059 703.580078125 396.599609375 c 0
 703.580078125 561.208259939 556.212573935 628 439.365234375 628 c 0
 373.07015416 628 330.906808518 618 250.388671875 618 c 0
 210.421696328 618 186.150370728 620.829203531 155.909594066 623.82993215 c 1
 158.674397107 651.693095362 l 1
EndSplineSet
Fore
SplineSet
294 51 m 3x70
 419.574678976 51 704 110.155094171 704 397 c 3
 704 583.017187099 525.630379274 629 439 629 c 3
 386.363789956 629 338.446570499 618.39177066 264 619 c 0
 248.515303392 619.12651015 246.314785491 602.01476064 245.323242188 597 c 0
 232.285026277 531.058823529 220.967333524 457.019918852 206.993164062 388 c 0
 182.822621737 268.619104089 162.208988813 171.838756668 141.188476562 73 c 0
 139.306664998 64.1516944466 135.338066264 59.6830739423 151 58 c 0
 190.083322506 53.8 252.858161188 51 294 51 c 3x70
139.08984375 682 m 1
 184.603528644 678 205.019217502 674 250.388671875 674 c 1
 324.922851562 674 366.60546875 684 439.365234375 684 c 3
 571.297851562 684 759.580078125 605.03125 759.580078125 396.599609375 c 3
 759.580078125 90.81640625 475.505859375 -5 293.063476562 -5 c 3x70
 224.063476562 -5 188.55078125 2 115.55078125 2 c 3
 80.8316990662 2 55.8361225057 0.181818181818 9 -8 c 1
 13 50 l 1xb0
 56.9964462555 56.5892857143 78.8466164673 55.4289314567 81 65 c 0
 92.0664862881 112.569124895 105.54100657 176.1544779 118.926757812 239 c 0
 151.177967648 390.418032787 179.584336726 543.090357081 192 616 c 0
 193.115023087 622.97072116 155.225526696 623.4 130.0625 629 c 1
 139.08984375 682 l 1
EndSplineSet
Position2: "cpsp-1" dx=0 dy=0 dh=50 dv=100
Substitution2: "c2pc-1" d.pcap
Substitution2: "c2sc-1" d.smcp
EndChar
StartChar: E
Encoding: 69 69 30
Width: 648
Flags: HW
HStem: -14 65<25.7609 84.9054> 1 76<197.774 476.37> 306 69<256.233 424.226> 612 67<152.125 197.482 303.444 509.41> 667 20G<578.36 597.063>
VStem: 430.32 65.041<262.709 305.992> 524.092 60.0625<531 601.873>
AnchorPoint: "Top" 408.525 679 basechar 0
AnchorPoint: "Ogonek" 451.421 23.6582 basechar 0
AnchorPoint: "Bottom" 265.554 -15 basechar 0
LayerCount: 2
Back
SplineSet
187 340 m 1
 186.7874418 367.999193185 l 1
 450.23710623 369.999193185 l 1
 450.44966443 342 l 1
 450.662222629 314.000806815 l 1
 187.2125582 312.000806815 l 1
 187 340 l 1
548.080837594 126.571107309 m 1
 573.369709593 114.551417089 l 1
 555.195550983 76.3138284024 542.967616832 53.245134473 526.733854504 16.2419185208 c 2
 519.565894392 -0.0967200886645 l 1
 501.728668378 -0.501852051948 l 2
 413.888976053 -2.49693060162 327.302643996 1 241.955078125 1 c 0
 174.82749947 1 113.31961234 0.214623563883 57.3199430762 -8.19578649416 c 1
 53.1613524078 19.4936722158 l 1
 49.0027617394 47.1831309258 l 1
 110.381302844 56.4013764306 174.476913633 57 241.955078125 57 c 0
 322.886833021 57 402.757820945 53.9968286125 482.789131924 55.1559145177 c 1
 496.258997976 84.6802046387 507.811522004 107.072637454 522.791965594 138.59079753 c 1
 548.080837594 126.571107309 l 1
115.071726703 69.1784732818 m 1
 87.68359375 75 l 1
 95.7608635321 113.000570882 120.567267053 224.999455407 146.287109375 346 c 0
 173.494276614 474.000639783 197.363212461 590.999676395 199.701007051 601.999224541 c 1
 227.089257114 596.178248808 l 1
 254.477507177 590.357273076 l 1
 252.306591674 580.142907065 228.28444807 462.423007316 201.063393174 334.357030742 c 0
 175.303021796 213.165814764 150.413230207 100.774617323 142.459859657 63.3569465637 c 1
 115.071726703 69.1784732818 l 1
176.581583794 654.956784683 m 1
 177.610318404 682.937880178 l 1
 243.960768098 680.498483049 337.944266114 679 422.267578125 679 c 0
 486.686994707 679 547.328361329 680.586619991 574.893005187 684.405603602 c 2
 590.631096465 686.586060312 l 1
 600.574513863 674.193709487 l 2
 602.838771188 671.37179525 605.794830645 666.369707572 606.238372943 665.441828986 c 2
 610.355425609 656.829065292 l 1
 608.456494657 647.89355139 l 1
 608.266601562 647 l 2
 606.168194888 630.700871545 596.331771029 601.538787689 587.590436731 552.202348557 c 1
 560.019841721 557.08725294 l 1
 532.449246712 561.972157323 l 1
 537.046689134 587.92030557 541.602486187 607.738243576 545.937395311 625.644009999 c 1
 514.117425399 623.77949595 468.390702751 623 422.267578125 623 c 0
 337.263447978 623 242.941443821 624.498124303 175.552849184 626.975689188 c 1
 176.581583794 654.956784683 l 1
478.999339172 394.73080366 m 1
 505.951798057 387.143646088 l 1
 499.937985954 365.780306533 496.590059534 347.832059643 494.3515625 327 c 0
 493.044599648 314.833364 492.885876409 300.02630506 493.457879749 288.327954568 c 1
 465.491291406 286.960498366 l 1
 437.524703063 285.593042164 l 1
 436.82577826 299.887132322 436.934699653 316.809480029 438.671897638 332.981213999 c 0
 441.191080401 356.425411058 445.257337025 378.19893064 452.046880286 402.317961232 c 1
 478.999339172 394.73080366 l 1
EndSplineSet
Fore
SplineSet
152.130859375 684 m 1xa6
 215.493164062 681 326.267578125 679 422.267578125 679 c 3xb6
 498.904296875 679 568.961914062 681 587.768554688 687 c 1x2e
 606.368164062 671 609.96363687 660.181523302 608.266601562 647 c 0
 605.94921875 629 593.352539062 593 584.16015625 531 c 1
 528.09765625 527 l 1
 527.486914468 558.540229885 551.469157081 625.458116449 539.000976562 625 c 0
 507.407771659 623.839175707 464.617605636 623 421 623 c 3
 393.472638668 623 299.043747412 623.736210887 276.57421875 624 c 0
 268.30221163 624.097112203 261.825094961 619.978162598 259.38671875 609 c 0
 243.394690426 537 222.18722627 435 208.23828125 368 c 1
 246.44280311 368.571428571 432.148419332 369.979986114 436.509765625 370 c 0
 448.616210938 370.055555556 446.1953125 393.222222222 460.633789062 427 c 1
 515.237304688 416 l 1
 503.798828125 384 497.574229892 357.000103723 494.3515625 327 c 0
 492.203125 307 492.946289062 288 495.3671875 264 c 1
 442 255 l 1
 432.961172937 301.981481481 440.910969052 314 433.768554688 314 c 0
 404.737212917 314 243.519064396 314 196 312 c 1
 174.387431743 212.985714286 159.007531088 138.89760414 145 73 c 0
 141.811523438 58 148.385742188 56 154.385742188 56 c 0
 175.746746829 56 223.829867629 57 243 57 c 3
 322.590556621 57 398.001008205 53.9003047781 468 55 c 0
 490.213840296 55.3489829411 478.852877165 55 534.6015625 162 c 1
 585.712890625 141 l 1
 557.747070312 80 543.858398438 57 519.7421875 0 c 1
 428.104492188 -3 332.955078125 1 241.955078125 1 c 3x76
 161.955078125 1 89.7421875 0 25.7666015625 -14 c 1
 24.5830078125 43 l 1
 61.9656431665 49.3333333333 82.3990562037 51.6666666667 84 56 c 1
 92.5848472195 97.6642066421 118.771330936 216.54744754 146.287109375 346 c 0
 173.494140625 474 201.851423432 613.061146703 203.701171875 623 c 0
 203.997710251 624.593325528 200.9765625 626 144.614257812 627 c 1
 152.130859375 684 l 1xa6
EndSplineSet
Position2: "cpsp-1" dx=0 dy=0 dh=50 dv=100
Substitution2: "c2pc-1" e.pcap
Substitution2: "c2sc-1" e.smcp
EndChar
StartChar: F
Encoding: 70 70 31
Width: 605
Flags: W
HStem: -10 74<13.8517 77.0468 191.991 273.113> 299 68<247.257 395.703> 606 70<143.999 188.643 292.42 515.408>
VStem: 399.286 73.8262<244 297.486>
AnchorPoint: "Bottom" 136.011 -15 basechar 0
AnchorPoint: "Top" 383.525 679 basechar 0
LayerCount: 2
Fore
SplineSet
270.903320312 -11 m 1
 222.603515625 -3 181.454101562 1 135.454101562 1 c 3
 93.4541015625 1 52.81640625 -2 11.1162109375 -10 c 1
 13.8447265625 64 l 1
 54.908203125 69 73.6953125 68 78.30859375 85 c 1
 83.41015625 109 94.1875 155 107.366210938 217 c 0
 137.76171875 360 177.084960938 545 188.625976562 604 c 0
 189.263671875 607 163.05078125 606 123.326171875 612 c 1
 143.9921875 681 l 1
 196.354492188 678 281.9296875 676 366.9296875 676 c 3
 467.9296875 676 567.567382812 679 590.180664062 696 c 1
 617.842773438 685 618.016601562 667 616.490234375 641 c 0
 613.98828125 601 612.374023438 584 603.74609375 534 c 1
 540.62109375 524 l 1
 524.698242188 562 522.5 594 499.137695312 597 c 0
 452.413085938 603 370.900390625 610 302.05078125 606 c 0
 299.05078125 606 295.5625 599 293.224609375 588 c 0
 275.857421875 511 262.340820312 438 247.25 367 c 1
 317.461914062 368 393.82421875 365 403.82421875 365 c 0
 413.82421875 365 419.225585938 381 440.302734375 419 c 1
 508.96484375 408 l 1
 493.80078125 379 484.2734375 353 478.747070312 327 c 0
 473.220703125 301 472.694335938 275 473.10546875 244 c 1
 399.279296875 226 l 1
 389.119140625 277 403.583007812 298 389.583007812 298 c 0
 358.795898438 299 302.583007812 298 233.795898438 299 c 1
 213.540039062 199 199.211914062 141 191.033203125 79 c 0
 188.844726562 64 192.333007812 71 299.908203125 69 c 1
 270.903320312 -11 l 1
EndSplineSet
Position2: "cpsp-1" dx=0 dy=0 dh=50 dv=100
Substitution2: "c2pc-1" f.pcap
Substitution2: "c2sc-1" f.smcp
EndChar
StartChar: G
Encoding: 71 71 32
Width: 775
Flags: HW
HStem: -12 70<307.754 514.134> 284 70<474.622 542.184> 299 65<687.468 732.93> 617 71<377.052 606.935>
AnchorPoint: "Top" 511.525 679 basechar 0
AnchorPoint: "Bottom" 350.514 -15 basechar 0
LayerCount: 2
Back
SplineSet
496.782201685 323.620938765 m 1
 499.005133599 351.53255953 l 1
 575.301366262 345.456189693 649.573787135 352.08525718 705.099822028 359.09601077 c 1
 708.607273476 331.316561814 l 1
 712.114724925 303.537112857 l 1
 654.771601121 296.296932428 576.821107401 289.157836605 494.559269771 295.709318001 c 1
 496.782201685 323.620938765 l 1
660.14283368 284.155605382 m 1
 687.380726966 277.667372238 l 1
 668.885639972 200.024168815 656.699642806 152.119642616 645.250762214 98.2425574796 c 1
 617.862314389 104.062602643 l 1
 590.473866563 109.882647806 l 1
 602.223285105 165.174029179 614.513053359 213.433873154 632.904940394 290.643838527 c 1
 660.14283368 284.155605382 l 1
673.398356778 595.509318877 m 1
 638.661238065 607.236606993 554.381969159 632 515.607421875 632 c 0
 330.150764546 632 144.914938117 500.08018274 107.138566447 322.356927053 c 0
 76.3378369548 177.451376813 154.580707579 81.8818784757 293.385641263 52.4187571624 c 0
 319.234538267 46.9319983848 347.220305051 44 376.818359375 44 c 0
 426.845221313 44 542.02930612 69.1429944569 627.875797866 84.3147273836 c 1
 637.621700942 29.1693071455 l 1
 552.822820505 14.1827195714 439.918121432 -12 376.818359375 -12 c 0
 343.527736568 -12 311.667690539 -8.70949654503 281.757984514 -2.36077914952 c 0
 119.563333082 32.0671087122 14.711703461 156.868445731 52.3623087984 334.00001934 c 0
 96.5839215647 542.045648 306.552194901 688 515.607421875 688 c 0
 581.82546718 688 706.812325297 657.178048634 723.353218254 630.671276866 c 0
 744.973693637 596.024477085 677.781853302 593.560904489 677.781853302 593.560904489 c 1
 694.900918859 642.661078758 l 2
 690.002551738 630.86447724 673.398356778 595.509318877 673.398356778 595.509318877 c 1
710.122193237 657.7755247 m 1
 738.085368684 659.211079972 l 1
 742.885491339 565.709509787 l 1
 714.922315893 564.273954515 l 1
 686.959140446 562.838399244 l 1
 682.15901779 656.339969429 l 1
 710.122193237 657.7755247 l 1
EndSplineSet
Fore
SplineSet
52.3623046875 334 m 0xb0
 96.57421875 542 306.607421875 688 515.607421875 688 c 1
 580.626688256 688 628.512573607 672.747782041 669 660 c 0
 681.813894082 655.965445488 681.890764559 667.047619048 681.544921875 683 c 1
 736.607421875 688 l 1
 744 544 l 1
 690 534 l 1
 682 623 522.053795395 632 512.732421875 632 c 3
 341.513858254 632 147.07221159 507.766536965 107 325 c 1
 70.7773282883 153.281456954 185.847047465 44 378 44 c 1
 419.615482495 44 530.552793172 65.1315473991 579.07421875 76 c 0
 582.141411067 76.6870291611 585.546102313 83.0033103442 586.412109375 87 c 0
 596.75125903 134.715976331 610.73335442 197.377679767 630.333984375 279 c 0
 633.819639007 293.60561619 635.62535322 294 546.522460938 294 c 0
 517.734375 294 494.309570312 295 462.734375 298 c 1
 474.614257812 354 l 1xd0
 573.063476562 342 679.826171875 355 740.739257812 364 c 1
 734.922851562 306 l 1
 691.247585046 301.333333333 691.832591818 296.356500242 687.459960938 278 c 0
 668.879882812 200 656.719382868 152.212537027 645.19921875 98 c 0
 643.07421875 88 648.861328125 87 668.735351562 77 c 1
 654.170898438 32 l 1
 569.194335938 18 443.818359375 -12 376.818359375 -12 c 1
 162.818359375 -12 7.72528946162 124.000063018 52.3623046875 334 c 0xb0
EndSplineSet
Position2: "cpsp-1" dx=0 dy=0 dh=50 dv=100
Substitution2: "c2pc-1" g.pcap
Substitution2: "c2sc-1" g.smcp
EndChar
StartChar: H
Encoding: 72 72 33
Width: 795
Flags: HW
HStem: -7 76<-5.11286 73.3043 188.362 225.573 541.478 601.036 712.992 751.423> 0 69<-5.07228 73.3043> 311 68<248.135 651.894> 615 72<136.629 180.21 305.874 366.087 672.524 708.998> 623 70<828.856 890.879>
AnchorPoint: "Top" 494.525 679 basechar 0
AnchorPoint: "Bottom" 347.664 -15 basechar 0
LayerCount: 2
Back
SplineSet
729 639 m 1
 756.343935963 632.97429124 l 1
 624.343935963 33.9742912402 l 1
 597 40 l 1
 569.656064037 46.0257087598 l 1
 701.656064037 645.02570876 l 1
 729 639 l 1
233 633 m 1
 260.355026424 627.024840645 l 1
 132.355026424 41.0248406445 l 1
 105 47 l 1
 77.6449735757 52.9751593555 l 1
 205.644973576 638.975159355 l 1
 233 633 l 1
203.707348196 21.7917042329 m 1
 200.424527506 -6.01518499114 l 1
 164.883619366 -1.81930289728 137.426726465 0 107.577148438 0 c 0
 80.1203939989 0 50.2424350107 -1.24576626083 23.1854371234 -3.62612559152 c 1
 20.7315942246 24.2661431406 l 1
 18.2777513257 52.1584118728 l 1
 47.1945773432 54.702390954 78.4440182572 56 107.577148438 56 c 0
 139.78917304 56 170.014597619 53.9638487503 206.990168886 49.5985934569 c 1
 203.707348196 21.7917042329 l 1
158.689333615 655.062694527 m 1
 163.114389019 682.710820768 l 1
 197.316609507 677.236789029 231.325154754 674 266.83984375 674 c 0
 290.203388743 674 314.058033881 675.923608098 339.699674059 679.026616482 c 1
 343.0635365 651.229414654 l 1
 346.427398942 623.432212826 l 1
 319.439967612 620.166344297 293.279393678 618 266.83984375 618 c 0
 227.903229684 618 190.786988991 621.569144358 154.264278212 627.414568285 c 1
 158.689333615 655.062694527 l 1
213.189453125 345 m 1
 213.189453125 373 l 1
 248.135742188 373 l 1
 603.135742188 373 l 1
 625.809570312 373 l 1
 625.809570312 345 l 1
 625.809570312 317 l 1
 603.135742188 317 l 1
 248.135742188 317 l 1
 213.189453125 317 l 1
 213.189453125 345 l 1
631.945223739 654.757204355 m 1
 635.744307235 682.498274352 l 1
 660.667031681 679.085157586 680.089647562 677 701.477539062 677 c 0
 729.462477857 677 758.409635964 679.527727236 794.888573824 686.21620178 c 1
 799.938243007 658.675307802 l 1
 804.987912189 631.134413823 l 1
 765.798352867 623.948942279 732.952743416 621 701.477539062 621 c 0
 676.301259681 621 653.789694005 623.504301473 628.146140244 627.016134357 c 1
 631.945223739 654.757204355 l 1
666.993344985 23.4181560013 m 1
 664.268675763 -4.44896041993 l 1
 631.129341777 -1.20880733135 601.354850306 0 569.577148438 0 c 0
 549.621558653 0 527.28476345 -1.05492909579 506.191967942 -3.34229497211 c 1
 503.173262071 24.4945046799 l 1
 500.1545562 52.3313043319 l 1
 523.590043951 54.8727187668 547.678935186 56 569.577148438 56 c 0
 602.781766 56 634.6688915 54.7121524931 669.718014207 51.2852724224 c 1
 666.993344985 23.4181560013 l 1
EndSplineSet
Fore
SplineSet
138.603515625 687 m 1xb0
 180.903320312 679 222.83984375 674 266.83984375 674 c 3
 295.854779541 674 325.595588756 678 359.965820312 684 c 1
 353.086914062 626 l 1
 297.908127493 615.857142857 263.600890032 619.571428571 258.598632812 617 c 1
 249.222956113 576.333333333 224.260523547 471.456140351 205.135742188 373 c 1
 642.135742188 373 l 1
 658.101766694 443.631578947 697.501718119 610.694060247 691.598632812 617 c 0
 684.568967272 624.509403148 679.376098955 616.066666667 605.724609375 631 c 1
 617.390625 686 l 1
 649.067807815 681 675.342404806 677 701.477539062 677 c 3
 736.338310878 677 772.022751647 681 823.87890625 693 c 1
 824 635 l 1
 773.505354395 624.5 754.611803652 625.498319619 753.024414062 618 c 0
 729.303045432 511.925918196 695.748762159 361.801915699 667.890625 232 c 0
 650.894342716 152.807698385 635.077596622 84.756540359 630.58203125 61 c 0
 628.732551789 51.2265388626 648.061099708 56 699.668945312 47 c 1
 699.668945312 47 687.202445297 -6.30769230769 687.088867188 -7 c 1xa8
 647.15234375 -2 608.577148438 0 569.577148438 0 c 3
 542.059046217 0 513.234013295 -2 480.876953125 -8 c 1
 482.340820312 8.45945945946 483.8671875 28.8378378378 486.60546875 50 c 1
 559.111887078 59 571.960554354 50.8779194699 575.219726562 67 c 0
 596.269004343 161.262008734 609.06521366 224.834061135 629.89453125 318 c 1
 192.682617188 317 l 1
 173.804833486 228.999994421 151.28100093 125.865655501 136.793945312 64 c 0
 133.341116141 47.7613531185 150.774166248 60.6232934206 228.03125 45 c 1
 228.03125 45 215.776735806 -8.2987012987 215.6640625 -9 c 1
 174.952685735 -3 141.096248654 0 107.577148438 0 c 3x60
 71.5344268655 0 36.0372738328 -2 -2.9111328125 -7 c 1
 -2.9111328125 -7 -0.0793839254231 48.5 0.2431640625 50 c 1
 61.4622832393 57 77.376508653 50.4838300774 79.5185546875 61 c 0
 105.866986352 181.253641917 139.47055032 335.861965929 166.991210938 463 c 0
 184.146280759 542.251798561 198.933239698 601.64748988 198 616 c 0
 197.259740984 627.384615385 192.190926701 618.384615385 127.299804688 633 c 1
 138.603515625 687 l 1xb0
EndSplineSet
Position2: "cpsp-1" dx=0 dy=0 dh=50 dv=100
Substitution2: "c2pc-1" h.pcap
Substitution2: "c2sc-1" h.smcp
EndChar
StartChar: I
Encoding: 73 73 34
Width: 468
Flags: HW
HStem: -8 72<21.1543 135.108 251.546 328.766> 0 65<21.1543 136.117> 616 76<164.387 246.087 370.84 467.21>
AnchorPoint: "Top" 320.525 679 basechar 0
AnchorPoint: "Ogonek" 173.623 23 basechar 0
AnchorPoint: "Bottom" 156.282 -15 basechar 0
LayerCount: 2
Back
SplineSet
311 627 m 1
 338.365712464 621.073974238 l 1
 215.365712464 53.0739742375 l 1
 188 59 l 1
 160.634287536 64.9260257625 l 1
 283.634287536 632.926025762 l 1
 311 627 l 1
307.203394382 22.7004216806 m 1
 304.308372065 -5.14951271405 l 1
 261.322963848 -0.681146134387 217.494756708 0 174.337890625 0 c 0
 131.090651684 0 88.07163625 -1.25753050538 47.3340227519 -5.89268950029 c 1
 44.1685839555 21.9278064914 l 1
 41.0031451592 49.7483024832 l 1
 84.9798698402 54.7520101987 130.019637767 56 174.337890625 56 c 0
 218.064259471 56 263.830236866 55.3599693147 310.098416699 50.5503560752 c 1
 307.203394382 22.7004216806 l 1
186.00990045 659.124883499 m 1
 191.319535995 686.616841784 l 1
 234.944613446 678.191350246 273.862770706 675 316.814453125 675 c 0
 356.599403422 675 399.428344338 678.784396042 442.735987261 684.118560111 c 1
 446.158856678 656.328562541 l 1
 449.581726096 628.53856497 l 1
 405.033006096 623.051538536 360.104643252 619 316.814453125 619 c 0
 271.049286608 619 227.901234658 622.516806813 180.700264904 631.632925213 c 1
 186.00990045 659.124883499 l 1
EndSplineSet
Fore
SplineSet
166.427734375 692 m 1x60
 216.876953125 680 265.814453125 675 316.814453125 675 c 3
 364.059289452 675 414.338347229 680.571428571 467.790039062 688 c 1
 464.209960938 630 l 1
 368.239003234 618.5 338.625459661 621.281473188 336.78515625 613 c 0
 319.914210298 537.079754601 296.084896264 428.822636865 264.4921875 283 c 0
 249.061664441 211.777251185 234.822086646 143.347461139 217.642578125 62 c 0
 215.671976402 52.6689154202 266.551717298 58 336.942382812 47 c 1
 327.637695312 -8 l 1xa0
 278.125976562 -1 225.337890625 0 174.337890625 0 c 3
 120.407647714 0 67.0313409275 -1.63636363636 18 -9 c 1
 20.154296875 46 l 1
 152 65 154.937560153 45.6117074035 159.280273438 65 c 0
 177.895921816 148.110630159 201.568473391 254.094989668 225.284179688 362 c 0
 248.56997258 467.948930689 266.815532896 551.498683324 279.360351562 613 c 0
 281.099506122 621.5262528 239 619 154.2734375 639 c 1
 166.427734375 692 l 1x60
EndSplineSet
Position2: "cpsp-1" dx=0 dy=0 dh=50 dv=100
Substitution2: "c2pc-1" i.pcap
Substitution2: "c2sc-1" i.smcp
EndChar
StartChar: J
Encoding: 74 74 35
Width: 401
Flags: HMW
AnchorPoint: "Top" 295.525 679 basechar 0
AnchorPoint: "Bottom" 104.904 -138 basechar 0
LayerCount: 2
Back
SplineSet
160.570762881 658.440239165 m 1
 165.741856087 685.95859295 l 1
 207.459070794 678.119330208 240.549342635 675 276.848632812 675 c 0
 321.520361535 675 365.482517071 679.664957409 416.556092129 686.192918565 c 1
 420.106028296 658.418866769 l 1
 423.655964463 630.644814972 l 1
 371.990937449 624.041257474 325.467653315 619 276.848632812 619 c 0
 237.198303407 619 199.772189939 622.583652654 155.399669675 630.921885379 c 1
 160.570762881 658.440239165 l 1
-5.7421875 -135.0703125 m 1
 -18.5146484375 -110.153320312 l 1
 -1.943359375 -101.659179688 8.2632092764 -91.1039690534 22.7451736053 -82.1229059037 c 0
 89.8266824234 -40.5219702026 125.399869343 -21.2399725043 149.627832753 80.9140816916 c 2
 259.53802603 633.462598801 l 1
 287 628 l 1
 314.46197397 622.537401199 l 1
 204.369656066 69.0732939158 l 1
 176.261892568 -50.8913538565 121.805664062 -91.82421875 54.2587890625 -133.713867188 c 0
 38.083984375 -143.745117188 24.013671875 -151.282226562 7.0302734375 -159.987304688 c 1
 -5.7421875 -135.0703125 l 1
EndSplineSet
Fore
SplineSet
255 614 m 0
 253.224461373 624.865047633 244 614 152 632 c 1
 166.25 686 l 1
 215.911132812 675 233.848632812 675 276.848632812 675 c 3
 331.848632812 675 360.336914062 679 428.25 688 c 1
 426.669921875 631 l 1
 355.669921875 622 315.033155877 621.314414974 313.544921875 614 c 0
 290.877813405 502.595047978 267.20703125 385 237.473632812 231 c 0
 217.123784644 125.60079296 212.078125 100 202.212890625 63 c 1
 183.93359375 -23 146 -80 52.46484375 -135 c 0
 29.1160104836 -148.729445496 5.7265625 -163 -17.25 -177 c 1
 -42.708984375 -123 l 1
 -17.158203125 -107 -0.8203125 -97 20.943359375 -83 c 0
 28.921875 -77.8671875 39.2797120664 -70.8875752842 47.34375 -66 c 0
 119.939597315 -22 132.444335938 11 154 103 c 1
 160.588867188 134 255.489991653 611.001595703 255 614 c 0
EndSplineSet
Position2: "cpsp-1" dx=0 dy=0 dh=50 dv=100
Substitution2: "c2pc-1" j.pcap
Substitution2: "c2sc-1" j.smcp
EndChar
StartChar: K
Encoding: 75 75 36
Width: 742
Flags: HW
HStem: -9 60<414.205 452.517 589.551 644.272> -8 65<9.5443 74.8976 185.485 228.015> 618 68<149.336 189.979 304.897 364.725 529.326 549.67>
AnchorPoint: "Top" 445.525 679 basechar 0
AnchorPoint: "Bottom" 291.319 -15 basechar 0
LayerCount: 2
Back
SplineSet
229 338 m 1
 248.765798007 357.832126188 l 1
 547.765798007 59.8321261882 l 1
 528 40 l 1
 508.234201993 20.1678738118 l 1
 209.234201993 318.167873812 l 1
 229 338 l 1
244 629 m 1
 271.347632689 622.991091087 l 1
 144.347632689 44.9910910874 l 1
 117 51 l 1
 89.6523673112 57.0089089126 l 1
 216.652367311 635.008908913 l 1
 244 629 l 1
169.614733242 654.518646598 m 1
 173.846383945 682.197034057 l 1
 202.892454379 677.756283145 228.96617869 676 257.053710938 676 c 0
 283.704887966 676 309.804524677 677.99743442 336.618444615 681.221191974 c 1
 339.960732093 653.421387758 l 1
 343.30301957 625.621583543 l 1
 314.942843239 622.211924199 286.513285264 620 257.053710938 620 c 0
 226.594380054 620 197.245748525 621.968888902 165.38308254 626.840259139 c 1
 169.614733242 654.518646598 l 1
206.50570459 22.9144943307 m 1
 203.039436922 -4.87012350822 l 1
 171.499307065 -0.935337253294 141.333261037 1 106.577148438 1 c 0
 84.8070427555 1 61.5626468433 -0.0319866359858 35.6983273923 -2.32057717674 c 1
 33.2304047591 25.5704492991 l 1
 30.7624821259 53.461475775 l 1
 58.0876498846 55.8793287007 83.0302432648 57 106.577148438 57 c 0
 143.427090471 57 176.283736043 54.901885253 209.971972258 50.6991121696 c 1
 206.50570459 22.9144943307 l 1
209.700195312 328.893554688 m 1
 192.325246014 350.850584014 l 1
 325.582656057 456.299308827 465.681480558 544.914347331 590.018282815 647.936555848 c 1
 607.8828125 626.375976562 l 1
 625.747342185 604.815397277 l 1
 497.690565579 498.710915722 357.2738275 409.964830341 227.075144611 306.936525361 c 1
 209.700195312 328.893554688 l 1
623.328559496 22.6137789888 m 1
 619.688557738 -5.14861260847 l 1
 594.488883246 -1.84461557612 571.516047569 1 543.577148438 1 c 0
 502.843600615 1 475.177886876 -1.90967237131 444.051978207 -5.40991512298 c 1
 440.922979833 22.4147029189 l 1
 437.793981459 50.2393209607 l 1
 469.105979837 53.7604903032 500.116254566 57 543.577148438 57 c 0
 575.42459543 57 601.620481591 53.6996254193 626.968561254 50.3761705861 c 1
 623.328559496 22.6137789888 l 1
551.35651767 649.09714416 m 1
 554.818262861 676.882325826 l 1
 565.375376806 675.567019024 574.606449237 675 584.840820312 675 c 0
 616.62269429 675 651.932902774 678.806017283 685.591846675 685.088869065 c 1
 690.729646457 657.564279815 l 1
 695.867446239 630.039690565 l 1
 659.316940466 623.217093545 620.997553135 619 584.840820312 619 c 0
 572.452894462 619 560.539769852 619.736527091 547.894772479 621.311962493 c 1
 551.35651767 649.09714416 l 1
EndSplineSet
Fore
SplineSet
531.116210938 681 m 1x60
 549.265625 677 566.840820312 675 584.840820312 675 c 3
 626.840820312 675 671.116210938 681 718.454101562 692 c 1
 719 636 l 1
 657.875 621 653.386933074 627.531714676 621.7734375 602 c 0
 514.72882024 515.548547043 379.24311728 428.039724576 259 338 c 1
 536.345703125 71 l 1
 560.342022384 49.0833333333 602.200543959 59.75 659.142578125 43 c 1
 641.665039062 -8 l 1x60
 609.514648438 -4 579.577148438 1 543.577148438 1 c 3
 489.577148438 1 459.514648438 -4 411.452148438 -9 c 1
 414.205078125 48 l 1xa0
 417.612186633 48.7777777778 464.543435919 53.4444444444 474.118164062 55 c 1
 457.955763749 67.9958506224 293.869611622 228.278008299 204 316 c 1
 185.214519236 232.554054054 160.929430608 120.832792703 149.157226562 69 c 0
 145.044534475 50.8918941946 173.352975167 56 235.48046875 47 c 1
 225.665039062 -8 l 1
 185.940429688 -2 149.577148438 1 106.577148438 1 c 3
 75.5771484375 1 42.15234375 -1 1.08984375 -6 c 1
 8.5439453125 53 l 1
 67.7564387822 56 88.1757214995 51.9344452106 90.96875 64 c 0
 115.758931766 171.090671034 137.938923468 276.628300919 162.836914062 388 c 0
 180.686776403 467.844575796 193.721590331 529.265002162 209.624023438 604 c 0
 215.752083589 632.799401896 205.296170693 614 133 634 c 1
 152.178710938 686 l 1
 187.69140625 679 222.053710938 676 257.053710938 676 c 3
 295.053710938 676 331.903320312 680 371.178710938 686 c 1
 365.724609375 628 l 1
 292.377501389 619.142857143 271.949036455 621.928571429 268.749023438 611 c 1
 252.393959817 533 234.936160292 455 217 376 c 1
 310.198741425 447.65437788 427.401275994 520.412982902 521.922851562 595 c 0
 541.065403907 610.105396524 547.174804688 615 552.024414062 619 c 0
 552.024414062 619 530.875 623 515.724609375 627 c 1
 531.116210938 681 l 1x60
EndSplineSet
Position2: "cpsp-1" dx=0 dy=0 dh=50 dv=100
Substitution2: "c2pc-1" k.pcap
Substitution2: "c2sc-1" k.smcp
EndChar
StartChar: L
Encoding: 76 76 37
Width: 674
Flags: HW
HStem: -15 21G<524.027 562.981> -8 75<3.10645 73.2597> 1 72<186.77 427.512> 609 79<133.174 176.233 291.279 388.588>
VStem: 548.764 64.2363<144.736 171.417>
AnchorPoint: "Top" 267.525 679 basechar 0
AnchorPoint: "TopRight" 421.365 581 basechar 0
AnchorPoint: "Bottom" 258.555 -15 basechar 0
LayerCount: 2
Back
SplineSet
230 629 m 1
 257.419291746 623.327043087 l 1
 137.419291746 43.327043087 l 1
 110 49 l 1
 82.5807082538 54.672956913 l 1
 202.580708254 634.672956913 l 1
 230 629 l 1
155.205585917 655.573928294 m 1
 159.771774954 683.199096487 l 1
 195.334739674 677.320861882 229.748459736 675 265.340820312 675 c 0
 297.902760416 675 331.147345652 677.563136615 362.113410681 681.823153368 c 1
 365.92944324 654.084409786 l 1
 369.745475798 626.345666203 l 1
 336.439743965 621.763780341 300.820853949 619 265.340820312 619 c 0
 227.309133726 619 189.624262052 621.504916475 150.639396879 627.948760101 c 1
 155.205585917 655.573928294 l 1
578.72813372 148.368220902 m 1
 605.209626257 139.272587168 l 1
 594.82538778 109.03938498 581.396740237 100.629424005 545.327785054 9.89885362217 c 2
 535.981544935 -13.6113837162 l 1
 511.327988702 -6.59812283874 l 2
 498.637743229 -3.0408704942 487.621638676 -1 460.958063692 -1 c 0
 446.241950834 -1 355.285311069 1 248.078125 1 c 0
 94.9114858048 1 53.7482805495 -3.19226478366 28.8969153026 -5.8300807549 c 1
 25.9414935527 22.0135088535 l 1
 22.9860718028 49.8570984619 l 1
 49.6180806396 52.6839185403 94.4143691557 57 248.078125 57 c 0
 355.526034924 57 448.185944224 55 460.958063692 55 c 0
 477.708647269 55 489.491958076 54.2906188918 502.19605316 52.4979471777 c 1
 531.962797125 123.974276942 548.423216988 146.332142186 552.246641183 157.463854636 c 1
 578.72813372 148.368220902 l 1
EndSplineSet
Fore
SplineSet
389.104492188 686 m 1x58
 382.587890625 628 l 1
 255.50353093 609.95 259.185477772 627.739762953 251.084960938 590 c 0
 237.885145562 529.840989079 157.723484689 137.977375566 153.135742188 121 c 1
 142.590773216 69.8 135.754779075 57 149.381835938 57 c 0x38
 226.512143843 57 417.620081097 56.2468525576 478.870117188 55 c 0
 515.290674608 54.2619712626 500.822698529 67.7609223301 559.763671875 175 c 5
 607 162 l 5
 594.982629561 98.8540540541 586.047744815 122.772972973 535.676757812 -15 c 1x98
 512.377929688 -7 506.451348257 -1 460.65234375 -1 c 0
 446.65234375 -1 355.078125 1 248.078125 1 c 1x38
 31.9394248881 1 48.3533955298 -7 4.1650390625 -7 c 1
 10.1064453125 50 l 1
 68.1457561501 53.8769230769 81.8597497705 53.075075699 84.8701171875 64 c 0
 87.9951171875 74.7174887892 109.132675074 179.631662139 134.26953125 303 c 0
 166.658643472 461.961443369 193.845725517 595.525244111 198 612 c 0
 200.667587393 623.122529644 193.348503179 617.47826087 132 633 c 1
 145.104492188 686 l 1
 182.113393023 678.384615385 224.71929394 675 265.340820312 675 c 3
 307.901919499 675 351.446087552 679.230769231 389.104492188 686 c 1x58
EndSplineSet
Position2: "cpsp-1" dx=0 dy=0 dh=50 dv=100
Substitution2: "c2pc-1" l.pcap
Substitution2: "c2sc-1" l.smcp
EndChar
StartChar: M
Encoding: 77 77 38
Width: 897
Flags: HW
HStem: -13 74<587.152 658.478> -11 74<-20.4225 48.6417 134.281 171.631 767.102 814.602> -3 21G<342.548 418.437> 610 72<856.357 938.846> 614 79<132.848 170.627>
AnchorPoint: "Top" 549.525 679 basechar 0
AnchorPoint: "Bottom" 387.285 -15 basechar 0
LayerCount: 2
Back
SplineSet
83 47 m 1
 55.8089346209 53.6817635061 l 1
 199.808934621 639.681763506 l 1
 227 633 l 1
 254.191065379 626.318236494 l 1
 110.191065379 40.3182364939 l 1
 83 47 l 1
818 633 m 1
 845.566302888 628.090932362 l 1
 741.566302888 44.0909323624 l 1
 714 49 l 1
 686.433697112 53.9090676376 l 1
 790.433697112 637.909067638 l 1
 818 633 l 1
153.368920728 661.064733881 m 1
 159.278587491 688.433983757 l 1
 182.944136526 683.324033387 207.11836353 679.912218363 231.45939709 678.405494515 c 1
 229.729492188 650.458984375 l 1
 227.999587285 622.512474235 l 1
 200.739085571 624.199914824 173.786064578 628.010904474 147.459253966 633.695484006 c 1
 153.368920728 661.064733881 l 1
150.713322751 22.999536171 m 1
 146.668040341 -4.70670302202 l 1
 120.913614772 -0.946397481782 96.353995935 0 67.185546875 0 c 0
 48.7149412366 0 26.0297673663 -0.701755409501 7.56940341334 -3.27516771103 c 1
 3.70352833258 24.4566733721 l 1
 -0.162346748174 52.1885144552 l 1
 22.787751139 55.3878048037 47.3676436027 56 67.185546875 56 c 0
 97.4933267741 56 125.208884977 55.0202174091 154.758605161 50.7057753641 c 1
 150.713322751 22.999536171 l 1
792.118465091 21.4755970727 m 1
 787.767326975 -6.1842582612 l 1
 758.228129516 -1.53748312674 731.45047434 0 701.185546875 0 c 0
 674.404131951 0 646.359043974 -1.67027522384 616.439775886 -6.2885408394 c 1
 612.168350335 21.3837363305 l 1
 607.896924785 49.0560135004 l 1
 641.03157198 54.170597232 672.067420736 56 701.185546875 56 c 0
 733.348888371 56 763.59000122 54.3077025044 796.469603208 49.1354524066 c 1
 792.118465091 21.4755970727 l 1
239.389480621 678.02510403 m 2
 240.389330877 678.02510403 268.927225826 649.407808599 269.190668946 648.268159417 c 0
 325.278007415 470.053315239 368.7219143 299.181124515 400.632059424 128.719884217 c 0
 401.374041143 124.337032471 401.895286969 121.34229588 402.624917771 117.157907901 c 1
 508.695807081 286.269434785 769.490604141 638.981861819 785.300680221 659.757108211 c 0
 795.513326717 674.089280233 810.596201834 683.996819573 827.635203796 681.940890563 c 0
 856.837602957 677.376386853 883.203738507 679.282599943 912.26687485 682.657363762 c 1
 918.726102578 627.031125554 l 1
 891.389099546 623.85679751 860.514274918 621.593442253 829.365769876 625.183408248 c 1
 803.482025907 590.845504917 433.54233418 85.0745967466 410.424414216 16.101659809 c 2
 347.952322789 -170.28550777 l 1
 355.89886371 26.1318818187 l 2
 357.116829424 56.2367599543 351.384446479 84.1271548013 345.498799951 118.893397033 c 0
 314.081808839 286.720251178 269.853356157 459.984773903 214.013263029 637.047272685 c 2
 213.410485444 638.958610928 l 1
 212.801891088 642.66873597 l 2
 212.640018377 643.655547617 239.389480621 678.02510403 239.389480621 678.02510403 c 2
EndSplineSet
Fore
SplineSet
806.84765625 -10 m 1x50
 773.444634896 -2.72727272727 738.089938962 0 701.185546875 0 c 3
 670.673376812 0 638.810675995 -2.53846153846 602.422851562 -11 c 1
 605.151367188 48 l 1x80
 683.348214828 62.5666666667 685.862822976 50.199585812 689.528320312 71 c 0
 717.926716294 232.15095566 748.832325138 408.534246575 774.627929688 551 c 1
 676.995084729 411.593516209 573.64638576 255.65027649 488.393554688 128 c 0
 462.758842782 89.6167812693 426.200729264 35 417.547851562 -3 c 1
 364.547851562 -3 l 1x20
 372.475585939 39 366.635400764 73.1766081927 357.48046875 119 c 0
 321.037514123 301.408759124 252.67088067 516.686131387 238 560 c 1
 202.809867562 419.158653846 160.265207339 245.842895197 123.202148438 95 c 0
 109.541502745 39.4025558705 109.188476561 62 178 47 c 1
 169.272460938 -9 l 1
 139.760742188 -2 105.185546875 0 67.185546875 0 c 3
 37.185546875 0 4.9736328125 -1 -28.15234375 -11 c 1
 -20.4228515625 49 l 1
 57.7631921094 59.0915750916 55.5959441624 53.3818681319 61.8662109375 78 c 1
 62.3220759355 80.1964285714 182.182158003 565.607142857 183.091796875 570 c 1
 193 609 193 614 187.932617188 621 c 0
 183.054123991 627.739070964 173.693227749 627.461538462 121.6953125 640 c 1
 135.487304688 693 l 1x48
 167.629026509 682.733333333 204.081265191 677.133333333 237.298828125 679 c 1
 258.51171875 680 266.007705114 654.77185041 267.34765625 651 c 0
 331.775321478 469.641509434 381.541067924 291.641509434 415.958007812 117 c 1
 460.435238042 195 755.661824455 625.566857829 785.473632812 660 c 0
 796.725676516 672.996300524 810.47657345 682.868035456 827.149414062 682 c 0
 855.960749742 680.5 892.279552532 681.5 927 684 c 1
 918.845703125 628 l 1
 853.893102014 618.429864253 845.420576391 625.719684921 843.08203125 613 c 0
 811.146110166 439.295910746 780.371486798 263.282422974 745.465820312 66 c 0
 742.570080473 49.6336437806 743.653456921 59.9545454545 819.639648438 45 c 1
 806.84765625 -10 l 1x50
EndSplineSet
Position2: "cpsp-1" dx=0 dy=0 dh=50 dv=100
Substitution2: "c2pc-1" m.pcap
Substitution2: "c2sc-1" m.smcp
EndChar
StartChar: N
Encoding: 78 78 39
Width: 804
Flags: HW
HStem: -13 81<-14.0226 52.1468 142.606 221.01> 0 74<-14.0226 53.8555> 610 68<117.638 153.19 800.19 867.121> 615 76<643.808 711.053>
VStem: 599.06 74.4639<6 47.7811>
AnchorPoint: "Top" 508.525 679 basechar 0
AnchorPoint: "Bottom" 364.689 -15 basechar 0
LayerCount: 2
Back
SplineSet
665.226959847 659.602589139 m 1
 669.265635638 687.309792135 l 1
 718.050417732 680.198792211 761.336876571 678 806.362304688 678 c 0
 817.169614662 678 830.788109596 678.367468417 841.041373915 678.855430226 c 1
 842.37241191 650.887084944 l 1
 843.703449906 622.918739661 l 1
 832.478050471 622.384513091 818.375722976 622 806.362304688 622 c 0
 759.509038364 622 713.058073976 624.334707252 661.188284057 631.895386143 c 1
 665.226959847 659.602589139 l 1
763.276367188 618.711914062 m 1
 790.620472809 612.686975246 l 1
 750.31498088 429.761029942 718.952465838 290.023284475 674.957630211 92.7269600066 c 0
 670.667331572 73.488027197 669.793287334 47.5157211691 669.933898137 27.2233106896 c 2
 669.941114307 26.1819007637 l 1
 669.870948942 25.1428321768 l 1
 669.38559738 17.9553321768 l 1
 658.43218796 -144.252099069 l 1
 614.491310548 12.2740240592 l 2
 603.958734099 49.7931510152 586.927960166 77.3934939435 567.960915894 107.220193269 c 0
 451.694141416 291.564440896 336.758213514 442.728230221 208.669537012 618.969193832 c 1
 181.358431151 620.75361925 156.300005177 624.501463878 136.011788282 626.781676622 c 1
 139.139046584 654.606490287 l 1
 142.266304887 682.431303952 l 1
 165.730737959 679.794113133 196.364676741 675.388134851 219.563143032 674.477474765 c 0
 231.20382232 674.020517746 248.455833094 659.541459999 250.728470583 656.353343111 c 0
 379.917279408 478.45985019 496.525438116 325.457387645 615.271505981 137.182150481 c 0
 618.191273457 132.590658768 621.27312814 127.727846261 624.29957861 122.848619547 c 1
 666.118806884 310.336131586 696.903211537 447.604022363 735.932261566 624.736852879 c 1
 763.276367188 618.711914062 l 1
200.407475934 19.4033306547 m 1
 195.339968607 -8.13428669842 l 1
 164.410226215 -2.44255621255 135.313160068 0 107.249023438 0 c 0
 76.0144362674 0 44.9086117421 -2.82370654619 12.3762063125 -6.67354419687 c 1
 9.08568707504 21.1324350728 l 1
 5.79516783759 48.9384143426 l 1
 39.2553189658 52.898040073 72.6406691039 56 107.249023438 56 c 0
 138.579824398 56 171.187588071 53.250558027 205.474983261 46.9409480079 c 1
 200.407475934 19.4033306547 l 1
77 45 m 1
 49.6968997451 51.2081169826 l 1
 92.2662318145 238.426680121 137.1983415 427.646963358 182.742875563 621.406962419 c 1
 210 615 l 1
 237.257124437 608.593037581 l 1
 191.693520884 414.751911236 146.792103635 225.657163144 104.303100255 38.7918830174 c 1
 77 45 l 1
EndSplineSet
Fore
SplineSet
117.637695312 684 m 1x48
 140.941407743 684 187.440102176 674 218.51171875 674 c 0
 233.51171875 674 246.933008728 661.139520816 250.685546875 656 c 0
 394.67270486 458.793478261 515.004899667 300.108695652 625 121 c 1
 652.603042556 246.528089888 669.612866702 327.649620912 699.662109375 463 c 0
 707.443221801 498.048354731 716.156512568 531.404974895 723.2421875 564 c 0
 738.657681246 645.878378378 738.100333886 612.337837838 646.970703125 637 c 1
 659.125 690 l 1x58
 712.304620223 680.769230769 758.581047641 678 806.362304688 678 c 3
 827.362304688 678 849.57421875 679 873 681 c 1
 867.12109375 625 l 1
 796.364850787 617.5 795.10012984 627.451386273 791.908203125 613 c 0
 751.818787251 431.495947428 716.665294858 289.476504801 675.016601562 93 c 0
 669.27734375 66 669.413085938 29 670.524414062 6 c 1
 617.060546875 -10 l 1
 610.709634558 36.0165289256 591.116410442 70.5481654118 568.779296875 106 c 0
 459.995898752 278.653061224 352.815098967 419.469387755 232 586 c 1
 229.712992758 575.416430595 127.692240018 136.885953045 123 119 c 1
 104.813924986 31.5974025974 100.620024296 68 219.702148438 44 c 5
 211.485351562 -13 l 5xa8
 175.795212034 -4 140.046505573 0 107.249023438 0 c 3
 65.2490234375 0 24.185546875 -5 -22.08984375 -11 c 1
 -14.0224609375 47 l 1
 37.552734375 53.0909090909 49.2278289541 49.6969840267 52.31640625 63 c 0
 84.5087591104 201.65781662 116.156460467 337.692940652 149.232421875 480 c 0
 158.30036237 519.014193125 163.042284452 539 171 573 c 1
 181.526367187 621 192.178710937 621 110.116210938 630 c 1
 117.637695312 684 l 1x48
EndSplineSet
Position2: "cpsp-1" dx=0 dy=0 dh=50 dv=100
Substitution2: "c2pc-1" n.pcap
Substitution2: "c2sc-1" n.smcp
EndChar
StartChar: O
Encoding: 79 79 40
Width: 792
Flags: W
HStem: -16 56<238.64 462.15> 632 57<374.955 596.571>
AnchorPoint: "Top" 487.525 679 basechar 0
AnchorPoint: "Horn" 650.274 595 basechar 0
AnchorPoint: "Middle" 413.009 358 basechar 0
AnchorPoint: "Ogonek" 392.009 10 basechar 0
AnchorPoint: "Bottom" 345.837 -15 basechar 0
LayerCount: 2
Back
SplineSet
488.200195312 633 m 0
 508.670845196 633 528.27297813 630.93070715 546.795477589 627.029618871 c 0
 670.220427648 601.034659224 752.889225152 495.827237649 719.90443864 340.643243899 c 0
 683.834598804 170.950871656 507.783227209 40 347.348632812 40 c 0
 324.919327067 40 302.503758534 42.3228030872 280.986318279 46.8957570955 c 0
 162.559938391 72.0641034304 73.2320871028 156.343238435 107.881728988 319.356919893 c 0
 144.992941788 493.951050613 326.054855565 633 488.200195312 633 c 0
EndSplineSet
Fore
SplineSet
489 632 m 3
 317.49251835 632 143.426077401 487.124174608 108 322 c 0
 65.1318359355 122.187581371 224.96219088 40 347 40 c 3
 514.963312036 40 679.715300849 173.757015184 720 340 c 0
 757.510875387 494.796238245 660.953016796 632 489 632 c 3
488.200195312 689 m 3
 677.200195312 689 819.530792774 539.999682037 774.680664062 329 c 0
 732.59375 131 534.348632812 -16 347.348632812 -16 c 3
 175.348632812 -16 4.00479492826 100.00001868 53.10546875 331 c 0
 96.0419921875 533 298.200195312 689 488.200195312 689 c 3
EndSplineSet
Position2: "cpsp-1" dx=0 dy=0 dh=50 dv=100
Substitution2: "c2pc-1" o.pcap
Substitution2: "c2sc-1" o.smcp
EndChar
StartChar: P
Encoding: 80 80 41
Width: 640
Flags: HW
HStem: -15 69<10.5919 70.0803> -11 73<188.42 252.447> 198 68<222.074 387.602> 205 67<221.441 257.048> 609 72<130.403 174.095> 618 68<287.061 456.836>
AnchorPoint: "Top" 396.525 679 basechar 0
AnchorPoint: "Bottom" 143.699 -15 basechar 0
LayerCount: 2
Back
SplineSet
228 634 m 1
 255.434513646 628.401119664 l 1
 135.434513646 40.4011196641 l 1
 108 46 l 1
 80.5654863541 51.5988803359 l 1
 200.565486354 639.598880336 l 1
 228 634 l 1
152.768608179 650.127579709 m 1
 155.936683191 677.947775623 l 1
 173.588722908 675.937617748 189.348612272 675 218.107421875 675 c 0
 293.315708771 675 325.233772413 686 398.4453125 686 c 0
 421.764269701 686 443.640833116 683.722996213 463.94076892 679.456990306 c 0
 587.135403507 653.56779322 652.385627646 553.992228256 629.431640625 446 c 0
 607.972055594 345.038524211 495.69315241 198 257.717773438 198 c 0
 242.704461176 198 219.778312582 202.791515283 209.206054688 205 c 2
 181.412966229 210.80581856 l 1
 187.138420896 238.214196273 l 1
 192.863875563 265.622573986 l 1
 220.656964022 259.816755426 l 2
 227.73470836 258.338254773 253.87446424 254.08592125 257.795405394 253.99857931 c 0
 469.936959965 254.525316262 558.552625236 381.884023166 574.655326533 457.642826739 c 0
 590.945898771 534.285511687 549.569564838 604.239015944 452.423996881 624.65403453 c 0
 436.124622243 628.079327553 418.12031018 630 398.4453125 630 c 0
 333.09283378 630 300.088863293 619 218.107421875 619 c 0
 188.248114119 619 169.299543605 620.064123434 149.600533168 622.307383794 c 1
 152.768608179 650.127579709 l 1
230.954347251 21.2976329112 m 1
 226.383263073 -6.32672571382 l 1
 190.91170706 -0.457142617043 164.584821526 0 135.631835938 0 c 0
 108.401126577 0 79.764051896 0.465406340882 41.1262332272 -7.55379857804 c 1
 35.4361486225 19.8619439286 l 1
 29.7460640179 47.2776864353 l 1
 74.3087515019 56.5265864763 109.034267334 56 135.631835938 56 c 0
 165.142697368 56 195.977883112 55.466041113 235.525431428 48.9219915361 c 1
 230.954347251 21.2976329112 l 1
EndSplineSet
Fore
SplineSet
260.549804688 254 m 1x20
 419.735639936 254 545 337 574 455 c 1
 593 543 541.655316998 595.205639932 483 616 c 0
 464.08454887 622.705866097 427.342532815 630.512670799 400 631 c 0
 335.877823758 632.142857143 252.457838709 617.379950192 252.015625 615 c 0
 238.770091339 543.713855422 208.282656933 397.009036145 183.447265625 272 c 1x14
 202.329163071 263 248.148516222 254 260.549804688 254 c 1x20
132.3828125 681 m 1x88
 161.532226562 677 177.107421875 675 218.107421875 675 c 1
 293.107421875 675 325.4453125 686 398.4453125 686 c 1
 563.4453125 686 656.213867188 572 629.431640625 446 c 1
 607.963867188 345 495.717773438 198 257.717773438 198 c 1x24
 232.751351021 198 188.27991109 208.428571429 171.206054688 214 c 1
 157.667612532 150.666666667 145.196531015 87.0816671699 139.1484375 62 c 0
 135.619082956 47.3636363636 184 64 262 42 c 1
 250.293945312 -11 l 1x50
 205.418945312 -1 170.631835938 0 135.631835938 0 c 3
 101.631835938 0 66.84375 1 11.443359375 -15 c 1
 6.109375 42 l 1
 78.2949055793 60 80.6310840283 47.8488438663 82.935546875 60 c 0
 90.0363600761 95.5887850467 97.0687947199 131.15594932 106.6796875 179 c 0
 139.238212014 341.079812207 183.163551975 547.17791179 195.228515625 616 c 0
 196.397086202 622.665869014 187.513777306 614 122.078125 626 c 1
 132.3828125 681 l 1x88
EndSplineSet
Position2: "cpsp-1" dx=0 dy=0 dh=50 dv=100
Substitution2: "c2pc-1" p.pcap
Substitution2: "c2sc-1" p.smcp
EndChar
StartChar: Q
Encoding: 81 81 42
Width: 786
Flags: HW
HStem: -171 74<614.642 752.132> -12 82<299.69 376.925> 619 73<356.095 535.886>
AnchorPoint: "Top" 480.525 679 basechar 0
AnchorPoint: "Middle" 402.727 347.853 basechar 0
AnchorPoint: "Bottom" 258.553 -15 basechar 0
LayerCount: 2
Back
SplineSet
727.288085938 -129.092773438 m 1
 738.60103049 -154.705607829 l 1
 718.955548997 -163.382829547 693.580974693 -171 664.3125 -171 c 0
 547.762075018 -171 458.143056729 -96.6705732615 390.065249098 15.4697660281 c 1
 414 30 l 1
 437.934750902 44.5302339719 l 1
 501.216516775 -59.7098839587 574.637897256 -115 664.3125 -115 c 0
 683.729345108 -115 701.531270852 -109.859658837 715.975141385 -103.479939046 c 1
 727.288085938 -129.092773438 l 1
377.151011553 16 m 1
 377.151011553 -12 l 1
 363.108398438 -12 l 2
 329.831009017 -12 299.164486667 -8.83323056249 271.130967302 -2.88732811665 c 0
 98.8594865517 33.6514098636 25.9873042949 175.610659837 59.228515625 332 c 0
 103.658986803 541.031253455 287.719370958 692 482.748046875 692 c 0
 509.260054454 692 534.553569896 689.365244248 558.372301064 684.335846484 c 0
 710.495194534 652.214633357 802.618214555 522.020804283 767.541992188 357 c 0
 735.852388338 207.911997876 625.472644055 74.0308358874 497.3984375 27 c 2
 464.321253431 14.8535447738 l 1
 454.66940812 41.1374159134 l 1
 445.017562808 67.421287053 l 1
 478.094746877 79.5677422792 l 2
 584.690401366 118.71132058 684.87940717 237.448115734 712.76572436 368.643044397 c 0
 741.692965435 504.735139437 670.868676091 603.347109841 546.802833601 629.543991043 c 0
 526.957757757 633.734339361 505.550950232 636 482.748046875 636 c 0
 316.398338789 636 153.188169738 504.702341383 114.004807557 320.357069004 c 0
 86.0181505399 188.688737762 141.708756573 81.8088505057 282.750077862 51.8940215363 c 0
 306.618330272 46.8315711698 333.382523483 44 363.108398438 44 c 2
 377.151011553 44 l 1
 377.151011553 16 l 1
EndSplineSet
Fore
SplineSet
488 636 m 3
 325.848835959 636 156.501218078 517.156379689 115 325 c 0
 78.7137212107 156.98951049 172.976441243 44 364 44 c 3
 430.068146637 44 655 120 712 366 c 0
 751.067174729 534.60570146 629.014183684 636 488 636 c 3
459 10 m 1
 512.403854656 -73.6693548387 597.175350145 -115 663 -115 c 3
 701.194497274 -115 734.066382477 -101 751.25390625 -96 c 5
 757.775390625 -150 l 1
 739.066136099 -159 704.44259189 -171 664.3125 -171 c 3
 556.115642623 -171 470.810816635 -107.830188679 405 -9 c 1
 126 -31 20.6496642808 150.498759084 59.228515625 332 c 0
 103.65234375 541 287.748046875 692 482.748046875 692 c 3
 678.748046875 692 811.883561617 547.165912316 767.541992188 357 c 0
 722.147127024 162.316860465 591 55 459 10 c 1
EndSplineSet
Position2: "cpsp-1" dx=0 dy=0 dh=50 dv=100
Substitution2: "salt-1" Q.alt
Substitution2: "c2pc-1" q.pcap
Substitution2: "c2sc-1" q.smcp
EndChar
StartChar: R
Encoding: 82 82 43
Width: 707
Flags: HMW
AnchorPoint: "Top" 381.525 679 basechar 0
AnchorPoint: "Bottom" 340.125 -15 basechar 0
LayerCount: 2
Back
SplineSet
38.2105991217 24.8333426989 m 1
 41.4632538174 -2.97709126808 l 1
 34.2899386758 -3.81606836593 26.3733057115 -4.94883780959 19.3551878215 -6.10365251358 c 1
 14.8089892347 21.5248124892 l 1
 10.2627906478 49.1532774919 l 1
 18.1303838002 50.4478713417 26.7557052424 51.6844585974 34.9579444259 52.6437766658 c 1
 38.2105991217 24.8333426989 l 1
181.222726139 19.3491701779 m 1
 175.385463436 -8.03561326349 l 1
 148.067493799 -2.21259240097 121.21333376 0 92.4970703125 0 c 0
 85.2637957448 0 77.8718666411 -0.184424430795 70.4377550122 -0.558579327358 c 1
 69.0303112975 27.4060251252 l 1
 67.6228675828 55.3706295778 l 1
 75.9941952487 55.7919540606 84.3135029322 56 92.4970703125 56 c 0
 124.09387203 56 155.188936966 53.5274965677 187.059988843 46.7339536192 c 1
 181.222726139 19.3491701779 l 1
90.763671875 69.0048828125 m 1
 63.6515750014 76.0001814562 l 1
 92.0325843276 185.99815487 109.186067988 262.002697371 125.553336574 339.000535345 c 0
 142.771287972 420.00030785 155.799861649 486.000712371 175.90652488 590.000472529 c 1
 203.397460938 584.685546875 l 1
 230.888396995 579.370621221 l 1
 210.771354364 475.31717463 197.645340656 408.817280477 180.329475926 327.35688653 c 0
 163.863887057 249.896512664 146.446454059 172.742696124 117.875768749 62.0095841688 c 1
 90.763671875 69.0048828125 l 1
139.52612682 646.432574667 m 1
 140.249061697 674.423240346 l 1
 170.978640588 673.629565604 192.810525876 673 223.547851562 673 c 0
 284.393297128 673 312.702848686 692 383.586914062 692 c 0
 406.836271643 692 429.472478135 689.720116076 450.790493612 685.206593306 c 0
 543.830827895 665.507777166 611.554051219 602.458023778 590.201171875 502 c 0
 569.135544646 402.893399575 483.946763848 345.054021324 420.665039062 316 c 1
 408.982128557 341.446209976 l 1
 397.299218053 366.892419952 l 1
 454.357523076 393.089133402 520.19889405 442.009853873 535.42489151 513.642985414 c 0
 548.822922112 576.676155561 516.029192085 614.152643107 439.191114585 630.421062313 c 0
 422.010572921 634.05858505 403.157905743 636 383.586914062 636 c 0
 327.277589646 636 297.973845124 617 223.547851562 617 c 0
 191.999262362 617 169.379615545 617.652189896 138.803191942 618.441908987 c 1
 139.52612682 646.432574667 l 1
647.407799027 0.196402709267 m 1
 643.98479462 -27.5935782339 l 1
 491.250393961 -8.78066404931 374.025483352 170.779980325 335.505385463 297.878766787 c 1
 362.301757812 306 l 1
 389.098130162 314.121233213 l 1
 424.844696766 196.173837323 536.652230614 42.0502205022 650.830803435 27.9863836525 c 1
 647.407799027 0.196402709267 l 1
302.288898068 320.889290012 m 1
 304.776367188 293 l 1
 293.577997622 292.001208045 281.340188121 291 266.3515625 291 c 0
 242.278839577 291 224.844571129 292.996369642 205.989257812 294 c 2
 181.718191494 295.291899985 l 1
 183.206468295 323.252319012 l 1
 184.694745095 351.212738039 l 1
 208.965811412 349.920838054 l 2
 230.012766661 348.800551009 245.638188946 347 266.3515625 347 c 0
 278.87727688 347 288.863781092 347.803042057 299.801428947 348.778580024 c 1
 302.288898068 320.889290012 l 1
EndSplineSet
Fore
SplineSet
185.017578125 351 m 1
 211.312625806 349.666666667 240.44857821 347 268.999023438 347 c 3
 402.806989275 347 512 414 534 510 c 0
 556.43568586 607.901174661 462.445634085 636 385.495117188 636 c 3
 375 636 241.218397496 622.514943388 236.393554688 603 c 0
 231.482728815 583.137282663 201.948615883 430.746835443 185.017578125 351 c 1
124.97265625 675 m 1
 164.548881431 674 188.40029766 673 223.547851562 673 c 3
 283.547851562 673 313.586914062 692 383.586914062 692 c 3
 508.586914062 692 619.578391713 625.319265178 590.201171875 502 c 0
 565.476153289 398.209677419 471.216363566 332.351679415 391 307 c 1
 461.845524867 124.054347826 571.023038669 27.0760869565 686 24 c 1
 665.333007812 -29 l 1
 506.747658146 -24.9751552795 377.925796572 162.180124224 337 295 c 1
 316.385602182 292 293.930793445 291 266.3515625 291 c 3
 229.230791117 291 202.047257483 293 172.989257812 294 c 1
 159.483486565 226.878504673 137.669413597 125.234497174 124.501953125 66 c 0
 119.594428159 43.923246907 138.409395973 64 214.375976562 39 c 1
 198.521484375 -14 l 1
 165.647460938 -4 129.497070312 0 92.4970703125 0 c 3
 61.6817032876 0 29.1899717996 -4 -4.265625 -13 c 5
 -5.8984375 43 l 5
 54.829972046 57.4166666667 65.8922537558 58.1666666667 65.6513671875 62 c 1
 93.1162156824 177.855513308 108.4395561 258.168182824 125.553710938 339 c 0
 143.113428868 421.93625498 156.400491253 489.513944223 176.90625 596 c 1
 178.09375 616.625 180.068794745 617.25 114.306640625 618 c 1
 124.97265625 675 l 1
EndSplineSet
Position2: "cpsp-1" dx=0 dy=0 dh=50 dv=100
Substitution2: "salt-1" R.alt
Substitution2: "c2pc-1" r.pcap
Substitution2: "c2sc-1" r.smcp
EndChar
StartChar: S
Encoding: 83 83 44
Width: 563
Flags: HW
HStem: -14 77<171.634 343.191> -1 21G<3.28672 68.9244> 613 74<279.446 459.37>
VStem: 3.28672 62.1494<2.54947 24.1148> 20.9723 69.125<145.497 185>
AnchorPoint: "Top" 385.525 679 basechar 0
AnchorPoint: "Bottom" 229.862 -15 basechar 0
LayerCount: 2
Back
SplineSet
38.2797450885 28.805770943 m 1
 10.9228524513 34.7723801342 l 1
 19.4513994294 73.875753014 18.9776422454 94.4237954233 20.41480852 161.279285807 c 1
 48.4083413031 160.677519805 l 1
 76.4018740862 160.075753802 l 1
 75.0050526661 95.0970643675 75.4404903282 67.7898086747 65.6366377256 22.8391617519 c 1
 38.2797450885 28.805770943 l 1
55.8509688304 70.5744757724 m 1
 69.5219101089 95.0102152652 l 1
 107.305749745 73.8714789856 l 2
 143.399073167 53.6785273787 189.210528151 42 221.673828125 42 c 0
 370.439782774 42 423.984675357 116.465206836 435.306839359 160.409817748 c 0
 447.259439079 212.997053696 446.746442572 257.007228582 372.569308779 293.680919135 c 0
 245.589983076 354.938634194 305.652536786 327.103213957 233.693035113 355.692312412 c 0
 215.032661169 363.105972255 101.360840458 404.982298371 130.514534773 526.717948447 c 0
 150.213624468 608.494569079 256.038411279 687 386.67578125 687 c 0
 449.623712168 687 486.278825967 676.025821718 509.410631534 665.913125265 c 1
 498.194657118 640.257679101 l 1
 486.978682703 614.602232936 l 1
 470.344156234 621.874467536 443.534470663 631 386.67578125 631 c 0
 275.655091422 631 196.339385711 560.853962119 184.961577487 513.621388375 c 0
 167.411642725 440.338987389 230.151667536 417.357014341 254.369464887 407.735421963 c 0
 321.64045497 381.009042348 272.698766637 404.036673266 397.145534971 344.00072149 c 0
 499.077059558 293.605067208 504.71812742 212.38409211 489.742604342 147.252006917 c 0
 471.420693463 74.7796167137 391.197162497 -14 221.673828125 -14 c 0
 177.505936452 -14 124.792674714 -0.08014932221 79.9638671875 25 c 2
 42.1800275519 46.1387362796 l 1
 55.8509688304 70.5744757724 l 1
498.305038918 552.952777057 m 2
 499.79230618 562.372777937 501.418317617 578.135779285 503.594052125 601.404208899 c 0
 505.088220749 617.383620609 508.279523288 634.881666315 517.755683183 657.836224869 c 1
 569.518356839 636.467424809 l 1
 561.82092259 617.821559064 560.587820906 609.419619934 559.350832204 596.190623262 c 0
 552.751344466 525.612289642 541.864506834 497.994017198 504.171488432 497.148816913 c 1
 503.543794985 525.141780331 l 1
 498.305038918 552.952777057 l 2
EndSplineSet
Fore
SplineSet
20.97265625 185 m 1x68
 76 192 l 1
 78.1981730918 126.947368421 71.8920581983 94.2877881316 80 89 c 0
 103 74 167.869164336 42 223 42 c 3
 362.64291314 42 422.970269037 108.220026283 435 162 c 4
 452 238 435.416107383 272 278.375976562 337 c 0
 242.326640096 351.921070545 98.1495514066 390.679584494 131 528 c 0
 149.709965379 606.210810811 254.157801593 687 386.67578125 687 c 3
 449.67578125 687 486.18573189 675.644474208 509.211914062 666 c 0
 521.149414062 661 513.57421875 663 526.400390625 681 c 1
 584 665 l 1
 564.985351562 632 560.941077661 615.041320523 559.333007812 596 c 0
 552.239074011 512 538 490 484.71484375 499 c 1
 492.778874368 562.840909091 512 588 497.006835938 605 c 0
 483.248977434 620.599348716 449.533203125 631 392.533203125 631 c 3
 302.532545911 631 202.46574327 584.824756686 184 512 c 0
 161.75257732 424.261146497 267.405508291 404.13651927 350 367 c 0
 499.304335729 299.869090587 508.171469617 235.531939857 489 145 c 0
 474.469964834 76.3859450474 393.932339222 -14 221.673828125 -14 c 3xa8
 173.648633619 -14 115.77345637 2.51282051282 67 32 c 1
 66.6349437905 21.8461538462 63.0687818781 8.76923076923 59.4365234375 -1 c 1
 3.287109375 3 l 1x70
 21.37890625 74 18.228515625 78 20.97265625 185 c 1x68
EndSplineSet
Position2: "cpsp-1" dx=0 dy=0 dh=50 dv=100
Substitution2: "c2pc-1" s.pcap
Substitution2: "c2sc-1" s.smcp
EndChar
StartChar: T
Encoding: 84 84 45
Width: 684
Flags: HMW
AnchorPoint: "Top" 425.525 679 basechar 0
AnchorPoint: "Bottom" 293.49 -17 basechar 0
LayerCount: 2
Back
SplineSet
421 638 m 1
 448.349309518 631.998727727 l 1
 317.349309518 34.9987277272 l 1
 290 41 l 1
 262.650690482 47.0012722728 l 1
 393.650690482 644.001272273 l 1
 421 638 l 1
86.6044632286 581.012978869 m 1
 63.6883724969 597.101881429 l 1
 85.7807716327 628.569001153 109.187652811 664.265357377 129.165994776 693.151424664 c 1
 152.194725523 677.224166263 l 1
 175.22345627 661.296907862 l 1
 155.839860346 633.270765496 132.319136489 597.397042308 109.52055396 564.92407631 c 1
 86.6044632286 581.012978869 l 1
198.380859375 652 m 1
 198.380859375 680 l 1
 328.381448202 680 463.955466161 678 597.956054688 678 c 2
 698.956054688 678 l 1
 698.956054688 650 l 1
 698.956054688 622 l 1
 597.956054688 622 l 2
 463.405952723 622 327.812629448 624 198.380859375 624 c 1
 198.380859375 652 l 1
747.002946258 664.27016903 m 1
 770.707741529 649.367730263 l 1
 752.721871987 620.758228024 734.947943757 589.93035142 724.766686818 558.986333339 c 1
 698.169352491 567.737436507 l 1
 671.572018163 576.488539675 l 1
 684.254663367 615.035057545 704.617351761 649.457704879 723.298150988 679.172607796 c 1
 747.002946258 664.27016903 l 1
409.547992127 23.7494788376 m 1
 404.935020762 -3.86791595593 l 1
 375.984261948 0.967769032152 344.269114684 2 309.267578125 2 c 0
 259.522858109 2 207.717816875 1.27039816844 165.112332958 -5.91755360636 c 1
 160.454291318 21.6922752248 l 1
 155.796249679 49.302104056 l 1
 204.773518181 57.5650367043 259.023943627 58 309.267578125 58 c 0
 345.261727971 58 380.006289331 57.0717757438 414.160963493 51.3668736311 c 1
 409.547992127 23.7494788376 l 1
EndSplineSet
Fore
SplineSet
198.380859375 680 m 0
 328.380859375 680 463.956054688 678 597.956054688 678 c 3
 631.956054688 678 665.956054688 678 698.956054688 678 c 0
 719.956054688 678 730.931640625 692 742.26953125 703 c 1
 784.467773438 671 l 1
 758.965820312 631 727.975585938 584 718.7734375 536 c 1
 662.323242188 546 l 1
 670.462475119 573.992467881 679.61610216 600.323104562 691 623 c 1
 658.82825821 623 521.293578705 623 446.077148438 623 c 1
 413.043945312 472.239130435 376.673864263 301.276863337 342.30078125 148 c 0
 338.560019168 131.319148936 333.664217445 110.512973007 331.310546875 99 c 0
 318.269910047 30.2280701754 314.451945635 74.2599681021 434 43 c 5
 416.9296875 -10 l 5
 388.462557818 -1.81818181818 349.475297654 0 308.267578125 0 c 3
 248.572501434 0 185.881558239 -0.9375 141.8671875 -15 c 1
 145.54296875 45 l 1
 252.358931257 60.2727272727 263.024805964 52.1156745773 266 66 c 0
 285.858955509 154.293029144 337.090538849 387.671910645 367.647460938 526 c 0
 376.683142454 566.903614458 384.16978222 600.795180723 390.290039062 623 c 1
 332.315542027 624 251.03019908 624 183.864257812 624 c 0
 140.645786197 624 156.018822539 632.029411765 96 546 c 1
 44 570 l 1
 75.927734375 612 121.231445312 684 149.095703125 721 c 1
 167.26953125 703 184.380859375 680 198.380859375 680 c 0
EndSplineSet
Position2: "cpsp-1" dx=0 dy=0 dh=50 dv=100
Substitution2: "c2pc-1" t.pcap
Substitution2: "c2sc-1" t.smcp
EndChar
StartChar: U
Encoding: 85 85 53
Width: 775
Flags: W
HStem: -13 88<245.48 475.722> 613 73<110.941 151.465 264.927 332.912 637.351 677.891 760.428 827.637>
AnchorPoint: "Ogonek" 354.291 10 basechar 0
AnchorPoint: "Top" 486.642 699 basechar 0
AnchorPoint: "Bottom" 305.076 -15 basechar 0
LayerCount: 2
Fore
SplineSet
112.788085938 686 m 1
 139.724609375 681 184.299804688 679 230.299804688 679 c 3
 269.299804688 679 308.724609375 681 339.575195312 685 c 1
 332.909179688 616 l 1
 283.633789062 610 270.333984375 618 266.932617188 602 c 0
 263.532226562 586 218.233398438 387 195.11328125 250 c 0
 186.698242188 201 180.557617188 158 202.606445312 130 c 0
 229.166992188 95 276.916015625 75 386.916015625 75 c 3
 405.916015625 75 475.765625 79 529.693359375 121 c 0
 565.432617188 148 584.509765625 186 602.262695312 246 c 0
 629.60546875 337 660.52734375 506 679.720703125 601 c 0
 683.12109375 617 664.05859375 612 621.271484375 613 c 1
 638.788085938 686 l 1
 664.724609375 681 711.662109375 676 752.662109375 676 c 3
 788.662109375 676 822.299804688 679 839 687 c 1
 827.633789062 610 l 1
 785.845703125 611 761.420898438 609 760.358398438 604 c 0
 757.381835938 590 736.450195312 468 685.262695312 246 c 0
 667.470703125 167 631.291992188 105 577.15234375 62 c 0
 514.3125 11 428.2109375 -13 333.2109375 -13 c 3
 217.2109375 -13 142.94921875 14 102.939453125 61 c 0
 69.4423828125 101 68.1953125 161 78.6494140625 229 c 0
 84.513671875 266 154.469726562 581 152.657226562 596 c 0
 152.208007812 608 141.208007812 608 90.271484375 613 c 1
 112.788085938 686 l 1
EndSplineSet
Position2: "cpsp-1" dx=0 dy=0 dh=50 dv=100
Substitution2: "c2pc-1" u.pcap
Substitution2: "c2sc-1" u.smcp
EndChar
StartChar: V
Encoding: 86 86 54
Width: 730
Flags: HW
HStem: -10 21G<134.074 203.739> 602 74<670.508 736.237> 608 77<633.435 672.951 757.231 826.783> 618 71<91.019 129.062>
VStem: 133.107 129.7<304.798 608.904> 136.946 116.41<143 420.256>
AnchorPoint: "Top" 464.525 679 basechar 0
AnchorPoint: "Bottom" 200.36 -15 basechar 0
LayerCount: 2
Back
SplineSet
654.981934568 651.654687802 m 1
 659.009195507 679.363552256 l 1
 682.564611858 675.939961645 708.631329356 676 736.237304688 676 c 0
 757.27937774 676 780.90078814 677.84868829 799.023073884 680.578192141 c 1
 803.19328264 652.890480807 l 1
 807.363491397 625.202769473 l 1
 786.036187609 621.990539038 760.436878854 620 736.237304688 620 c 0
 708.90136848 620 680.199198131 619.695366553 650.954673629 623.945823348 c 1
 654.981934568 651.654687802 l 1
112.858269239 656.342219806 m 1
 117.710553617 683.918574465 l 1
 150.908921093 678.077051106 175.833870051 677 199.450195312 677 c 0
 223.08571416 677 249.010105163 680.122914908 278.511727994 682.720514531 c 1
 280.96760919 654.828425195 l 1
 283.423490386 626.936335859 l 1
 255.167031501 624.448372149 227.826811164 621 199.450195312 621 c 0
 173.99909419 621 144.825727277 622.287131348 108.00598486 628.765865146 c 1
 112.858269239 656.342219806 l 1
178.064453125 622.516601562 m 1
 206.06307602 622.794299258 l 1
 207.663150407 461.468223893 210.856756656 225.818165878 209.568402323 94.7625185782 c 1
 221.817320326 109.912311292 233.974184062 124.204647088 246.617970338 138.983078595 c 0
 364.118253235 272.352584085 597.417190939 540.232094829 699.241387568 639.403301189 c 1
 718.77734375 619.344726562 l 1
 738.313299932 599.286151936 l 1
 640.574179195 504.093586387 405.525627089 234.639390378 288.905467162 102.26887453 c 0
 260.989346179 69.6396863352 233.309223254 36.6496603611 211.853646027 3.55093119178 c 2
 203.959883023 -8.62648641005 l 1
 189.459003548 -9.19700220752 l 1
 180.222837557 -9.56038558821 l 1
 148.864924808 -10.7941165926 l 1
 151.199666788 20.5010869385 l 2
 151.918895555 30.141728548 152.548693977 37.4261054283 152.954444374 55.3410331562 c 0
 155.597382769 172.033587789 151.847716472 442.5818102 150.06583023 622.238903867 c 1
 178.064453125 622.516601562 l 1
EndSplineSet
Fore
SplineSet
286.150390625 685 m 1xa8
 292.208007812 629 l 1
 262.660080571 625 221.806744982 621.916107127 212.99609375 620 c 0
 204.650250847 617.689005426 204.507812499 613 205.807617188 605 c 1xa8
 207.464428423 478.348115299 210.42835797 134.578713969 210.356445312 95 c 1
 283 185 608 550 672.745117188 611 c 1
 677.232421873 616.923076923 675.484438534 621.577790799 670.5078125 622 c 0xc4
 658.720703125 623 629.145507812 625 615.783203125 628 c 1
 634.150390625 685 l 1xa4
 661.237304688 676 698.237304688 676 736.237304688 676 c 3xc4
 767.617773971 676 801.595613178 680.230769231 820 687 c 1x94
 818.783203125 627 l 1
 771.833456389 617.846153846 761.90251761 623.153846154 749.256835938 610 c 1
 707.781067361 573.126195029 375 208 253.647460938 59 c 0
 234.164779849 35.0786259221 218.052734375 14 203.739257812 -9 c 1
 150.315429688 -10 l 1
 149.833007811 18 152.989160981 19.9910666597 152.946289062 55 c 0xa4
 152.799687679 174.713747646 154.37588184 418.313957405 150.107421875 603 c 0
 149.32790633 631.6875 151.670112664 617.875 74.9091796875 637 c 5
 95 691 l 5x98
 133.847294849 679.333333333 165.174474015 677 191.450195312 677 c 3
 218.457562192 677 245.519379408 682 286.150390625 685 c 1xa8
EndSplineSet
Position2: "cpsp-1" dx=0 dy=0 dh=50 dv=100
Substitution2: "c2pc-1" v.pcap
Substitution2: "c2sc-1" v.smcp
EndChar
StartChar: W
Encoding: 87 87 55
Width: 992
Flags: HW
HStem: -8 20G<127.129 195.739 506.044 573.835> 616 74<264.846 316.631 474.862 503.127 640.172 686.517 854.215 921.854> 672 20G<81.8567 98.1987>
VStem: 136.854 114.949<151 590.799> 509.258 120.608<175 349.212> 516.425 119.325<178.621 378 431.275 598.489>
AnchorPoint: "Top" 587.525 679 basechar 0
AnchorPoint: "Bottom" 360.866 -15 basechar 0
LayerCount: 2
Back
SplineSet
567 632 m 1
 594.999315395 631.804200592 l 1
 590.999315395 59.8042005916 l 1
 563 60 l 1
 535.000684605 60.1957994084 l 1
 539.000684605 632.195799408 l 1
 567 632 l 1
182 632 m 1
 210 632 l 1
 210 68 l 1
 182 68 l 1
 154 68 l 1
 154 632 l 1
 182 632 l 1
106.998597059 656.211760643 m 1
 112.981961063 683.564993636 l 1
 136.906660404 678.331601851 166.53959564 676 197.966796875 676 c 0
 228.542487051 676 261.958522565 680.66134164 286.39152533 684.769595069 c 1
 291.034372097 657.157207018 l 1
 295.677218864 629.544818966 l 1
 269.880828779 625.207320664 233.941788139 620 197.966796875 620 c 0
 163.864344532 620 130.736109675 622.35725508 101.015233054 628.85852765 c 1
 106.998597059 656.211760643 l 1
555 462 m 1
 576.256694908 443.774936993 l 1
 350.900374286 180.931919593 251.016863677 67.9778177399 205.593479448 3.82057405464 c 1
 182.741210938 20 l 1
 159.888942427 36.1794259454 l 1
 209.213761112 105.847163517 308.280025822 217.257295016 533.743305092 480.225063007 c 1
 555 462 l 1
498.524243816 653.344667294 m 1
 502.400845217 681.075010991 l 1
 526.038537835 677.770547356 552.091623361 676 577.966796875 676 c 0
 603.875755064 676 631.602739793 678.025532708 654.961908177 681.605141425 c 1
 659.203177608 653.92822625 l 1
 663.44444704 626.251311075 l 1
 636.763092424 622.162603464 606.735962278 620 577.966796875 620 c 0
 549.556831524 620 521.121918793 621.913315847 494.647642415 625.614323596 c 1
 498.524243816 653.344667294 l 1
876.809774512 653.689323006 m 1
 879.99226136 681.507873965 l 1
 906.765408296 678.444983014 934.353731516 677 967.178710938 677 c 0
 999.99330226 677 1037.6606785 679.523038765 1073.51733123 684.529153704 c 1
 1077.38899056 656.798119573 l 1
 1081.2606499 629.067085442 l 1
 1042.66695907 623.678839814 1002.80981359 621 967.178710938 621 c 0
 932.719868711 621 902.778632089 622.535811488 873.627287663 625.870772047 c 1
 876.809774512 653.689323006 l 1
1009 630 m 1
 1031.63856369 613.522881507 l 1
 809.672794141 308.555346425 724.352932461 205.216047753 609.319546204 43.6716915918 c 0
 594.78253967 23.2569977584 591.990647487 18.2614153114 581.853806278 4.6641871915 c 1
 559.405496203 21.3995800701 l 1
 536.957186129 38.1349729487 l 1
 545.611116237 49.743072492 548.396651547 54.659366652 563.703048858 76.154535831 c 0
 680.037930477 239.526615552 764.958441288 342.282801569 986.361436305 646.477118493 c 1
 1009 630 l 1
EndSplineSet
Fore
SplineSet
1106.94238281 690 m 1xd8
 1103.91308594 635 l 1
 1028.78111874 619.15625 1044.95590145 633.96875 997 566 c 1
 791.76511033 292.230113636 713.082129912 189.547548779 609.549804688 44 c 0
 591.605721478 18.773894813 591.66796875 17.5849609375 573.834960938 -6 c 1
 529.775390625 -9 l 1
 532.311523438 11 533.561357073 31.6618297269 534.2578125 66 c 0xd8
 536.515903238 189 536.735069199 314.365384615 538.424804688 435 c 1
 369.646544127 228.5 219.612661724 31.8970509058 212.666015625 22 c 0
 201.685546875 7.681640625 201.348632812 4.9541015625 190.12890625 -8 c 1
 144.12890625 -8 l 1
 147.279296875 31 153.823602281 36.8113093498 153.853515625 113 c 0
 153.897489271 225 153.889112622 483.936637091 153.86328125 563 c 0
 153.859323257 575.11442531 155.276973017 611.170623816 147.752929688 617 c 0
 139.088413544 623.712976234 105.664716626 626.5 73 638 c 1
 86.3671875 692 l 1xb4
 110.029296875 681 152.966796875 676 197.966796875 676 c 3
 241.966796875 676 287.87890625 685 315.942382812 690 c 1
 323.212890625 636 l 1
 244.551055564 618.491827648 223.870365367 623.736245569 214.634765625 611 c 0
 210.883985259 605.827530302 209.438526917 589.609130859 209.513671875 570 c 1
 209.451635631 507.833196599 209.561188998 168.1668034 209.802734375 106 c 1
 228.449213844 130.705398202 528.200399348 510.01350857 538 526 c 1
 540.047334505 607.960128108 541.120222223 612.568312173 532 618 c 0
 525.64453125 623.389648438 493.002929688 625.75 462.212890625 632 c 1
 476.091796875 686 l 1
 499.81640625 680 540.966796875 676 577.966796875 676 c 3
 615.966796875 676 655.81640625 680 686.516601562 688 c 1
 688 632 l 1
 671.549959306 628.333333333 646.816633663 624.000845618 620.724609375 621 c 0
 601.552538428 618.795018721 592.987304688 603.413793103 594.75 591 c 1xd4
 595.302697095 509.311617338 592.161410788 165.157311073 591 115 c 1
 711.686594702 277.499178686 864.317647828 475.765135238 953 602 c 0
 971.876652187 628.869964289 964.18611428 614.542372881 844.086914062 631 c 1
 855.87890625 685 l 1
 883.81640625 680 923.178710938 677 967.178710938 677 c 3
 1010.17871094 677 1059.02929688 681 1106.94238281 690 c 1xd8
EndSplineSet
Position2: "cpsp-1" dx=0 dy=0 dh=50 dv=100
Substitution2: "c2pc-1" w.pcap
Substitution2: "c2sc-1" w.smcp
EndChar
StartChar: X
Encoding: 88 88 56
Width: 723
Flags: W
HStem: -9 70<168.811 201.513 408.515 460.405 595.649 637.949> 0 67<167.287 200.435> 613 66<231.3 309.271 540.562 554.809> 621 62<123.15 171.319 307.837 344.972 540.613 558.581 655.625 736.759>
AnchorPoint: "Top" 451.525 679 basechar 0
AnchorPoint: "Bottom" 338.661 -15 basechar 0
LayerCount: 2
Fore
SplineSet
123.149414062 683 m 1x50
 168.724609375 681 204.299804688 679 231.299804688 679 c 3x20
 269.299804688 679 299.724609375 681 356.212890625 688 c 1
 344.971679688 621 l 1x10
 333.12109375 617 323.908203125 616 309.270507812 613 c 0
 307.270507812 613 305.294921875 599 306.083007812 598 c 1
 307.083007812 598 402.184570312 415 403.759765625 413 c 1
 422.6484375 436 525.155273438 556 554.807617188 592 c 0
 560.083007812 598 564.783203125 606 558.995117188 607 c 1
 550.420898438 609 524.845703125 611 517.758789062 620 c 1
 541.362304688 684 l 1
 566.299804688 679 589.875 677 614.875 677 c 3
 655.875 677 697.512695312 680 745 687 c 1
 736.758789062 620 l 1
 675.6328125 610 662.05859375 612 623.768554688 573 c 0
 614.85546875 564 592.904296875 536 431.194335938 368 c 1
 447.818359375 338 570.905273438 122 582.442382812 101 c 1
 600.065429688 71 608.852539062 70 663.939453125 61 c 1
 635.060546875 -9 l 1xa0
 608.548828125 -2 575.973632812 0 540.973632812 0 c 3
 490.973632812 0 438.973632812 0 399.2734375 -8 c 1
 408.514648438 59 l 1
 422.365234375 63 438.365234375 63 447.577148438 64 c 0
 465.427734375 68 464.703125 74 460.403320312 82 c 0
 405.059570312 198 368.064453125 278 359.103515625 297 c 1
 293.436523438 228 207.54296875 125 167.340820312 77 c 1
 166.127929688 76 169.21484375 67 175.21484375 67 c 0
 186.002929688 66 206.21484375 67 216.15234375 62 c 1
 199.911132812 -5 l 1
 156.760742188 -1 120.973632812 0 84.9736328125 0 c 3
 51.9736328125 0 18.9736328125 0 -21.513671875 -7 c 1
 -11.3359375 55 l 1
 32.365234375 63 52.640625 69 85.1669921875 95 c 0
 93.654296875 102 132.432617188 148 328.66796875 342 c 1
 191.768554688 573 181.4453125 595 171.995117188 607 c 0
 157.758789062 620 131.908203125 616 108.971679688 621 c 1
 123.149414062 683 l 1x50
EndSplineSet
Position2: "cpsp-1" dx=0 dy=0 dh=50 dv=100
Substitution2: "c2pc-1" x.pcap
Substitution2: "c2sc-1" x.smcp
EndChar
StartChar: Y
Encoding: 89 89 57
Width: 674
Flags: HW
HStem: -6 72<157.515 264.493 380.259 450.252> 604 74<268.656 312.854 660.258 737.512> 611 75<268.749 313.725 558.944 575.41 668.265 737.512>
AnchorPoint: "Top" 441.525 679 basechar 0
AnchorPoint: "Bottom" 306.909 -15 basechar 0
LayerCount: 2
Back
SplineSet
649 633 m 1
 670.585076833 615.165077569 l 1
 378.088432538 261.165077569 l 1
 356.503355705 279 l 1
 334.918278872 296.834922431 l 1
 627.414923167 650.834922431 l 1
 649 633 l 1
194 637 m 1
 219.496265397 648.573264483 l 1
 381.999621102 290.573264483 l 1
 385.625051683 282.586326967 l 1
 384.045732778 273.95842632 l 1
 341.944720823 43.95842632 l 1
 314.40234375 49 l 1
 286.859966677 54.04157368 l 1
 327.381659726 275.413673033 l 1
 168.503734603 625.426735517 l 1
 194 637 l 1
125.97219012 656.404599713 m 1
 129.030293998 684.237098714 l 1
 159.362088332 680.904384038 194.599361475 678 228.965820312 678 c 0
 249.020015501 678 270.324373071 678.81590028 286.724581351 680.42032441 c 1
 289.450792584 652.5533588 l 1
 292.177003817 624.68639319 l 1
 273.097272523 622.819832671 250.518330596 622 228.965820312 622 c 0
 191.50143863 622 154.411810254 625.111279175 122.914086241 628.572100711 c 1
 125.97219012 656.404599713 l 1
580.090365276 655.50896122 m 1
 584.487193195 683.161590467 l 1
 606.888058418 679.599804398 632.808141425 677 661.752929688 677 c 0
 676.818284615 677 695.470153441 678.762867603 708.709764488 680.876968828 c 1
 713.124871518 653.227252194 l 1
 717.539978547 625.577535561 l 1
 701.309737964 622.985890581 680.844643342 621 661.752929688 621 c 0
 629.451957273 621 600.541272022 623.905488366 575.693537357 627.856331973 c 1
 580.090365276 655.50896122 l 1
430.183778973 24.0955049046 m 1
 427.799445973 -3.80279174851 l 1
 382.273361715 0.0881033265281 341.259622756 0 298.852539062 0 c 0
 263.399664708 0 225.939427139 -0.183559484688 188.406518009 -5.46249130527 c 1
 184.506755044 22.2646046266 l 1
 180.606992079 49.9917005584 l 1
 222.972436044 55.9503191528 263.267847093 56 298.852539062 56 c 0
 341.118991497 56 384.103927895 56.1358018685 432.568111973 51.9938015577 c 1
 430.183778973 24.0955049046 l 1
EndSplineSet
Fore
SplineSet
305.724609375 627 m 1xa0
 273.863765715 622.714285714 265.891102165 622 247.236328125 622 c 0
 232.236328125 622 232.8984375 619 236.685546875 610 c 1
 291.927162394 488.62295082 344.387493331 374.459016393 363 330 c 1
 425.340817091 405.658536585 597.360417626 617.731707317 596.111328125 612 c 1
 601.173828126 617 605.58827003 623.346096471 593.874023438 625 c 0
 583.553914009 626.666666667 565.628104298 630.303030303 555.149414062 635 c 1
 570.091796875 687 l 1
 588.06724405 682.454545455 623.884302105 677 661.752929688 677 c 3
 690.752929688 677 721.81640625 682 744.303710938 689 c 1
 743.51171875 633 l 1
 701.695873982 618 682.945965822 626 669.260742188 613 c 1
 588 515 470 374 381 263 c 1
 374.9285949 222.448275862 370.463148938 199.121235426 346 67 c 0
 342.851077362 49.9932135807 361.300422478 60.9282296651 453 49 c 1
 439.577148438 -5 l 1
 391.284268597 0 344.601576913 0 298.852539062 0 c 3
 260.220258263 0 220.729482335 0 177.514648438 -8 c 1
 175.243164062 48 l 1
 270.88153772 64.9161290323 285.041615746 48.3064516129 289 67 c 1
 289.728586142 70.6882352941 326.128883675 272.311764706 328 276 c 1
 312.361809756 310.614678899 236.426187369 475.394495413 171.000976562 619 c 1
 167.462218261 628.512820513 166.610725398 619.933333333 99 633 c 1
 115.87890625 686 l 1
 144.497635852 682.444444444 188.540530129 678 228.965820312 678 c 3xc0
 259.385677396 678 288.436471157 679.75 308.666015625 685 c 1
 305.724609375 627 l 1xa0
EndSplineSet
Position2: "cpsp-1" dx=0 dy=0 dh=50 dv=100
Substitution2: "c2pc-1" y.pcap
Substitution2: "c2sc-1" y.smcp
EndChar
StartChar: Z
Encoding: 90 90 58
Width: 693
Flags: W
HStem: 0 67<156.316 520.314> 610 66.0352<218.059 573.734>
AnchorPoint: "Top" 437.525 679 basechar 0
AnchorPoint: "Bottom" 300.997 -15 basechar 0
LayerCount: 2
Fore
SplineSet
78.5634765625 548 m 1
 122.8046875 615 143.573242188 708 201.911132812 719 c 1
 214.872070312 700 232.62109375 680 234.62109375 680 c 0
 268.678710938 679.287109375 446.958007812 676.03515625 581.725585938 676.03515625 c 3
 644.012695312 676.03515625 687.540039062 678 723.196289062 678 c 1
 740.90625 639 l 1
 741.90625 639 734.630859375 633 733.630859375 633 c 0
 727.418945312 632 164.749023438 69 156.32421875 67 c 1
 252.32421875 67 363.930664062 70 427.961914062 70 c 3
 533.004882812 70 550.637695312 92 596.91796875 178 c 1
 652.966796875 150 l 1
 596.048828125 61 572.271484375 15 531.706054688 -30 c 1
 503.745117188 -11 505.530273438 2 417.5078125 2 c 3
 301.490234375 2 49.720703125 3 -13.9169921875 0 c 1
 -22.6513671875 53 l 1
 23.8125 74 61.4013671875 105 99.416015625 138 c 1
 252.44921875 284 417.008789062 456 569.892578125 606 c 1
 573.7421875 610 l 1
 550.892578125 606 222.892578125 606 211.6796875 605 c 1
 190.955078125 611 180.404296875 599 135.3125 528 c 1
 78.5634765625 548 l 1
EndSplineSet
Position2: "cpsp-1" dx=0 dy=0 dh=50 dv=100
Substitution2: "c2pc-1" z.pcap
Substitution2: "c2sc-1" z.smcp
EndChar
StartChar: asciicircum
Encoding: 94 94 872
Width: 533
Flags: HW
HStem: 374 322
LayerCount: 2
Back
SplineSet
90.3767010069 411.30590851 m 1
 67.0185641168 426.746032895 l 1
 236.697709339 683.440124385 l 1
 245 696 l 1
 260.055846229 696 l 1
 272.986636371 696 l 1
 288 696 l 1
 296.308341155 683.495098772 l 1
 466.742369672 426.974494626 l 1
 443.420664888 411.479395854 l 1
 420.098960104 395.984297082 l 1
 266.564398738 627.06947873 l 1
 113.734837897 395.865784125 l 1
 90.3767010069 411.30590851 l 1
EndSplineSet
Fore
SplineSet
484 401 m 1
 435 374 l 1
 267 627 l 1
 99 374 l 1
 50 401 l 1
 245 696 l 1
 288 696 l 1
 484 401 l 1
EndSplineSet
EndChar
StartChar: a
Encoding: 97 97 0
Width: 493
VWidth: 1159
Flags: HMW
HStem: -10 97<93.7758 184.366 308.717 393.122> 485 20G<378.301 444.348>
VStem: 18.139 97.9414<96.1415 221.174>
AnchorPoint: "Top" 336.08 537 basechar 0
AnchorPoint: "Ogonek" 387.446 23 basechar 0
AnchorPoint: "Bottom" 199.273 -15 basechar 0
LayerCount: 2
Fore
SplineSet
367.540039062 426 m 1
 364.47265625 427 359.27734375 428 356.540039062 428 c 3
 335.024414062 428 268.744140625 409.716796875 214.540039062 371 c 0
 130.540039062 311 72.5400390625 187.006835938 72.5400390625 118 c 3
 72.5400390625 80.427734375 91.3388671875 47 117.540039062 47 c 3
 148.5703125 47 244.897460938 134.143554688 293.540039062 165 c 0
 307.831054688 174.065429688 308.986328125 194.521484375 329.540039062 285 c 0
 344.561523438 351.123046875 373.595703125 423.025390625 367.540039062 426 c 1
361.518554688 174.03125 m 0
 351.17578125 126.68359375 343.447265625 76.3037109375 343.540039062 66 c 0
 343.680664062 50.595703125 344.424804688 46 345.540039062 46 c 3
 355.317382812 46 414.677734375 99.3330078125 433.540039062 126 c 1
 473 83.2978515625 l 1
 440.698242188 47.2744140625 391.911132812 -11 338.61328125 -11 c 3
 304.424804688 -11 287.66015625 28.158203125 287.66015625 57.82421875 c 3
 287.66015625 68.5556640625 288.513671875 81.1669921875 290.540039062 95 c 1
 227.551757812 35.65234375 158.629882812 -10 115.872070312 -10 c 3
 59.9775390625 -10 16.5986328125 48.7734375 16.5986328125 119.466796875 c 3
 16.5986328125 198.615234375 64.4111328125 281.362304688 99.3447265625 333.094726562 c 0
 129.600585938 377.8984375 174.448242188 413.536132812 199.891601562 428.67578125 c 0
 248.669921875 457.700195312 292.682617188 476.771484375 367.540039062 486 c 0
 384.509765625 488.091796875 393.807617188 494.717773438 406.760742188 502.541015625 c 1
 460.075195312 505 l 1
 415.540039062 398 383.2265625 273.400390625 361.518554688 174.03125 c 0
EndSplineSet
Substitution2: "pcap-1" a.pcap
Substitution2: "smcp-1" a.smcp
EndChar
StartChar: b
Encoding: 98 98 1
Width: 478
VWidth: 1159
Flags: HMW
HStem: -9 58<106.435 219.908> 347 56<232.967 313.336>
VStem: 336.159 70.1571<192.971 323.898>
AnchorPoint: "Top" 353.664 749 basechar 0
AnchorPoint: "Bottom" 180.632 -15 basechar 0
LayerCount: 2
Fore
SplineSet
133 310 m 1
 110.927767425 221.877214567 94.1953037665 154.736712599 74 82 c 1
 74.7023186239 73.5 75.3129302945 69.6870697055 80 65 c 0
 93 52 103.948746363 47 125.543945312 47 c 3
 227.65206621 47 405.639759472 198.996050683 404 365 c 0
 403.601341635 405.358884424 378.50974484 435 349 435 c 3
 282.044752113 435 183.302514508 364.57794972 133 310 c 1
167 736 m 1
 172.920615248 742.872727273 187.066315924 748.436363636 201.211914062 754 c 1
 212.640183356 750.338028169 219.026500925 745.577464789 225 741 c 1
 220 712 198 606 154 406 c 1
 179.934640166 428.261569783 268.467292781 491 351 491 c 3
 412.227108428 491 457.030245741 434.751118978 459.834960938 367.098632812 c 0
 467.356519629 185.671247282 275.088485466 -9 127.173828125 -9 c 3
 77.3429605238 -9 57.9588652373 15.2554928832 47 17 c 0
 35.3440819546 18.85546875 20.8697884061 17 16.044921875 18 c 1
 -0.9560546875 32 l 1
 44.948295276 163.101089844 109.740660559 459.951411892 125.896484375 539 c 0
 133.934682759 578.329101562 146.898048731 632.478437014 152 659 c 0
 158.292676406 691.711936581 162 710.395117188 167 736 c 1
EndSplineSet
Substitution2: "pcap-1" b.pcap
Substitution2: "smcp-1" b.smcp
EndChar
StartChar: c
Encoding: 99 99 2
Width: 417
VWidth: 1159
Flags: HMW
HStem: -15 53<138.182 225.442> 359 63<200.827 292.797>
VStem: 31.8294 74.9532<71.9391 229.688>
AnchorPoint: "Top" 304.16 537 basechar 0
AnchorPoint: "Bottom" 175.475 -15 basechar 0
LayerCount: 2
Fore
SplineSet
370 394 m 1
 359.961941961 425.240234374 340.352277145 451 298.64453125 451 c 3
 218.873363668 451 79.9005854397 315.308639435 87 159 c 0
 90.209888133 88.3275181299 120.833333332 49 174 49 c 3
 221.130561608 49 269.183165253 84.428571428 297 111 c 1
 332.799803339 68.3551401869 l 1
 304.441547528 38.8683462007 238.571668838 -7 175.73431717 -7 c 3
 119.70955196 -7 36.4830195477 30.8229485395 31.2987816565 154.107062208 c 0
 23.7040924846 334.713072734 170.967132814 507 299.576471528 507 c 3
 353.790764051 507 400.213146654 472.643640777 413.839409716 434.00616679 c 1
 409.574584619 420.897789652 398.341193147 403.622399447 370 394 c 1
EndSplineSet
Substitution2: "pcap-1" c.pcap
Substitution2: "smcp-1" c.smcp
EndChar
StartChar: d
Encoding: 100 100 3
Width: 513
VWidth: 1159
Flags: HMW
HStem: -23 54<298.822 376.072> -9 55<98.5204 210.855> 357 50<189.897 290.349> 659 30<326.365 371.47> 748 20G<470.065 509.065>
VStem: 31.1863 69.6452<81.7189 228.754>
AnchorPoint: "TopRight" 585.879 581 basechar 0
AnchorPoint: "Top" 350.005 734 basechar 0
AnchorPoint: "Bottom" 210.018 -15 basechar 0
LayerCount: 2
Fore
SplineSet
307 84 m 1xbc
 256.474618194 39.1470802437 190.789589359 -9 133.899414062 -9 c 3x7c
 65.183062901 -9 21.7086245988 49.6956936011 17.8408203125 132.672851562 c 0
 11.1384173912 276.461498751 174.829101562 485 351 485 c 3
 365.963235294 485 391.481638391 478.205791765 406 462 c 1
 425.060284005 540.079892883 447.792164064 640.496452452 447 649 c 0
 445.993374114 659.805704868 442.632153754 663 439 663 c 3
 432.313778277 663 404.223094039 655.803941225 374 653 c 1
 371.0625 708.481445312 l 1
 412.20998905 716.768839003 467.730552786 742.384419502 503.284179688 768 c 1
 522.814453125 750 l 1
 518.979501088 702.236850351 450.330234731 372.025550394 380.662109375 154.552734375 c 0
 372.476207642 129 359.532077576 63.9708525788 360 55 c 0
 360.172622109 51.6905465278 361.574224106 49 365 49 c 3
 373.472276573 49 421.193879646 73.5 453 112 c 1
 488.251953125 69 l 1
 452.86574959 27 392.109543959 -11 353.909179688 -11 c 3
 319.779923042 -11 303.654085363 9.7798885037 303.044921875 40.1328125 c 0
 302.767631827 53.9494051418 303.571439 68.6072950271 307 84 c 1xbc
351 429 m 3
 223 429 74.1805902605 262.237832563 74.171875 137.091796875 c 0
 74.1684412028 87.7844806908 96.6332622041 47 131 47 c 3
 189.309756238 47 326.336273384 168 337 202 c 0
 352.209960938 250.495117187 383.200958451 360.154205249 388 390 c 0
 389.335497718 398.305614856 363.384765625 429 351 429 c 3
EndSplineSet
Substitution2: "pcap-1" d.pcap
Substitution2: "smcp-1" d.smcp
EndChar
StartChar: e
Encoding: 101 101 4
Width: 447
VWidth: 1159
Flags: HMW
HStem: -15 51<134.023 228.542> 367 54<185.054 256.389>
VStem: 36.0347 71.9619<61.4685 197.627> 273.505 60<289.245 349.853>
AnchorPoint: "Top" 272.504 537 basechar 0
AnchorPoint: "Ogonek" 286.606 26 basechar 0
AnchorPoint: "Bottom" 180.006 -15 basechar 0
LayerCount: 2
Back
SplineSet
95.45703125 199.553710938 m 2
 94.48828125 189.563476562 93.984375 179.333984375 94.0009765625 168.8671875 c 0
 94.0068359375 164.708007812 94.0947265625 160.514648438 94.267578125 156.288085938 c 0
 97.32421875 81.3212890625 130.297851562 46 181.197265625 46 c 0
 233.057617188 46 277.778320312 71.3896484375 313.73828125 105.3671875 c 1
 352.198242188 64.662109375 l 1
 310.000976562 24.79296875 252.205078125 -10 181.197265625 -10 c 0
 92.1513671875 -10 42.05078125 62.37890625 38.3134765625 154.005859375 c 0
 38.111328125 158.966796875 38.0078125 163.891601562 38.0009765625 168.780273438 c 0
 37.966796875 190.579101562 39.8515625 211.583984375 43.3076171875 231.674804688 c 0
 71.2919921875 394.370117188 200.354492188 505 265.78515625 505 c 0
 329.94921875 505 393.354492188 434.12109375 399.637695312 364.138671875 c 0
 401.541015625 342.93359375 400.901367188 327.25390625 401.041992188 319.783203125 c 1
 434.036132812 291.268554688 l 1
 386.4453125 275.654296875 l 2
 322.079101562 254.537109375 230.96875 224.739257812 143.073242188 198.658203125 c 2
 123.37109375 192.8125 l 1
 107.44140625 246.498046875 l 1
 127.143554688 252.344726562 l 2
 203.889648438 275.1171875 281.719726562 300.296875 345.014648438 321.0078125 c 1
 344.9296875 330.200195312 345.333984375 342.724609375 343.861328125 359.131835938 c 0
 339.779296875 404.60546875 289.990234375 449 265.78515625 449 c 0
 247.859375 449 136.166992188 376.303710938 103.3125 245.015625 c 0
 103.069335938 244.045898438 95.45703125 199.553710938 95.45703125 199.553710938 c 2
EndSplineSet
Fore
SplineSet
265.373046875 505 m 3
 328.0859375 505 394.258789062 434.006835938 399.3125 361.809570312 c 0
 399.620117188 353.009765625 402 341.06640625 408 337.922851562 c 1
 404.020507812 281.556640625 l 1
 328.465820312 257.049804688 207.83203125 217.6953125 93 184 c 1
 92.9189453125 178.940429688 92.4794921875 174.314453125 92.8427734375 166.341796875 c 0
 96.3681640625 88.98828125 122.850585938 46 182 46 c 3
 240.060546875 46 289.918945312 77.3955078125 331.50390625 124 c 1
 372.50390625 86 l 1
 330.182617188 38.640625 264.479492188 -10 180.78515625 -10 c 3
 91.357421875 -10 41.6455078125 62.21484375 37.9013671875 154.005859375 c 0
 29.48828125 360.290039062 192.547851562 505 265.373046875 505 c 3
266 449 m 3
 240.974609375 449 128 363 103 245 c 1
 153.625976562 258.237304688 313.284179688 308.84765625 338 319 c 0
 344.372070312 321.661132812 345.48828125 328.529296875 344.838867188 335.170898438 c 1
 349.053710938 402.551757812 287.48828125 449 266 449 c 3
EndSplineSet
Substitution2: "pcap-1" e.pcap
Substitution2: "smcp-1" e.smcp
EndChar
StartChar: f
Encoding: 102 102 5
Width: 387
VWidth: 1159
Flags: HMW
HStem: -326 36<-129.616 -88.9902> 341 42<188.488 326.356> 697 57<343.417 433.04>
AnchorPoint: "Top" 263.674 748 basechar 0
AnchorPoint: "Bottom" 127.202 -204 basechar 0
LayerCount: 2
Back
SplineSet
-5.7822265625 -133.723632812 m 1
 -19.1025390625 -109.094726562 l 1
 -10.9765625 -104.700195312 3.92578125 -88.5078125 21.4921875 -60.595703125 c 0
 66.3515625 10.681640625 105.896484375 197.814453125 130.689453125 328.412109375 c 0
 137.022460938 361.76953125 148.876953125 421.173828125 153.911132812 448.000976562 c 0
 183.376953125 615.991210938 237.692382812 676.038085938 295.40625 711.939453125 c 0
 336.41015625 737.446289062 387.12109375 754 452.345703125 754 c 0
 484.522460938 754 550.279296875 737.15234375 588.817382812 719.325195312 c 1
 577.061523438 693.912109375 l 1
 565.305664062 668.499023438 l 1
 537.294921875 681.45703125 467.447265625 698 452.345703125 698 c 0
 396.537109375 698 357.612304688 684.684570312 324.986328125 664.388671875 c 0
 280.598632812 636.77734375 237.078125 598.008789062 209.01171875 437.999023438 c 0
 203.712890625 409.76171875 191.999023438 351.111328125 185.70703125 317.966796875 c 0
 160.700195312 186.248046875 124.750976562 -1.66015625 68.88671875 -90.423828125 c 0
 50.3212890625 -119.922851562 32.5771484375 -144.810546875 7.5380859375 -158.352539062 c 1
 -5.7822265625 -133.723632812 l 1
80.44921875 362.55859375 m 1
 78.7822265625 390.509765625 l 1
 203.454101562 397.944335938 246.2421875 399.981445312 366.694335938 408.490234375 c 1
 368.66796875 380.560546875 l 1
 370.641601562 352.629882812 l 1
 249.828125 344.094726562 206.506835938 342.02734375 82.1162109375 334.608398438 c 1
 80.44921875 362.55859375 l 1
EndSplineSet
Fore
SplineSet
440.883789062 754 m 3
 491.743164062 754 575.321289062 730.708007812 603 711 c 1
 601.788085938 688.049804688 599.606445312 682.100585938 587 660 c 1
 539.32421875 677.412109375 489 698 440 698 c 3
 306.86328125 698 240.901367188 592.514648438 223 504 c 0
 221.237304688 495.283203125 207.734375 436.813476562 200.794921875 397 c 1
 227.556640625 397.786132812 340.420898438 407.213867188 367.182617188 408 c 1
 365.528320312 352 l 1
 339.026367188 349.833007812 216.15234375 342.166992188 189.649414062 341 c 1
 143 101 122.536132812 26.53515625 88.4765625 -53 c 0
 66.7314453125 -103.778320312 31.4326171875 -145.57421875 -6.6728515625 -171 c 1
 -10.6611328125 -171 -10.2626953125 -171 -27.013671875 -171 c 3
 -35.6171875 -171 -48.7275390625 -173.400390625 -53.64453125 -174 c 1
 -59.4619140625 -119 l 1
 -19.4775390625 -115.315429688 -10.65625 -111.966796875 22.4111328125 -60 c 0
 66.837890625 9.8193359375 104.408203125 204.481445312 132.345703125 338 c 1
 106.543945312 337.375 81.86328125 333.5 56.0615234375 333 c 1
 51.87890625 388 l 1
 81.6513671875 389 112.71875 392.5 142.491210938 394 c 1
 150.16015625 431.984375 160.223632812 484.723632812 162.088867188 494 c 0
 183 598 230.439453125 675.734375 302.803710938 717 c 0
 339.022460938 737.654296875 382.583984375 754 440.883789062 754 c 3
EndSplineSet
Substitution2: "salt-1" f.alt
Substitution2: "pcap-1" f.pcap
Substitution2: "smcp-1" f.smcp
EndChar
StartChar: g
Encoding: 103 103 6
Width: 492
VWidth: 1159
Flags: HMW
HStem: -337 64<20.3914 156.022> 325 55<349.705 429.963> 378 38<170.55 260.831>
AnchorPoint: "Top" 305.08 537 basechar 0
AnchorPoint: "Bottom" 232.233 -225 basechar 0
LayerCount: 2
Back
SplineSet
131 114 m 1
 137.538085938 102.666992188 150.615234375 80 216 80 c 3
 252.701171875 80 288.290039062 92 335 92 c 3
 420.647460938 92 463 34.0810546875 463 -22 c 3
 463 -128.624023438 267 -177 183 -177 c 3
 72 -177 22 -111 22 -59 c 3
 22 6.8603515625 72.392578125 47.1826171875 100 66 c 1
 70.638671875 87.767578125 59.8720703125 113.720703125 54 138 c 1
 88.056640625 151.713867188 96.1591796875 163.857421875 165 170 c 1
 84.54296875 193.67578125 37 249.549804688 37 313 c 3
 37 435 154 514 230 514 c 3
 272.482421875 514 313.875 504 352 486 c 1
 375.450195312 488 394.712890625 487 419 487 c 3
 447.983398438 487 453.466796875 486 466 486 c 1
 465.454101562 480.76171875 462 431 462 431 c 1
 445 431 430.331054688 428.278320312 414 431 c 0
 408 432 404 431 399 431 c 1
 420 404.103515625 434 357.389648438 434 322 c 3
 434 225.979492188 339.548828125 167.819335938 264 142 c 0
 212.301757812 124.33203125 145.77734375 117.818359375 131 114 c 1
231 458 m 3
 178.216796875 458 93 396.286132812 93 314 c 3
 93 242.352539062 212 194 251 198 c 1
 304.622070312 217.155273438 378 252 378 321 c 3
 378 366.341796875 343.982421875 458 231 458 c 3
78 -58 m 3
 78 -86.25 109.993164062 -121 184 -121 c 3
 279.171875 -121 407 -68.23046875 407 -25 c 3
 407 18.3779296875 377.5 36 336 36 c 3
 291.25390625 36 277.559570312 24 216 24 c 3
 193.456054688 24 159.102539062 32 143 34 c 1
 93.7578125 4.1962890625 78 -32 78 -58 c 3
EndSplineSet
Fore
SplineSet
394 454.686523438 m 1x80
 426.341947343 464.503045745 459.258170248 469 486.288085938 469 c 3
 504.423950196 469 528.605102539 467 534.650390625 463 c 1
 517 409 l 1
 507.905991127 411.104054581 498.27976055 413 486 413 c 0
 461.293309579 413 435.97843811 409.453228224 410 402 c 1
 409.22347843 402.045424066 393.406977007 454.422158872 394 454.686523438 c 1x80
430.651367188 354.936523438 m 1
 390.154362416 175 220.228187919 178 116 117 c 0
 103.216990038 109.518687859 95.1492229164 103.494596004 85 95 c 1
 79 92 88 125.989130435 91 116 c 1
 95.914893617 103 121.054976814 93 136 93 c 3
 193.968080142 93 265.295269846 125 323 125 c 3
 405.468085106 125 432.18884062 64.4258758335 425 18 c 1
 395.980792716 -118 208.400210541 -174 94.45703125 -174 c 3
 -6.78229801825 -174 -41.5833174543 -114.356482164 -35.255859375 -63.083984375 c 1
 -26.6503688855 7.32483332522 53.7686686161 53.3604355356 97.298828125 75.79296875 c 1
 98.8014962537 76.6064413058 156.464395523 39.6964875865 155 39 c 1
 92.0234541578 14.1835003198 32.4643747739 -28.5852541777 25 -70 c 0
 19.9140231261 -98.2186312814 44.0404848163 -119 97 -119 c 3
 211.015789473 -119 356 -48 370 27 c 1
 372.897612785 49.4148706301 361.896018816 69 324 69 c 3
 283.970537795 69 209.974286337 37 135 37 c 3
 90.0689251378 37 26.442774568 64.5765916041 25.0009765625 119 c 1
 61.0064953211 155.013054142 108.028227161 178.113802705 167.999023438 201.913085938 c 0
 256.607744327 237.077268778 348.663637108 249.402652239 375 360 c 0
 386.541070493 408.46575786 331.061538462 449 289 449 c 3
 224.806116174 449 143.995141244 396.087258732 123.673828125 317 c 0
 108 256 147.584228516 219 228.673828125 197 c 1
 226.558497579 196.460637412 140.823565282 170.444630815 146 171 c 1
 98.5854866686 187.943294032 54.9302094674 241.905804154 64.10546875 307.892578125 c 1
 81.2336087021 431.333589805 200.06007962 505 287.841796875 505 c 3
 361.777224167 505 445.778667351 441 430.651367188 354.936523438 c 1
EndSplineSet
Substitution2: "pcap-1" g.pcap
Substitution2: "smcp-1" g.smcp
EndChar
StartChar: h
Encoding: 104 104 7
Width: 498
VWidth: 1159
Flags: HMW
HStem: 343 60<211.946 308.529> 662 38<75.6544 108.407>
VStem: -21.3461 78<-4 76.7172> 334.654 56.9735<180.359 316.446>
AnchorPoint: "Top" 384.631 733 basechar 0
AnchorPoint: "Bottom" 148.633 -15 basechar 0
LayerCount: 2
Back
SplineSet
108.400390625 240.42578125 m 1
 81.7419193028 248.988836006 l 1
 101.762769509 311.317674985 145.375742208 367.151400681 190.449637113 416.686288016 c 2
 191.403579573 417.734642776 l 1
 192.458513404 418.68130456 l 2
 229.223995188 451.673398997 281.086268908 486 330.653320312 486 c 0
 407.537518605 486 458 425.796360603 458 360.192382812 c 0
 458 205.341457293 369.830122905 68.6479212217 307.515455522 -8.62374045197 c 1
 285.719726562 8.953125 l 1
 263.923997603 26.529990452 l 1
 322.837704554 99.5843807369 402 226.653236386 402 360.192382812 c 0
 402 397.477634938 375.463427002 430 330.653320312 430 c 0
 307.478292568 430 263.591961731 406.880648184 230.89929835 377.930743329 c 1
 188.69975166 331.381891801 150.630909043 280.341567602 135.058861947 231.862726494 c 1
 108.400390625 240.42578125 l 1
55.4541015625 24 m 1
 28.261811932 30.676779512 l 1
 57.9403828591 151.547671686 102.030402116 346.421966446 135.585519762 500.019765466 c 0
 147.711038539 554.683826477 160.882488622 618.25393076 173.844050166 667.10747155 c 1
 157.230048228 660.071050414 144.660327667 655.924926469 131.540620463 651.637467704 c 1
 122.843004729 678.252341 l 1
 114.145388995 704.867214295 l 1
 143.827011906 714.567029417 173.362149732 724.881842993 208.624327323 751.541958898 c 2
 330.169792429 843.43691289 l 1
 249.234316845 714.334506062 l 2
 235.703207453 692.750660697 210.301316756 578.257657235 190.266371062 487.936450043 c 0
 156.694456873 334.261765225 112.537566267 139.059978239 82.646391193 17.323220488 c 1
 55.4541015625 24 l 1
EndSplineSet
Fore
SplineSet
129.653320312 215 m 0
 116.330198207 161.282350488 94.9096807843 68.900854287 76.7529296875 -4 c 1
 19.7392578125 -4 l 1
 55.3806811128 137.5234375 134.62065292 497.405547199 155.044921875 590 c 0
 162.531675755 623.941576086 168.962462631 645.016411065 168.717773438 654 c 0
 168.6015625 658.266601562 167.802734375 662 161.879882812 662 c 3
 155.384160863 662 125.639959055 648.667968752 113.973632812 646 c 1
 111.502201178 656.684650359 109.506997089 693.315349641 109.702148438 704 c 1
 144.736205369 715.186755952 186.536777138 726.372581846 232.030273438 764 c 1
 261.995117188 728 l 1
 252.136043811 714 239.371501228 691.786007428 236.088867188 681 c 0
 223.710944818 640.328892299 201.069037678 542.871907553 169.653320312 394 c 1
 188.846335019 418.465475064 262.448357078 486 329.653320312 486 c 3
 406.373714915 486 458 430.036801974 458 354.192382812 c 3
 458 196.166217726 358.590820312 50.4334563605 295.653320312 -23 c 1
 262.361319466 -15.2635896382 258.323249894 -6.42105263158 259 19 c 1
 286.645947908 53.975 402.262695312 203.745007324 402.262695312 352 c 3
 402.262695312 405.95735677 369.840193085 430 333.653320312 430 c 3
 255.944535689 430 150.290960882 298.209140775 129.653320312 215 c 0
EndSplineSet
Substitution2: "pcap-1" h.pcap
Substitution2: "smcp-1" h.smcp
EndChar
StartChar: k
Encoding: 107 107 10
Width: 452
VWidth: 1159
Flags: HMW
HStem: -6 21G<-39.1698 -36.6698> 372.562 46.4375<211.197 302.796> 661 28<34.5802 76.4418> 749 20G<175.33 214.33>
VStem: -39.6698 70<-5 81.6634> 280.229 68.0957<292.691 368.052>
AnchorPoint: "Top" 323.023 749 basechar 0
AnchorPoint: "Bottom" 126.711 -15 basechar 0
LayerCount: 2
Back
SplineSet
83.30078125 270 m 1
 61.9970703125 288.169921875 l 1
 131.797851562 370.0078125 216.337890625 496.5546875 335.760742188 511.775390625 c 1
 339.30078125 484 l 1
 342.840820312 456.224609375 l 1
 258.263671875 445.4453125 180.166015625 340.421875 104.604492188 251.830078125 c 1
 83.30078125 270 l 1
83.30078125 682 m 1
 74.6826171875 708.640625 l 1
 107.153320312 719.14453125 145.581054688 740.47265625 174.387695312 761.71484375 c 2
 191.700195312 774.48046875 l 1
 208.497070312 761.04296875 l 1
 211.088867188 758.969726562 l 1
 222.5859375 749.771484375 l 1
 221.524414062 735.0859375 l 2
 209.729492188 571.923828125 94.662109375 222.482421875 58.8056640625 18.16015625 c 1
 31.2275390625 23 l 1
 3.6484375 27.83984375 l 1
 36.7138671875 216.255859375 131.353515625 514.739257812 159.028320312 685.381835938 c 1
 138.4375 673.875976562 114.455078125 662.649414062 91.91796875 655.359375 c 1
 83.30078125 682 l 1
123.599609375 314.543945312 m 1
 98.65234375 327.2578125 l 1
 169.305664062 465.896484375 257.149414062 510 345.30078125 510 c 0
 400.668945312 510 436.849609375 473.484375 439.30078125 435 c 0
 448.124023438 296.430664062 292.59375 237.205078125 179.30078125 209 c 2
 149.1171875 201.485351562 l 1
 142.352539062 228.65625 l 1
 135.587890625 255.827148438 l 1
 165.771484375 263.340820312 l 2
 284.741210938 292.959960938 388.829101562 346.388671875 383.4140625 431.44140625 c 0
 383.096679688 436.4140625 375.911132812 454 345.30078125 454 c 0
 279.0625 454 212.555664062 427.432617188 148.546875 301.830078125 c 1
 123.599609375 314.543945312 l 1
428.30078125 -38 m 1
 418.838867188 -64.3525390625 l 1
 331.120117188 -32.859375 188.236328125 65.71484375 105.4765625 177.978515625 c 1
 128.013671875 194.592773438 l 1
 150.551757812 211.208007812 l 1
 224.786132812 110.509765625 364.08984375 14.8037109375 437.76171875 -11.6474609375 c 1
 428.30078125 -38 l 1
EndSplineSet
Fore
SplineSet
54.689453125 -5 m 1
 48.685546875 -5 23.6708984375 -5 16.6669921875 -5 c 0
 12.9169921875 -5 0.44921875 -6 -3.30078125 -6 c 1
 7.0595703125 58.87109375 40.59375 199.357421875 59.8037109375 273 c 0
 132.466796875 551.559570312 157.381835938 662.186523438 157 675 c 0
 156.896484375 678.451171875 156.334960938 681 155.000976562 681 c 3
 145.985351562 681 110.397460938 655.947265625 62 647 c 1
 55.275390625 704 l 1
 98.7275390625 713.625 154.63671875 744.25 192 774 c 1
 222 750 l 1
 217 590 86.5693359375 203.19921875 54.689453125 -5 c 1
65 245 m 1
 190.908203125 261.936523438 393.126953125 316.997070312 383 431 c 0
 381.99609375 444.518554688 365.647460938 454 350 454 c 7
 316.9921875 454 151.592773438 350.575195312 89 168 c 1
 51.2626953125 211 l 1
 112.219726562 395 281.581054688 510 351 510 c 7
 402.809570312 510 436.557617188 473.609375 439 435 c 0
 448.552734375 293.618164062 288 234 157 204 c 1
 208.778320312 134 312 40 465 -26 c 1
 465 -51.0634765625 453.736328125 -55.9150390625 416 -64 c 1
 320.848632812 -29.7646484375 128.310546875 106.047851562 65 245 c 1
EndSplineSet
Substitution2: "pcap-1" k.pcap
Substitution2: "smcp-1" k.smcp
EndChar
StartChar: l
Encoding: 108 108 11
Width: 259
VWidth: 1159
Flags: MW
HStem: -10 21G<47.0016 91.8281> 749 20G<211.328 241.328>
VStem: 16.3285 82<53.6655 157.415>
AnchorPoint: "TopRight" 292.755 581 basechar 0
AnchorPoint: "Top" 221.22 749 basechar 0
LayerCount: 2
Fore
SplineSet
194.203125 413 m 0
 168.874023438 320.94140625 131.728515625 171.416992188 130.569335938 100 c 0
 130.46484375 93.5673828125 130.80078125 86.3779296875 137.706054688 86 c 1
 146.290039062 86 181.776367188 100.625 199.706054688 112 c 1
 241.706054688 70 l 1
 193.932617188 22 138.71484375 -10 86.01953125 -10 c 3
 42.7060546875 -10 23.90625 11.3916015625 19.6201171875 37 c 0
 17.0986328125 52.0634765625 19.90234375 69.880859375 24.251953125 96 c 0
 36.57421875 170 76.6572265625 309.90234375 96.1630859375 401 c 0
 136.297851562 588.435546875 140.087890625 624.796875 140.087890625 663 c 3
 140.087890625 673.250976562 136.88671875 688.598632812 126.815429688 694 c 1
 124.974609375 700.612304688 122.892578125 707.0078125 120.801757812 713 c 1
 147.486328125 732.125 213.19140625 748.517578125 276.947265625 764 c 1
 288.51171875 757.142578125 292.955078125 748.571289062 299 740 c 1
 287.092773438 712.8984375 267.051757812 657.459960938 258.564453125 630 c 0
 240.635742188 572 225.231445312 525.776367188 194.203125 413 c 0
EndSplineSet
Substitution2: "pcap-1" l.pcap
Substitution2: "smcp-1" l.smcp
EndChar
StartChar: m
Encoding: 109 109 12
Width: 781
VWidth: 1159
Flags: HMW
HStem: -10 104<592.386 672.217> -2 21G<60.0526 67.4492 319.2 327.219> 406 96<563.896 674.491> 421 92<315.779 414.172>
VStem: 35.6277 90.3722<0.323105 108.59> 552.414 102.905<53.5363 176.777>
AnchorPoint: "Top" 407.318 537 basechar 0
AnchorPoint: "Bottom" 335.057 -15 basechar 0
LayerCount: 2
Back
SplineSet
351.328125 27.6923828125 m 1
 323.677734375 32.1025390625 l 2
 323.87109375 33.314453125 324.830078125 39.43359375 325.805664062 44.35546875 c 0
 348.8125 160.501953125 372.979492188 285.8359375 397.734375 401.461914062 c 0
 397.978515625 403.534179688 398.234375 410.936523438 398.940429688 421.412109375 c 0
 400.596679688 445.970703125 393.919921875 457 364.634765625 457 c 0
 357.833007812 457 318.546875 435.7890625 282.588867188 404.590820312 c 0
 232.998046875 361.564453125 208.390625 325.801757812 168.702148438 273.146484375 c 1
 146.341796875 290 l 1
 123.982421875 306.853515625 l 1
 162.5625 358.037109375 191.186523438 399.427734375 245.889648438 446.889648438 c 0
 282.453125 478.612304688 324.647460938 513 364.634765625 513 c 0
 425.581054688 513 458.231445312 468.319335938 454.813476562 417.64453125 c 0
 454.030273438 406.030273438 454.689453125 399.983398438 452.55078125 390.002929688 c 0
 427.81640625 274.541992188 403.819335938 149.9921875 380.73828125 33.474609375 c 0
 380.11328125 30.3232421875 379.138671875 24.2822265625 378.978515625 23.2822265625 c 2
 351.328125 27.6923828125 l 1
411.715820312 294 m 1
 389.915039062 311.5703125 l 1
 422.567382812 352.0859375 l 1
 465.443359375 404.462890625 l 2
 500.711914062 444.009765625 561.021484375 502 614.099609375 502 c 0
 624.081054688 502 633.086914062 501.06640625 641.237304688 499.275390625 c 0
 700.385742188 486.280273438 712.838867188 426.557617188 696.732421875 354.822265625 c 0
 674.75 256.919921875 627.634765625 126.63671875 627.634765625 72 c 0
 627.634765625 57.5732421875 630.569335938 47.7080078125 631.45703125 46.3798828125 c 1
 650.51953125 60.435546875 693.900390625 126.420898438 695.98828125 130.033203125 c 1
 720.229492188 116.020507812 l 1
 744.470703125 102.0078125 l 2
 743.3984375 100.15234375 690.579101562 -10 634.634765625 -10 c 0
 577.67578125 -10 571.634765625 46.9423828125 571.634765625 72 c 0
 571.634765625 147.3671875 621.244140625 274.237304688 642.092773438 367.08984375 c 0
 657.233398438 434.522460938 641.702148438 441.837890625 629.220703125 444.580078125 c 0
 625.573242188 445.380859375 620.55859375 446 614.099609375 446 c 0
 599.609375 446 541.338867188 405.213867188 508.01953125 368.06640625 c 2
 466.03515625 316.779296875 l 1
 433.517578125 276.4296875 l 1
 411.715820312 294 l 1
96.701171875 27.767578125 m 1
 69.3994140625 33.978515625 l 2
 69.9677734375 36.478515625 71.6201171875 44.0654296875 72.2822265625 47.5341796875 c 0
 82.36328125 100.348632812 107.995117188 211.953125 120.057617188 271.795898438 c 2
 143.98828125 395.142578125 l 2
 147.83203125 414.954101562 149.426757812 431.479492188 148.82421875 445.955078125 c 0
 148.787109375 446.9296875 148.659179688 448.075195312 148.629882812 448.295898438 c 0
 147.44140625 448.177734375 146.600585938 448.052734375 144.573242188 447.55078125 c 0
 137.521484375 444.94140625 104.455078125 415.912109375 84.771484375 387.0390625 c 1
 61.63671875 402.810546875 l 1
 38.5009765625 418.58203125 l 1
 63.0849609375 454.64453125 97.5673828125 494.211914062 131.5546875 502.018554688 c 0
 148.58984375 506.234375 169.206054688 505.500976562 184.99609375 492.392578125 c 0
 194.576171875 484.439453125 200.274414062 473.493164062 202.865234375 462.59375 c 0
 203.997070312 457.83203125 204.59375 453.014648438 204.78125 448.157226562 c 0
 205.616210938 428.083984375 203.337890625 407.021484375 198.962890625 384.4765625 c 2
 174.994140625 260.930664062 l 2
 162.595703125 199.421875 136.993164062 87.8759765625 127.2890625 37.0341796875 c 0
 126.338867188 32.0576171875 124.732421875 24.7578125 124.00390625 21.556640625 c 2
 96.701171875 27.767578125 l 1
EndSplineSet
Fore
SplineSet
632.318359375 50 m 7xac
 653.779296875 50 686.318359375 111 709.193359375 155.486328125 c 1
 756.318359375 126 l 1
 733.955078125 75 687.166015625 -10 629.5703125 -10 c 3
 589.279296875 -10 571.413085938 30.0341796875 571.413085938 72.0380859375 c 3
 571.413085938 169.73828125 647.973632812 334.897460938 647.973632812 416.139648438 c 3
 647.973632812 438.439453125 636.663085938 446 618.318359375 446 c 3xac
 569.186523438 446 437.076171875 300.077148438 425.318359375 253 c 0
 411.059570312 195.908203125 390.56640625 84.689453125 380.420898438 33.474609375 c 0
 377.85546875 20.5224609375 377.462890625 9.4189453125 372.333984375 1 c 1
 368.616210938 0 343.203125 -2 337.526367188 -2 c 1
 334.793945312 -2 320.444335938 -2 319.030273438 -1 c 1
 319.689453125 0.400390625 323.204101562 28.6689453125 324.752929688 37.400390625 c 0
 332.709960938 82.2568359375 347.819335938 159.688476562 357.291992188 204 c 0
 372.98828125 277.41796875 396.318359375 397 398.318359375 415 c 0
 401.806640625 446.39453125 392.606445312 457 369.318359375 457 c 3x5c
 320.805664062 457 184.061523438 307.228515625 175.318359375 264 c 4
 156.471679688 172.8828125 144.083984375 116.693359375 126.971679688 37.0341796875 c 0
 124.1875 24.0537109375 120.744140625 9.408203125 118.999023438 1 c 1
 118.35546875 -1 95.8173828125 0 92.0693359375 0 c 1
 86.0341796875 0 68.7919921875 2 64.626953125 4 c 1
 63.849609375 6.404296875 69.513671875 30.0107421875 70.7412109375 36.4599609375 c 0
 84.4345703125 108.383789062 96.560546875 167.064453125 114.106445312 246.590820312 c 0
 131.806640625 326.814453125 145.416992188 398.696289062 148.318359375 434 c 0
 148.831054688 440.231445312 145.498046875 446 141.318359375 446 c 3
 135.78125 446 86.3330078125 402.24609375 68 355 c 1
 18 384 l 1
 32.8837890625 416.83984375 80.318359375 487 131.15625 502 c 0x2c
 152.03515625 508.16015625 174.659179688 500.56640625 186.204101562 490 c 0
 196.448242188 480.625 206.340820312 460.1484375 205.450195312 437.49609375 c 0
 204.993164062 425.857421875 205.319335938 412.372070312 200.318359375 398 c 1
 266.096679688 465.709960938 314.491210938 513 369.318359375 513 c 3x1c
 424.603515625 513 456.240234375 469.861328125 454.497070312 419.64453125 c 0
 454.15625 409.810546875 454.427734375 399.92578125 452 390 c 1
 479.463867188 423.45703125 555.897460938 503 616.783203125 503 c 3
 693.168945312 503 713.958007812 437.409179688 696.415039062 354.822265625 c 0
 672.034179688 240.036132812 627.318359375 139.043945312 627.318359375 76 c 3
 627.318359375 51.8046875 632.318359375 50 632.318359375 50 c 7xac
EndSplineSet
Substitution2: "pcap-1" m.pcap
Substitution2: "smcp-1" m.smcp
EndChar
StartChar: n
Encoding: 110 110 13
Width: 522
VWidth: 1159
Flags: MW
HStem: -11 73<330.961 387.216> 346 65<308.172 403.961>
VStem: 45.461 17<275.412 284.988> 61.461 65<0 38.5218>
AnchorPoint: "Top" 316 537 basechar 0
AnchorPoint: "Bottom" 219.51 -15 basechar 0
LayerCount: 2
Back
SplineSet
769 190 m 3
 769 139 772 92 774 68 c 1
 774 65 775 64 779 63 c 1
 786 62 810 60 818 59 c 1
 816 -8 l 1
 781 -3 761 0 721 0 c 3
 690 0 667 -5 643 -10 c 1
 635 53 l 1
 645 54 658 55 666 57 c 1
 670 58 672 63 676 89 c 1
 678 108 682 155 682 170 c 3
 682 218 678 303 676 319 c 1
 667 377 651 413 588 413 c 3
 559 413 510 383 478 351 c 1
 478 347 478 345 478 344 c 1
 478 321 478 257 478 224 c 3
 478 163 479 95 482 73 c 1
 483 64 488 59 494 57 c 1
 499 56 519 53 527 52 c 1
 520 -9 l 1
 480 -3 470 0 423 0 c 3
 393 0 367 -5 344 -9 c 1
 336 54 l 1
 345 55 359 57 365 58 c 1
 371 58 378 61 380 88 c 1
 382 111 384 168 384 186 c 3
 384 234 380 335 376 354 c 1
 369 389 350 421 303 421 c 3
 262 421 205 381 174 354 c 1
 176 265 170 123 176 85 c 1
 179 67 188 62 195 60 c 1
 200 59 214 55 220 55 c 1
 210 -7 l 1
 173 -4 159 0 118 0 c 3
 87 0 54 -4 23 -7 c 1
 19 54 l 1
 29 55 34 55 44 58 c 0
 64 64 68 67 74 89 c 1
 82 119 85 194 85 232 c 3
 85 251 84 359 76 377 c 0
 66 406 67 411 46 411 c 1
 40 411 34 411 27 411 c 1
 22 470 l 1
 75 477 90 471 142 517 c 1
 186 485 l 1
 183 470 181 458 180 439 c 1
 219 470 283 512 342 512 c 3
 404 512 455 472 467 432 c 1
 511 463 562 500 634 500 c 3
 753 500 765 404 767 350 c 1
 769 309 769 233 769 190 c 3
EndSplineSet
Fore
SplineSet
116 361 m 1xd0
 117.95866373 371.915127841 112.322268928 389 106.874023438 389 c 3
 98.5584676602 389 84.8762595695 371.787322998 73 354 c 1
 30.880859375 382 l 1xe0
 53 440 135.952148438 504 165.860351562 504 c 3
 183.380859375 504 206.771846301 493.823023817 211.5390625 482 c 0
 214.380859375 474.952148438 218.507858859 459.992140884 219.485351562 440.49609375 c 0
 220.017578125 429.880859375 217.9375 405.829101562 214 386 c 1
 245.661132812 427.989257812 319.55859375 504 380 504 c 3
 463.916015625 504 469.439508284 438.813465658 456.23046875 372 c 0
 434.772460938 263.461914062 418.865586882 199.111768533 405.860351562 123 c 0
 403.127929688 107.008789062 401.250976562 88 404.125 88 c 3
 408.456054688 88 415.499780117 89.0519570631 423.608398438 98 c 0
 434.947265625 110.512695313 447.17578125 127.538085938 452.880859375 134 c 1
 501 118 l 1
 486.697265625 88.033203125 467.94937334 57.7322619413 440.29296875 31 c 0
 419.6015625 11 386.673828125 -9 361.08984375 -9 c 3
 319.974609375 -9 301.10546875 33.78125 301.10546875 63.6630859375 c 3
 301.10546875 116.46875 366.03125 331.407226562 366.03125 381.1328125 c 3
 366.03125 398.584960938 358.129882812 415 337.545898438 415 c 3
 288.21875 415 194.50284065 287.63938298 182.600585938 238 c 0
 162.586914062 154.53125 155.448886813 116.88156525 141.943359375 36 c 0
 139.942382812 24.0166015625 139.946289062 6 134.4609375 0 c 1
 126.893554688 0 81.48828125 0 78.4609375 0 c 1
 75.5322265625 0 40.3896484375 0 37.4609375 0 c 1
 32.4775390625 6 37.67689294 29.2685261307 39.7333984375 39 c 0
 55.736328125 114.7265625 81.6263559898 218.785048228 102.754882812 293 c 0
 108.1640625 312 112.538085938 339 116 361 c 1xd0
EndSplineSet
Substitution2: "pcap-1" n.pcap
Substitution2: "smcp-1" n.smcp
EndChar
StartChar: o
Encoding: 111 111 14
Width: 490
VWidth: 1159
Flags: W
HStem: -10 65<174.096 258.023> 433 74<227.748 322.787>
VStem: 31.0957 109.074<94.5032 295.923> 350.17 108.83<201.003 404.137>
AnchorPoint: "Top" 316.17 537 basechar 0
AnchorPoint: "Horn" 435.808 420.164 basechar 0
AnchorPoint: "Ogonek" 289.169 19 basechar 0
AnchorPoint: "Bottom" 209.786 -15 basechar 0
AnchorPoint: "Middle" 246.505 251.029 basechar 0
LayerCount: 2
Fore
SplineSet
309.495117188 507 m 3
 403.1328125 507 459 427.673828125 459 321.42578125 c 0
 459 139.922851562 320.752929688 -10 188.133789062 -10 c 3
 94.0673828125 -10 31.095703125 60.2529296875 31.095703125 180.220703125 c 0
 31.095703125 387.733398438 210.171875 507 309.495117188 507 c 3
278.169921875 433 m 3
 218.71875 433 140.169921875 340.102539062 140.169921875 202 c 3
 140.169921875 114.98828125 170.575195312 55 214.169921875 55 c 3
 265.135742188 55 350.169921875 157.19140625 350.169921875 300 c 3
 350.169921875 396.821289062 319.2109375 433 278.169921875 433 c 3
EndSplineSet
Substitution2: "pcap-1" o.pcap
Substitution2: "smcp-1" o.smcp
EndChar
StartChar: p
Encoding: 112 112 15
Width: 511
VWidth: 1159
Flags: HMW
HStem: -322 34<61.3024 139.999> -1 42<106.986 229.246> 351 46<224.026 344.499>
AnchorPoint: "Top" 370.038 537 basechar 0
AnchorPoint: "Bottom" 132.041 -156 basechar 0
LayerCount: 2
Back
SplineSet
218.174935269 515.664765675 m 1
 245.002449941 507.647006855 l 1
 238.177223798 484.809720448 145.876291361 68.8532617161 138.065715254 31.2985964865 c 0
 126.758640931 -23.0678657477 112.948412912 -89.5086689545 108.833290087 -127.050895434 c 1
 81 -124 l 1
 53.1667099133 -120.949104566 l 1
 57.8560234084 -78.1685420549 71.8732368387 -11.9469257934 83.2389343508 42.7014073572 c 0
 91.7111827089 83.4375126699 182.148700103 492.903498269 191.347420596 523.682524494 c 1
 218.174935269 515.664765675 l 1
124 411 m 1
 117.147689636 438.148588226 l 1
 160.613413612 449.119347678 197.0674523 460.550547401 235.102761963 473.421911275 c 0
 275.243391531 487.005727308 328.636291766 505.080078125 377.610351562 505.080078125 c 0
 383.422057911 505.080078125 389.180678978 504.580067276 394.819573757 503.607163855 c 0
 462.96295464 491.85008538 518.691400996 408.390430714 496.899253685 302.278355114 c 0
 467.734581638 160.267389373 335.579237979 40.3662109375 225.12890625 40.3662109375 c 0
 188.3347641 40.3662109375 158.845911306 42.7061112791 132.617303136 48.9329950018 c 2
 111.367303136 53.9779168768 l 1
 117.834960938 81.220703125 l 1
 124.302618739 108.463489373 l 1
 145.552618739 103.418567498 l 2
 165.512551268 98.6799180751 190.688136034 96.3662109375 225.12890625 96.3662109375 c 0
 299.217515227 96.3662109375 417.377141492 193.433545413 442.04410569 313.543910511 c 0
 459.308599004 397.609569286 412.908524206 443.658802187 385.29832209 448.422512305 c 0
 382.76582132 448.859455848 380.230398282 449.080078125 377.610351562 449.080078125 c 0
 342.395525646 449.080078125 292.490983469 433.722788317 253.053488037 420.37691685 c 0
 214.273746724 407.253633098 176.081898888 395.267371072 130.852310364 383.851411774 c 1
 124 411 l 1
33.10546875 -141.780273438 m 1
 28.3553086039 -114.186144015 l 1
 58.2900456984 -109.033062613 85.9924612739 -107 113.794921875 -107 c 0
 147.628715835 -107 168.650961519 -106.997858848 206.143086528 -107.576577257 c 1
 205.7109375 -135.573242188 l 1
 205.278788472 -163.569907118 l 1
 168.116616606 -162.996281777 147.683784165 -163 113.794921875 -163 c 0
 88.6813668511 -163 64.5595636766 -164.777484262 37.8556288961 -169.37440286 c 1
 33.10546875 -141.780273438 l 1
EndSplineSet
Fore
SplineSet
87.8515625 64.947265625 m 0
 117.846137461 203.135188634 148.538993527 336.841444413 159.119140625 385.034179688 c 0
 159.779159435 388.040575676 158.406221954 389.431988201 157.07421875 390.287109375 c 1
 148.328644374 389.272131793 98.3380012414 373.029955163 86 371 c 1
 82.845703125 428.228515625 l 1
 184 457 173 445 194.038085938 538 c 1
 258.78382669 546.136601012 256.683461172 556.223812885 236.51171875 474.21484375 c 1
 274.973380563 486.417730074 328.567231129 505.080078125 377.610351562 505.080078125 c 3
 453.721679688 505.080078125 520.207504067 419.588737125 497.038085938 303 c 0
 466.769142653 150.686383318 327.796214732 40.7178805757 222.702148438 40.3662109375 c 1
 197.376625969 39.3662109375 162.889615024 42.3662109375 141.955078125 46.3662109375 c 1
 130.197999993 -4.59383255665 115.498601177 -78.3990445743 111.774414062 -103 c 1
 111.851863499 -105.85703125 112.910513301 -106.991090725 119.094726562 -107 c 0
 149.19860851 -107.043369101 199.366040421 -107.75 227.459960938 -108 c 1
 220.40625 -164 l 1
 166.45703125 -163 144.59765625 -163 103.794921875 -163 c 3
 86.4169567181 -163 39.9925348368 -167.333333333 19.0380859375 -174 c 1
 19.416015625 -116 l 1
 32.54981557 -113.412173191 44.3156531074 -112.434914355 53.396484375 -106.94140625 c 0
 55.8204618394 -105.475005272 58.1399582107 -86.6499068872 61.240234375 -66.705078125 c 0
 65.1382916858 -41.6279296875 76.1741199603 11.1481525282 87.8515625 64.947265625 c 0
379 449 m 3
 327.106150265 449 249.340365308 419.04686724 222 410 c 1
 153.038085938 102 l 1
 172.084433466 98.7807811072 194.658025087 96.3662109375 225.12890625 96.3662109375 c 3
 289.495240962 96.3662109375 414.031639002 184.374924326 440.999023438 307 c 0
 460.682205747 396.502625885 412.516344632 449 379 449 c 3
EndSplineSet
Substitution2: "pcap-1" p.pcap
Substitution2: "smcp-1" p.smcp
EndChar
StartChar: q
Encoding: 113 113 16
Width: 490
VWidth: 1159
Flags: MW
HStem: -342 36<293.303 361.679> -5 43<115.888 214.273> 369 49<188.341 301.544> 409 20G<403.179 433.679>
AnchorPoint: "Top" 357.394 537 basechar 0
AnchorPoint: "Bottom" 273.413 -144 basechar 0
LayerCount: 2
Fore
SplineSet
319.90625 173.750976562 m 1xe0
 341.608398438 245.5703125 357.822265625 316.377929688 370.462890625 374.03515625 c 1
 370.462890625 381.157226562 368.137695312 390.491210938 358.59375 403.708984375 c 0
 343.436523438 425.348632812 315.55078125 431 294.03125 431 c 3
 223.126953125 431 133.212890625 325.1015625 125.625 219.602539062 c 0
 120.393554688 146 134.296875 104 186.393554688 104 c 3
 242.875976562 104 309.271484375 155.5546875 319.90625 173.750976562 c 1xe0
296.313476562 78.65625 m 1
 243.2734375 43.2998046875 199.725585938 24.69140625 138.166015625 24.69140625 c 3
 43.974609375 24.69140625 14.2900390625 94.6201171875 14.2900390625 147.142578125 c 3
 14.2900390625 290.353515625 169.966796875 504 342.393554688 504 c 3xe0
 401.576171875 504 411.370117188 479 426.53125 479 c 3
 438.579101562 479 459.345703125 507.477539062 465.08984375 514.122070312 c 1xd0
 517 497 l 1
 515.209960938 491.533203125 508.783203125 477.094726562 505.366210938 468.755859375 c 0
 497.3515625 449.202148438 486.297851562 414.291992188 463.0078125 344.91796875 c 0
 453.369140625 316.209960938 422.399414062 211.532226562 410.686523438 158.9375 c 0
 379.827148438 20.3798828125 372.0625 -42.1962890625 369.510742188 -71.1669921875 c 0
 367.740234375 -91.26171875 402.354492188 -97.169921875 420.869140625 -101.309570312 c 0
 435.4453125 -104.568359375 474.798828125 -110 483.544921875 -110 c 1
 475.821289062 -168 l 1
 445.134765625 -167 396.315429688 -164 341.91796875 -164 c 3
 311.006835938 -164 235.448242188 -170.599609375 203.393554688 -175 c 1
 209.68359375 -113 l 1
 216.551757812 -112.599609375 216.98046875 -113.494140625 223.420898438 -109.79296875 c 0
 235.583007812 -102.225585938 246.907226562 -92.4091796875 255.345703125 -70.4443359375 c 0
 261.197265625 -55.96875 282.479492188 21.2353515625 296.313476562 78.65625 c 1
EndSplineSet
Substitution2: "pcap-1" q.pcap
Substitution2: "smcp-1" q.smcp
EndChar
StartChar: r
Encoding: 114 114 17
Width: 426
VWidth: 1159
Flags: HMW
HStem: 406 20G<319.7 340.2> 413 20G<151.7 177.7 319.7 340.2>
VStem: 41.7002 19<295.105 306.953> 52.7002 68<0 66.3041>
AnchorPoint: "Top" 246 537 basechar 0
AnchorPoint: "Bottom" 110.95 -15 basechar 0
LayerCount: 2
Back
SplineSet
96.0087890625 415.758789062 m 1
 72.5002462603 430.96893092 l 1
 93.0594000106 462.744817723 116.99340944 495.063654891 147.360427844 509.223474823 c 2
 159.217939031 514.752507046 l 1
 171.066640655 509.204621079 l 2
 210.123606897 490.917081923 208 445.302877 208 397 c 0
 208 336.251120275 163.76481888 149.899513173 136.005889666 21.9623119465 c 1
 108.642578125 27.8994140625 l 1
 81.2792665845 33.8365161785 l 1
 108.691473736 160.175721675 152 353.729650733 152 397 c 0
 152 415.846806728 151.619642744 429.285920171 150.338265543 441.215578665 c 1
 140.376309336 430.39217388 129.394088268 415.813997971 119.517331865 400.548647205 c 1
 96.0087890625 415.758789062 l 1
377.577870325 435.542076827 m 2
 375.63447576 438.786031933 371.695060385 443.562831076 363.503766853 448.393916468 c 1
 302.296692489 410.592736254 197.063517418 299.631315886 179.228753714 231.735013373 c 1
 125.066168161 245.962252252 l 1
 151.155248136 345.282439265 276.961382054 467.626310456 349.023204035 504.491006267 c 2
 359.312520971 509.75471635 l 1
 370.31890488 506.228216655 l 2
 407.047875735 494.46007322 440.545835719 463.782226275 433.074293963 429.615928386 c 1
 405.720703125 435.59765625 l 1
 377.577870325 435.542076827 l 2
EndSplineSet
Fore
SplineSet
153 418 m 1x80
 152.974312372 429.74586384 151.493638677 439 149 439 c 3
 146.159507727 439 106.420033893 391.130826124 87.208984375 338 c 5
 44.9423828125 363.749023438 l 5
 63.1104811127 440.247827498 120.979657462 503.91054326 157.647460938 514.337890625 c 1
 193.205457373 507.28515625 208.486748731 469.979142916 208.8203125 419.352539062 c 0
 208.885742188 409.421955458 208.74609375 397.680696294 208.209960938 385 c 1
 253.561523438 443.482632518 336.030273438 502.996875281 359.69140625 508.896484375 c 1
 397.702148438 501.80859375 440.975585938 466.3671875 433.052734375 429.508789062 c 1
 427.045241131 404.348926189 413.879345412 392.35211051 395.46875 386.260742188 c 1
 389.759775667 413.415039062 380.040179647 446 362 446 c 3
 346.957445942 446 201 318 181.40234375 232.431640625 c 0
 177.536950635 215.554349639 174.800882552 199.138913802 173.01953125 190.739257812 c 0
 164.218861328 149.241210938 158.14188861 120.596532565 152.794921875 97.8193359375 c 0
 150.28146453 87.1124220903 148.197059464 78.5135273253 146.045898438 67.6982421875 c 0
 144.281595508 58.8279442327 140.899670447 44.8090840916 138.88671875 36.01953125 c 0
 136.075455719 23.7441522637 134.015409908 12.5859258613 130.427734375 0.310546875 c 1
 127.679847411 0.9482421875 108.600361649 -2.0263671875 104.498046875 -1.9833984375 c 1
 98.6973462133 -1.9833984375 79.3947216968 -3.130859375 75.392578125 1.4580078125 c 1
 75.106687333 9.48828125 81.0926301529 34.7585960288 82.240234375 39.314453125 c 0
 83.4362049851 44.0623192327 88.4504438473 65.2989953303 89.3671875 68.9931640625 c 0
 89.9445472139 71.3197296144 94.2528883164 92.4375246585 95.458984375 97.8193359375 c 0
 99.0980380273 114.057428957 119.494697918 212.207833609 130.607421875 264.2578125 c 0
 141.418412533 314.894527469 152.575402752 375.721102936 153 418 c 1x80
EndSplineSet
Substitution2: "pcap-1" r.pcap
Substitution2: "smcp-1" r.smcp
EndChar
StartChar: s
Encoding: 115 115 18
Width: 385
VWidth: 1159
Flags: HMW
HStem: -10.1663 54.1517<60.1162 183.58> 369 47<185.157 261.577>
VStem: 84.7775 70.1657<259.483 332.875> 199.028 68.2592<62.772 153.436> 289.12 44<317.5 339.554>
AnchorPoint: "Top" 289.104 537 basechar 0
AnchorPoint: "Bottom" 145.301 -15 basechar 0
LayerCount: 2
Back
SplineSet
337 428 m 1
 309.76171875 421.514648438 l 1
 307.8515625 429.53515625 305.942382812 438.59375 304.905273438 443.524414062 c 0
 294.455078125 449.500976562 282.19921875 452.765625 272.776367188 452.765625 c 0
 214.234375 452.765625 142.359375 378.92578125 143.48046875 349.112304688 c 0
 144.505859375 321.861328125 166.200195312 302.9609375 204.05859375 278.525390625 c 0
 241.779296875 254.177734375 301.326171875 223.943359375 305.291992188 158.426757812 c 0
 309.796875 84.0009765625 260.15234375 39.921875 209.043945312 14.7197265625 c 0
 193.8125 7.7138671875 179.865234375 1.8388671875 164.416015625 -2.00390625 c 0
 140.786132812 -7.880859375 111.5390625 -9.166015625 81.9326171875 -9.166015625 c 0
 62.6640625 -9.166015625 41.8125 -7.9638671875 26.884765625 -6.32421875 c 1
 29.9423828125 21.5078125 l 1
 32.9990234375 49.3408203125 l 1
 45.236328125 47.9970703125 65.12890625 46.833984375 81.9326171875 46.833984375 c 0
 109.294921875 46.833984375 136.259765625 48.69921875 150.899414062 52.33984375 c 0
 160.411132812 54.7060546875 170.901367188 58.8486328125 184.952148438 65.2783203125 c 0
 226.68359375 86.037109375 252.022460938 111.627929688 249.39453125 155.04296875 c 0
 247.706054688 182.924804688 218.93359375 202.271484375 173.689453125 231.474609375 c 0
 137.701171875 254.703125 89.7919921875 286.609375 87.5205078125 347.0078125 c 0
 84.658203125 423.1171875 187.28515625 508.765625 272.776367188 508.765625 c 0
 299.897460938 508.765625 327.8125 498.611328125 348.13671875 481.33203125 c 2
 355.22265625 475.30859375 l 1
 357.295898438 466.241210938 l 2
 359.2265625 457.796875 361.361328125 446.571289062 364.23828125 434.485351562 c 1
 337 428 l 1
EndSplineSet
Fore
SplineSet
35 49 m 1
 48.3720703125 47.6669921875 68.4951171875 47 82 47 c 3
 250.46875 47 249.71875 142.387695312 249.07421875 154 c 0
 247.671875 179.288085938 231 195 180.416015625 227 c 0
 131.6796875 257.831054688 94.16796875 284.182617188 87.525390625 346.87890625 c 0
 86.8466796875 353.288085938 87.3515625 360.182617188 89.1875 367.638671875 c 1
 94.7451171875 413 171.950195312 508.765625 274.776367188 508.765625 c 3
 306.215820312 508.765625 334.083007812 494.504882812 355.7265625 475 c 1
 357.47265625 469.362304688 359.677734375 452.961914062 364 434 c 1
 310.000976562 421 l 1
 309.189453125 443.171875 298.140625 453 274 453 c 3
 208.1796875 453 140.565429688 383.962890625 143 348 c 0
 145.166992188 316 177.552734375 293.091796875 229 263 c 0
 282 232 303.62109375 195.219726562 305.31640625 157.958007812 c 0
 309.779296875 59.8525390625 220.990234375 12.0673828125 164.416015625 -2.00390625 c 0
 141.02734375 -7.8212890625 111.293945312 -9.166015625 81.9326171875 -9.166015625 c 3
 48.4658203125 -9.166015625 15.291015625 -6.1083984375 -5 -1 c 1
 -0.7666015625 12.05859375 5.3115234375 36.931640625 7.02734375 51.234375 c 1
 35 49 l 1
EndSplineSet
Substitution2: "pcap-1" s.pcap
Substitution2: "smcp-1" s.smcp
EndChar
StartChar: t
Encoding: 116 116 19
Width: 331
VWidth: 1159
Flags: MW
HStem: -15 53<98.8739 178.404> 342 26<72.8739 106.773> 352 38<203.874 309.805> 358 41<204.939 310.874>
VStem: 49.8739 267
AnchorPoint: "TopRight" 276.207 601 basechar 0
AnchorPoint: "Bottom" 110.468 -15 basechar 0
AnchorPoint: "Top" 222.279 595.346 basechar 0
LayerCount: 2
Fore
SplineSet
67.841796875 482 m 1xc8
 138.454101562 496.192382812 137.16015625 498.30078125 176.309570312 612.720703125 c 1
 266.245117188 613.879882812 l 1
 262.260742188 600.729492188 242.443359375 516.342773438 238.58203125 501 c 1xa8
 260.127929688 502.087890625 327.456054688 509.703125 349 510.791015625 c 1
 343.651367188 441 l 1x98
 321.27734375 441 246.4140625 435 224.040039062 435 c 1xa8
 204.412109375 355.213867188 169.049804688 212.104492188 157.61328125 99.3896484375 c 1
 156.998046875 86.3857421875 159.34765625 76.6328125 167.782226562 76.6328125 c 3
 191.166992188 76.6328125 231.3828125 109.376953125 254.61328125 128.389648438 c 1
 254.61328125 128.389648438 273.555664062 99.9345703125 284.971679688 74.0654296875 c 1
 246.935546875 41.509765625 185.896484375 -11 127.779296875 -11 c 3
 106.068359375 -11 44.4892578125 0.8134765625 50.6455078125 87.806640625 c 1
 58.3056640625 196.482421875 97.55859375 329.168945312 116.36328125 429 c 1
 116.36328125 429 80.6220703125 425 71.6865234375 424 c 1
 67.841796875 482 l 1xc8
EndSplineSet
Substitution2: "pcap-1" t.pcap
Substitution2: "smcp-1" t.smcp
EndChar
StartChar: u
Encoding: 117 117 20
Width: 517
VWidth: 1159
Flags: HMW
HStem: -18 56<274.079 366.148> -10 70<65.5792 155.579> 341 75<106.579 165.579> 387 20G<418.079 425.579>
AnchorPoint: "Top" 317.032 537 basechar 0
AnchorPoint: "Ogonek" 416.823 23 basechar 0
AnchorPoint: "Bottom" 216.85 -15 basechar 0
LayerCount: 2
Back
SplineSet
449.41015625 475.877929688 m 1
 476.111328125 467.44921875 l 1
 452.022460938 391.139648438 430.768554688 334.74609375 396.731445312 171.942382812 c 0
 388.2890625 131.560546875 377.028320312 81.5341796875 374.932617188 55.9775390625 c 0
 374.750976562 51.73046875 375.213867188 48.576171875 375.578125 47.06640625 c 0
 394.221679688 48.3583984375 417.541992188 66.1953125 440.182617188 94.8896484375 c 1
 462.1640625 77.544921875 l 1
 484.145507812 60.2001953125 l 1
 458.70703125 27.9619140625 422.7109375 -9 373.391601562 -9 c 0
 361.96875 -9 350.455078125 -5.4921875 341.431640625 1.3623046875 c 0
 320.553710938 17.21875 318.03515625 41.416015625 319.053710938 59.705078125 c 0
 321.78515625 94.76953125 333.50390625 143.163085938 341.916992188 183.401367188 c 0
 376.311523438 347.920898438 399.130859375 409.614257812 422.708984375 484.306640625 c 1
 449.41015625 475.877929688 l 1
358.12890625 201.564453125 m 1
 379.055664062 182.9609375 l 1
 337.401367188 136.10546875 233.284179688 -8 134.706054688 -8 c 0
 91.74609375 -8 71.53515625 32.048828125 67.7158203125 64.7509765625 c 0
 64.2060546875 94.7958984375 74.4892578125 146.901367188 82.9228515625 190.436523438 c 0
 106.77734375 313.563476562 140.372070312 413.77734375 148.333984375 453.474609375 c 1
 135.08203125 445.688476562 115.03125 426.758789062 97.4912109375 402.880859375 c 1
 74.9248046875 419.45703125 l 1
 52.359375 436.033203125 l 1
 80.6787109375 474.5859375 116.096679688 513 155.817382812 513 c 0
 161.114257812 513 166.608398438 513.133789062 174.020507812 511.373046875 c 0
 208.024414062 503.299804688 206.408203125 468.875 206.014648438 462 c 0
 203.44140625 417.03125 164.510742188 317.140625 137.901367188 179.786132812 c 0
 129.950195312 138.74609375 122.022460938 82.505859375 123.336914062 71.2490234375 c 0
 125.986328125 48.5751953125 134.5390625 48 134.706054688 48 c 0
 187.211914062 48 288.216796875 165.065429688 337.202148438 220.16796875 c 1
 358.12890625 201.564453125 l 1
EndSplineSet
Fore
SplineSet
427.315429688 496 m 1x60
 430.721679688 499.200195312 452.084960938 504 460.032226562 504 c 1
 475.578125 504 485.630859375 503 486.078125 497 c 1
 455.705078125 395.146484375 434.174804688 348.5 397.865234375 172.921875 c 0
 389.618164062 133.043945312 374.23046875 64.439453125 376.10546875 53.4658203125 c 1
 375.967773438 49.822265625 377.04296875 48 379.102539062 48 c 3
 390.65625 48 423.473632812 59.4833984375 456.934570312 114.640625 c 1
 497 79.0537109375 l 1
 473.473632812 40 447.362304688 17.369140625 422.032226562 4 c 0
 409.834960938 -2.4375 393.07421875 -9 376.338867188 -9 c 3x90
 337.510742188 -9 321.463867188 20.1337890625 319.98046875 46.341796875 c 0
 318.478515625 72.8857421875 326.81640625 104.467773438 331.172851562 128.384765625 c 1
 298.796875 77.4921875 211.421875 -8 148.653320312 -8 c 3
 112.543945312 -8 87.4296875 11 74.6484375 41 c 1
 65.4736328125 67 63.4736328125 89 83.994140625 191.040039062 c 0
 101.474609375 277.961914062 130.52734375 382.200195312 148.473632812 449 c 0
 149.014648438 451.014648438 148.931640625 451.841796875 147.473632812 452 c 1
 142.361328125 452 112.500976562 436.318359375 61.0322265625 354 c 1
 25.4736328125 393.014648438 l 1
 48.56640625 434.623046875 102.854492188 513 156.764648438 513 c 3
 199.65234375 513 206.961914062 491.755859375 206.961914062 462 c 3
 206.961914062 423.921875 151.272460938 272.754882812 126.473632812 105 c 0
 119.397460938 57.1318359375 134.545898438 49 157.473632812 49 c 3
 193.87109375 49 323.396484375 160.579101562 372.473632812 314 c 1
 375.2734375 323.786132812 380.98046875 342.70703125 381.645507812 345.161132812 c 0
 389.959960938 375.854492188 404.106445312 422.241210938 413.180664062 450.883789062 c 0
 418.975585938 469.173828125 423.762695312 485.026367188 427.315429688 496 c 1x60
EndSplineSet
Substitution2: "pcap-1" u.pcap
Substitution2: "smcp-1" u.smcp
EndChar
StartChar: v
Encoding: 118 118 21
Width: 439
VWidth: 1159
Flags: HMW
HStem: 327 68<56.0653 163.497> 428 20G<397.497 428.497>
VStem: 390.497 59.0557<298.23 368.797>
AnchorPoint: "Top" 285.573 537 basechar 0
AnchorPoint: "Bottom" 102.897 -15 basechar 0
LayerCount: 2
Back
SplineSet
351.510396602 463.684062967 m 2
 344.217299061 475.63440724 344.738234599 474.780811221 344.217299061 475.63440724 c 2
 329.631103979 499.535095788 l 1
 350.548410063 512.300581875 367.151641181 516.896484375 380.146484375 516.896484375 c 0
 435.022496497 516.896484375 468.573242188 482.496165604 468.573242188 434 c 0
 468.573242188 318.678673867 313.472033956 144.614606433 225.91796875 67.0029296875 c 0
 205.331787349 48.7544559862 176.082060174 22.2993308557 157.724142977 -0.209190268751 c 2
 126.705260145 -38.2412378034 l 1
 109.749958673 7.81444028049 l 1
 108.699651223 10.6673899543 l 1
 107.100522917 15.0111014834 l 1
 106.984398845 19.6383637828 l 2
 103.399322978 162.494932283 101.690806485 291.882132129 99.8060988857 434.237477553 c 1
 87.1684347232 421.106765309 75.2059232754 406.421991254 63.589239168 391.539571905 c 1
 41.5172153614 408.768204036 l 1
 19.4451915547 425.996836166 l 1
 41.9371240274 454.811803323 73.8550103111 507.043945312 116.366210938 507.043945312 c 0
 161.78447312 507.043945312 155.573242188 453.447356848 155.573242188 452.185663314 c 0
 157.283834658 323.203577076 158.721347243 209.62228582 161.478874419 84.2244160599 c 1
 170.014775923 92.1790308098 181.074688427 102.086468391 188.770888539 108.908710098 c 0
 273.662240355 184.160043547 412.573242188 357.788592971 412.573242188 434 c 0
 412.573242188 454.21872965 410.484112997 460.634079661 380.748483388 460.895161362 c 0
 379.246192229 460.672598043 369.816410593 458.454719532 358.803494142 451.733718693 c 1
 351.510396602 463.684062967 l 2
EndSplineSet
Fore
SplineSet
161.573242188 84 m 1
 293 200.407821229 413 363.745760963 413 434 c 3
 413 448.74773885 406.656348543 460.737304688 383.814453125 460.737304688 c 3
 376.382741267 460.737304688 358.973020552 455.737499998 340.510742188 437.737304688 c 1
 311.352539062 486.611328125 l 1
 338.390625 508.407226562 364.399414062 516.896484375 380.146484375 516.896484375 c 3
 435.875976562 516.896484375 468.573242188 483.701171875 468.573242188 434 c 3xa0
 468.573242188 319.313476562 313.072094916 144.260083324 225.91796875 67.0029296875 c 0
 200.987304688 44.9033203125 165.529296875 13.2373046875 147.490234375 -14 c 1
 108.59375 -3.951171875 l 1
 104.348300171 143.665862342 99.8701171875 273.82774033 99.8701171875 422.904296875 c 3
 99.8701171875 424.888671875 99.6552734375 429.721679688 97.8486328125 429.721679688 c 3
 91.0701559044 429.721679688 61.8122837361 388.724942095 44.4619140625 359.69921875 c 1
 8 411.197265625 l 1
 25.6086825703 435.483398438 71.0251353578 507.043945312 114.366210938 507.043945312 c 3
 149.014517829 507.043945312 155.573242188 482.827148438 155.573242188 452 c 3
 155.573242188 328.397183642 158.419726562 180.491078317 161.573242188 84 c 1
EndSplineSet
Substitution2: "pcap-1" v.pcap
Substitution2: "smcp-1" v.smcp
EndChar
StartChar: w
Encoding: 119 119 22
Width: 685
VWidth: 1159
Flags: HMW
HStem: -12.8359 21G<38.5452 122.861 309.303 371.512> 412.055 98.9453<93.8194 179.993> 432 79.2686<545.753 636.75> 483.191 20G<377.099 452.376>
VStem: 103.017 111.593<274.567 412.036>
AnchorPoint: "Top" 419.633 537 basechar 0
AnchorPoint: "Bottom" 178.901 -15 basechar 0
LayerCount: 2
Back
SplineSet
379.222749643 70.5662041914 m 1
 395.628010085 48.9125809677 l 1
 411.630858844 27.7901087735 l 1
 396.978650294 16.6892738309 382.002434197 4.9085373201 372.354177198 -3.26658240652 c 2
 361.193226741 -12.7234310641 l 1
 347.05606295 -8.96319149897 l 1
 341.244056437 -7.41729890225 l 1
 319.940286038 -1.75086668652 l 1
 320.448777724 20.2877476869 l 2
 322.254638804 98.5558433221 337.125844708 191.550650949 344.193981826 320.686718075 c 2
 352.539894267 473.167957621 l 1
 380.498046875 471.637695312 l 1
 408.456199483 470.107433004 l 1
 400.110287043 317.626193457 l 2
 394.603131858 217.00953171 384.384424968 135.388212757 379.222749643 70.5662041914 c 1
70.375 20.373046875 m 1
 42.9826632816 26.1747611996 l 1
 74.1260171639 173.215650901 116 373.694225544 116 426 c 0
 116 435.452275607 115.453489608 446.372553533 114.237180465 453.336049714 c 1
 98.3314872548 447.959790415 75.9519394148 429.410792078 59.3325348056 411.708356322 c 1
 38.9189453125 430.873046875 l 1
 18.5053558194 450.037737428 l 1
 41.1311030296 474.137929093 77.6163264634 511 123 511 c 0
 179.552752786 511 172 436.554675474 172 426 c 0
 172 357.929912847 129.281693282 163.363882159 97.7673367184 14.5713325504 c 1
 70.375 20.373046875 l 1
316.753206206 328.515228489 m 1
 341.90640574 316.214149138 l 1
 312.986085202 257.077989426 244.073210154 146.313055227 176.222380547 67.5166565509 c 1
 155.004637748 85.7870531114 l 1
 133.786894948 104.057449672 l 1
 196.929114488 177.385654103 265.591563958 287.634344653 291.600006672 340.816307839 c 1
 316.753206206 328.515228489 l 1
438.010797759 116.799463958 m 1
 531.496737171 186.34039433 646.714593839 319.661109426 640.745223462 410.986079239 c 0
 637.922343999 454.173109931 634.207026406 455.268554688 606.102539062 455.268554688 c 0
 603.67731594 455.268554688 590.645959827 453.43757943 573.668474621 443.49229255 c 1
 545.363079322 491.812108329 l 1
 569.810498678 506.133228097 590.6054226 511.268554688 606.102539062 511.268554688 c 0
 665.806576867 511.268554688 692.903658366 471.586151321 696.625976562 414.638671875 c 0
 705.31054726 281.774046854 562.104397578 137.442501929 464.995117188 67.1416015625 c 0
 457.517753235 61.7284688921 440.615285379 49.3739111084 440.615285379 49.3739111084 c 1
 405.976807431 93.3290978511 l 1
 426.801757812 111 l 1
 462.505161472 68.9239586414 l 2
 458.84068211 74.6036605743 438.010797759 116.799463958 438.010797759 116.799463958 c 1
EndSplineSet
Fore
SplineSet
678.625976562 414.638671875 m 0xa8
 686.722576624 282.192382812 553.760549897 135.327729939 461.995117188 67.1416015625 c 0
 427.956398661 41.8491971933 380.849970001 6.056640625 361.616210938 -12.8359375 c 1
 320.311523438 -1.849609375 l 1
 319.411132812 78.1724116138 334.8359375 178.890592083 344.212890625 321 c 1
 303.593556893 235.402835265 167.755459804 24.6042528974 81.5927734375 -15 c 1
 38.5537109375 3.6435546875 l 1
 69.222021741 148.721114958 116.466487743 373.946041396 116.483398438 428.110351562 c 0
 116.484660875 432.153891629 116.633628532 450 111 450 c 3
 94.9664038845 450 61.1460487271 416.323757846 45.357421875 392.479492188 c 1
 4.294921875 431.767578125 l 1
 24.9035385714 462.844258634 77.3472269131 511 120 511 c 3xc8
 167.347624976 511 172 467.377421412 172 443 c 0
 172 394.244726912 160 306 110 74 c 1
 150.31110129 129.084476562 283.564316294 266.161454545 355.107421875 500.86328125 c 1
 407.5703125 503.19140625 l 1x98
 406.085019443 338.05049723 388.064926943 181.263297329 379 74 c 1
 539.976833977 195.961852861 640.753919711 328.869847629 620 438 c 0
 618.569319157 445.522936418 612.874316809 455.244140625 592.9921875 455.244140625 c 3
 575.909521485 455.244140625 556.739866391 448.236218133 531.721679688 423 c 1
 506.081054688 477 l 1
 536.591796875 501.662109375 568.3203125 511.268554688 588.102539062 511.268554688 c 3
 649.4140625 511.268554688 675.112280287 472.65222743 678.625976562 414.638671875 c 0xa8
EndSplineSet
Substitution2: "pcap-1" w.pcap
Substitution2: "smcp-1" w.smcp
EndChar
StartChar: x
Encoding: 120 120 23
Width: 520
VWidth: 1159
Flags: W
HStem: -10 103<28.0413 108.316> -9.83984 90.8398<302.517 413.3> 409 100<133.861 241.586 399.746 463.847>
VStem: -0.625318 61.2402<93.2887 117> 41.0866 60.5586<344.292 370.369> 464.019 58.5957<385.72 405.51>
AnchorPoint: "Top" 332.615 537 basechar 0
AnchorPoint: "Bottom" 198.524 -15 basechar 0
LayerCount: 2
Fore
SplineSet
306.903320312 274 m 1x6c
 351.231445312 119.233398438 363.537109375 81 387.998046875 81 c 3
 398.989257812 81 424.142578125 112.907226562 448.749023438 153.404296875 c 1
 501.364257812 111.087890625 l 1
 462.823242188 49.45703125 419.72265625 -9.83984375 349.90625 -9.83984375 c 3
 255.12890625 -9.83984375 244.171875 124.525390625 227.615234375 198 c 1
 227.413085938 198.883789062 217.928710938 234.0859375 217.615234375 236 c 1
 203.482421875 299.637695312 187.462890625 409 159.615234375 409 c 3
 139.16015625 409 115.875976562 360.008789062 101.645507812 324.094726562 c 1
 41.0869140625 346.931640625 l 1
 69.28515625 450.474609375 117.94921875 509 206.615234375 509 c 3
 276.556640625 509 280.80078125 394.77734375 296.219726562 320 c 1
 296.643554688 317.565429688 306.568359375 274.79296875 306.903320312 274 c 1x6c
252.383789062 190 m 1
 133.233398438 24.390625 131.487304688 -10 55.94140625 -10 c 3
 0.1416015625 -10 -15.798828125 24.7216796875 -16.947265625 58.919921875 c 0
 -17.552734375 76.9677734375 -12.9736328125 99.0234375 -0.625 132.19921875 c 1
 60.615234375 117 l 1
 58.8837890625 100.260742188 74.01171875 93 83.615234375 93 c 3xb4
 98.7578125 93 182.186523438 208.577148438 215.615234375 255 c 1
 216.610351562 256.286132812 270.672851562 321.038085938 271.705078125 323 c 1
 344.366210938 432.552734375 384.529296875 506 444.497070312 506 c 3
 497.875 506 534.854492188 459.61328125 535.7578125 433.034179688 c 0
 536.376953125 414.815429688 529.876953125 397.369140625 522.615234375 381 c 1
 464.01953125 385.719726562 l 1
 463.932617188 399.8125 455.629882812 406 450.615234375 406 c 3
 394.806640625 406 364.450195312 352.896484375 297.615234375 252 c 1
 296.780273438 250.973632812 253.256835938 191.130859375 252.383789062 190 c 1
EndSplineSet
Substitution2: "pcap-1" x.pcap
Substitution2: "smcp-1" x.smcp
EndChar
